<svg width="30" height="31" viewBox="0 0 30 31" fill="none" xmlns="http://www.w3.org/2000/svg">
<path d="M5.6875 22.3871V27.871L11 26.5161L15 30.6452L19 26.5161L24.3125 27.871V22.3871L29.6875 20.9677L27 15.4839L29.6875 9.99999L24.3125 8.58064V3.09676L19 4.4516L15 0.322571L11 4.4516L5.6875 3.09676V8.58064L0.3125 9.99999L3 15.4839L0.3125 20.9677L5.6875 22.3871ZM5.375 14.2581L4.1875 11.7419L6.3125 11.2258C6.9375 11.0968 7.42708 10.7849 7.78125 10.2903C8.13542 9.79569 8.3125 9.2258 8.3125 8.58064V6.64515L10.3125 7.2258H11C11.7083 7.2258 12.3333 6.94623 12.875 6.38709L15 4.19354L17.125 6.38709C17.6667 6.94623 18.2917 7.2258 19 7.2258C19.25 7.2258 19.4792 7.18279 19.6875 7.09676L21.6875 6.64515V8.58064C21.6875 9.2258 21.8646 9.79569 22.2187 10.2903C22.5729 10.7849 23.0625 11.0968 23.6875 11.2258L25.8125 11.7419L24.625 14.2581C24.2083 15.0753 24.2083 15.8925 24.625 16.7097L25.8125 19.2258L23.6875 19.7419C23.0625 19.871 22.5729 20.1828 22.2187 20.6774C21.8646 21.172 21.6875 21.7419 21.6875 22.3871V24.3226L19.6875 23.7419H19C18.2917 23.7419 17.6667 24.0215 17.125 24.5806L15 26.7742L12.875 24.5806C12.3333 24.0215 11.7083 23.7419 11 23.7419C10.75 23.7419 10.5208 23.7849 10.3125 23.871L8.3125 24.3226V22.3871C8.3125 21.7419 8.13542 21.172 7.78125 20.6774C7.42708 20.1828 6.9375 19.871 6.3125 19.7419L4.1875 19.2258L5.375 16.7097C5.79167 15.8925 5.79167 15.0753 5.375 14.2581ZM13.6875 20.1935L19.9375 13.6774C20.5208 13.0753 20.5208 12.4301 19.9375 11.7419C19.3125 11.1828 18.6875 11.1828 18.0625 11.7419L13.6875 16.3226L11.9375 14.5161C11.3125 13.957 10.6875 13.957 10.0625 14.5161C9.52083 15.1613 9.52083 15.8064 10.0625 16.4516L13.6875 20.1935Z" fill="#F2994A"/>
</svg>
