<svg width="70" height="50" viewBox="0 0 70 50" fill="none" xmlns="http://www.w3.org/2000/svg">
<g filter="url(#filter0_d)">
<g clip-path="url(#clip0)">
<rect x="8" y="7" width="54" height="34" rx="5" fill="white"/>
<path d="M46.6596 13.6504C49.3893 10.9199 49.3893 6.49286 46.6596 3.76236C43.9299 1.03187 39.5042 1.03187 36.7746 3.76236C34.0449 6.49286 34.0449 10.9199 36.7746 13.6504C39.5042 16.3809 43.9299 16.3809 46.6596 13.6504Z" fill="#BFC22D"/>
<path d="M41.7449 16.1034C42.1083 16.1026 42.4026 15.9914 42.4022 15.855C42.4019 15.7187 42.1071 15.6088 41.7438 15.6097C41.3805 15.6105 41.0862 15.7217 41.0865 15.858C41.0868 15.9944 41.3816 16.1042 41.7449 16.1034Z" fill="#BFC22D"/>
<path d="M41.634 15.7742L41.168 16.5419C41.1132 16.6242 41.168 16.7064 41.2776 16.7064H42.2096C42.2918 16.7064 42.3467 16.5967 42.3193 16.5419L41.8533 15.7742C41.7984 15.6919 41.6888 15.6919 41.634 15.7742Z" fill="#BFC22D"/>
<path d="M41.7422 16.5693L41.8792 44.5097" stroke="#BFC22D" stroke-width="1.3125" stroke-miterlimit="10"/>
<path d="M62.4537 15.5362C65.4831 12.5059 65.4831 7.59282 62.4537 4.56251C59.4243 1.5322 54.5127 1.53219 51.4833 4.56251C48.4539 7.59282 48.4539 12.5059 51.4833 15.5362C54.5127 18.5666 59.4243 18.5666 62.4537 15.5362Z" fill="#CA4475"/>
<path d="M56.9835 18.2422C57.3923 18.2413 57.7234 18.1177 57.723 17.9662C57.7227 17.8147 57.391 17.6926 56.9823 17.6936C56.5735 17.6945 56.2425 17.8181 56.2428 17.9696C56.2432 18.1211 56.5748 18.2431 56.9835 18.2422Z" fill="#CA4475"/>
<path d="M56.8744 17.858L56.3535 18.708C56.2987 18.7903 56.3535 18.9 56.4632 18.9H57.5048C57.6145 18.9 57.6693 18.7903 57.6145 18.708L57.0936 17.858C57.0388 17.7758 56.9292 17.7758 56.8744 17.858Z" fill="#CA4475"/>
<path d="M57.0117 18.7629L57.0391 42.7" stroke="#CA4475" stroke-width="1.3125" stroke-miterlimit="10"/>
<path d="M55.7765 33.5503C59.1698 30.1559 59.1698 24.6525 55.7765 21.2582C52.3831 17.8638 46.8814 17.8638 43.488 21.2582C40.0946 24.6525 40.0946 30.1559 43.488 33.5503C46.8814 36.9447 52.3831 36.9447 55.7765 33.5503Z" fill="#679BD4"/>
<path d="M49.6656 36.6404C50.1198 36.6394 50.4876 36.4912 50.4872 36.3095C50.4868 36.1278 50.1183 35.9813 49.6641 35.9823C49.21 35.9834 48.8421 36.1315 48.8425 36.3132C48.843 36.4949 49.2115 36.6414 49.6656 36.6404Z" fill="#679BD4"/>
<path d="M49.5268 36.1742L48.9512 37.1339C48.8964 37.2162 48.9512 37.3533 49.0608 37.3533H50.2121C50.3218 37.3533 50.3766 37.2436 50.3218 37.1339L49.7461 36.1742C49.7187 36.092 49.5817 36.092 49.5268 36.1742Z" fill="#679BD4"/>
<path d="M49.6641 37.1887L49.6915 43.1936" stroke="#679BD4" stroke-width="1.3125" stroke-miterlimit="10"/>
<path d="M14.8536 35.7082C14.8536 35.5985 14.9084 35.5162 15.0729 35.5162C15.1277 35.5162 15.2373 35.5436 15.2373 35.5985C15.2373 35.6259 15.2373 35.6533 15.1825 35.6533H15.1551C15.1277 35.6533 15.1277 35.6259 15.0729 35.6259C15.018 35.6259 14.9906 35.6533 14.9906 35.7082V35.8454C14.9906 35.9002 15.018 35.9277 15.0729 35.9277C15.1003 35.9277 15.1277 35.9277 15.1551 35.9002H15.1825C15.2373 35.9002 15.2373 35.9277 15.2373 35.9551C15.2373 36.0374 15.1277 36.0374 15.0455 36.0374C14.9084 36.0374 14.8262 35.9551 14.8262 35.8454V35.7082H14.8536Z" fill="#679BD4"/>
<path d="M15.6493 35.5436C15.6493 35.5161 15.6767 35.4887 15.7041 35.4887C15.7315 35.4887 15.7864 35.5161 15.7864 35.5436C15.7864 35.5436 15.7864 35.5435 15.7864 35.571L15.6493 35.9274C15.5945 36.0919 15.5397 36.229 15.4026 36.229C15.3478 36.229 15.3204 36.2016 15.3204 36.1742C15.3204 36.1468 15.3478 36.1194 15.3752 36.1194C15.43 36.1194 15.4574 36.0919 15.4574 36.0097L15.293 35.5984V35.571C15.293 35.5435 15.3204 35.5161 15.3752 35.5161C15.4026 35.5161 15.43 35.5435 15.43 35.571L15.4848 35.7355C15.5123 35.7629 15.5123 35.8177 15.5123 35.8452C15.5123 35.8177 15.5397 35.7629 15.5397 35.7355L15.6493 35.5436Z" fill="#679BD4"/>
<path d="M16.2236 35.5161C16.251 35.5161 16.3058 35.5435 16.3058 35.571V35.9824C16.3058 36.0099 16.2784 36.0373 16.2236 36.0373C16.1688 36.0373 16.1414 36.0099 16.1414 35.9824V35.6258H16.0043V35.9824C16.0043 36.0099 15.9769 36.0373 15.9221 36.0373C15.8947 36.0373 15.8398 36.0099 15.8398 35.9824V35.571C15.8398 35.5435 15.8673 35.5161 15.9221 35.5161H16.2236Z" fill="#679BD4"/>
<path d="M16.5531 35.8179V35.8453C16.5531 35.8727 16.5805 35.9001 16.6354 35.9001C16.6628 35.9001 16.6902 35.9001 16.7176 35.8727C16.7176 35.8727 16.7176 35.8727 16.745 35.8727C16.7998 35.8727 16.7998 35.9001 16.7998 35.9276C16.7998 36.0099 16.6628 36.0099 16.608 36.0099C16.4709 36.0099 16.3887 35.9276 16.3887 35.8179V35.6533C16.3887 35.5435 16.4709 35.4612 16.608 35.4612C16.745 35.4612 16.7998 35.5435 16.7998 35.6258C16.7998 35.7356 16.745 35.7904 16.608 35.7904C16.608 35.8453 16.5805 35.8453 16.5531 35.8179ZM16.6354 35.5984C16.5805 35.5984 16.5531 35.6258 16.5531 35.6533V35.7081C16.5805 35.7081 16.608 35.7081 16.6354 35.7081C16.6628 35.7081 16.6902 35.7081 16.6902 35.6533C16.6902 35.6258 16.6628 35.5984 16.6354 35.5984Z" fill="#679BD4"/>
<path d="M17.0747 36.0097V36.1742C17.0747 36.2016 17.0473 36.229 16.9925 36.229C16.9376 36.229 16.9102 36.2016 16.9102 36.1742V35.6532C16.9102 35.6258 16.9102 35.6258 16.9102 35.5984L16.8828 35.571C16.8828 35.5435 16.9102 35.5161 16.965 35.5161C16.9925 35.5161 16.9925 35.5161 17.0199 35.5436C17.0747 35.5161 17.1021 35.4887 17.1569 35.4887C17.2666 35.4887 17.3488 35.571 17.3488 35.6806V35.7903C17.3488 35.9 17.294 36.0097 17.1569 36.0097C17.1569 36.0371 17.1295 36.0371 17.0747 36.0097ZM17.0747 35.9C17.1021 35.9 17.1295 35.9 17.1569 35.9C17.2117 35.9 17.2392 35.8726 17.2392 35.7903V35.6806C17.2392 35.6258 17.2117 35.5984 17.1843 35.5984C17.1569 35.5984 17.1295 35.5984 17.1021 35.6258C17.1021 35.6258 17.1021 35.6258 17.1021 35.6532V35.9H17.0747Z" fill="#679BD4"/>
<path d="M17.7586 35.955C17.7311 35.955 17.7037 35.9276 17.7037 35.9276L17.6215 35.7904V35.9824C17.6215 36.0099 17.5941 36.0373 17.5393 36.0373C17.5119 36.0373 17.457 36.0099 17.457 35.9824V35.571C17.457 35.5435 17.4844 35.5161 17.5393 35.5161C17.5667 35.5161 17.5941 35.5435 17.5941 35.5435L17.7311 35.7904L17.8682 35.5435C17.8956 35.5161 17.8956 35.5161 17.923 35.5161C17.9778 35.5161 18.0053 35.5435 18.0053 35.571V35.9824C18.0053 36.0099 17.9778 36.0373 17.923 36.0373C17.8956 36.0373 17.8408 36.0099 17.8408 35.9824V35.7904L17.7586 35.9276C17.8134 35.9276 17.786 35.955 17.7586 35.955Z" fill="#679BD4"/>
<path d="M18.5812 35.9001C18.5812 35.9276 18.6086 35.9276 18.6086 35.9276C18.636 35.9276 18.636 35.955 18.636 35.955C18.636 35.9824 18.6086 36.0099 18.5537 36.0099C18.5263 36.0099 18.4989 36.0099 18.4715 35.955C18.4441 35.9824 18.3893 36.0099 18.3345 36.0099C18.2248 36.0099 18.1426 35.955 18.1426 35.8453C18.1426 35.7356 18.2248 35.6807 18.3345 35.6807C18.3619 35.6807 18.3893 35.6807 18.4167 35.6807V35.6533C18.4167 35.5984 18.3893 35.571 18.3345 35.571C18.307 35.571 18.2796 35.571 18.2796 35.5984H18.2522C18.1974 35.5984 18.1974 35.571 18.1974 35.5435C18.1974 35.4887 18.2796 35.4612 18.3619 35.4612C18.4989 35.4612 18.5812 35.5435 18.5812 35.6807V35.9001ZM18.307 35.8727C18.307 35.9001 18.3345 35.9276 18.3619 35.9276C18.3893 35.9276 18.4167 35.9276 18.4441 35.9001V35.8179C18.4167 35.8179 18.3893 35.8179 18.3619 35.8179C18.307 35.8179 18.307 35.8453 18.307 35.8727Z" fill="#679BD4"/>
<path d="M18.8833 36.0097V36.1742C18.8833 36.2016 18.8559 36.229 18.8011 36.229C18.7462 36.229 18.7188 36.2016 18.7188 36.1742V35.6532C18.7188 35.6258 18.7188 35.6258 18.7188 35.5984L18.6914 35.571C18.6914 35.5435 18.7188 35.5161 18.7736 35.5161C18.8011 35.5161 18.8011 35.5161 18.8285 35.5436C18.8833 35.5161 18.9107 35.4887 18.9655 35.4887C19.0752 35.4887 19.1574 35.571 19.1574 35.6806V35.7903C19.1574 35.9 19.1026 36.0097 18.9655 36.0097C18.9381 36.0371 18.9107 36.0371 18.8833 36.0097ZM18.8833 35.9C18.9107 35.9 18.9381 35.9 18.9655 35.9C19.0203 35.9 19.0478 35.8726 19.0478 35.7903V35.6806C19.0478 35.6258 19.0203 35.5984 18.9929 35.5984C18.9655 35.5984 18.9381 35.5984 18.9107 35.6258C18.9107 35.6258 18.9107 35.6258 18.9107 35.6532V35.9H18.8833Z" fill="#679BD4"/>
<path d="M19.432 35.8453V35.9824C19.432 36.0099 19.4046 36.0373 19.3498 36.0373C19.3224 36.0373 19.2676 36.0099 19.2676 35.9824V35.571C19.2676 35.5435 19.295 35.5161 19.3498 35.5161C19.3772 35.5161 19.432 35.5435 19.432 35.571V35.7081H19.4595L19.5965 35.5435C19.6239 35.5161 19.6239 35.5161 19.6513 35.5161C19.6787 35.5161 19.7062 35.5435 19.7336 35.571V35.5984L19.5965 35.763L19.7336 35.9276V35.955C19.7336 35.9825 19.7062 36.0099 19.6513 36.0099C19.6239 36.0099 19.5965 36.0099 19.5965 35.9824L19.432 35.8453Z" fill="#679BD4"/>
<path d="M19.8969 35.8179V35.8453C19.8969 35.8727 19.9243 35.9001 19.9791 35.9001C20.0065 35.9001 20.0339 35.9001 20.0614 35.8727C20.0614 35.8727 20.0614 35.8727 20.0888 35.8727C20.1436 35.8727 20.1436 35.9001 20.1436 35.9276C20.1436 36.0099 20.0065 36.0099 19.9517 36.0099C19.8147 36.0099 19.7324 35.9276 19.7324 35.8179V35.6533C19.7324 35.5435 19.8147 35.4612 19.9517 35.4612C20.0888 35.4612 20.1436 35.5435 20.1436 35.6258C20.1436 35.7356 20.0888 35.7904 19.9517 35.7904C19.9517 35.8453 19.9243 35.8453 19.8969 35.8179ZM19.9791 35.5984C19.9243 35.5984 19.8969 35.6258 19.8969 35.6533V35.7081C19.9243 35.7081 19.9517 35.7081 19.9791 35.7081C20.0065 35.7081 20.0339 35.7081 20.0339 35.6533C20.0339 35.6258 20.0065 35.5984 19.9791 35.5984Z" fill="#679BD4"/>
<path d="M20.5261 35.9824C20.5261 36.0098 20.4987 36.0373 20.4439 36.0373C20.3891 36.0373 20.3617 36.0098 20.3617 35.9824V35.6532H20.2794C20.252 35.6532 20.2246 35.6258 20.2246 35.5984C20.2246 35.5709 20.252 35.5435 20.2794 35.5435H20.581C20.6084 35.5435 20.6358 35.5709 20.6358 35.5984C20.6358 35.6258 20.6084 35.6532 20.581 35.6532H20.4987V35.9824H20.5261Z" fill="#679BD4"/>
<path d="M21.4329 35.5161C21.4877 35.5161 21.4877 35.571 21.4877 35.571V35.9C21.5425 35.9 21.5425 35.9548 21.5425 35.9548V36.0919C21.5425 36.1194 21.5151 36.1468 21.4603 36.1468C21.4329 36.1468 21.378 36.1194 21.378 36.0919V36.0097H21.1039V36.0919C21.1039 36.1194 21.0765 36.1468 21.0217 36.1468C20.9943 36.1468 20.9395 36.1194 20.9395 36.0919V35.9548C20.9395 35.9274 20.9395 35.9 20.9943 35.9C21.0217 35.8726 21.0491 35.8177 21.0491 35.7355V35.5436C21.0491 35.5161 21.0765 35.4887 21.1039 35.4887H21.4329V35.5161ZM21.2136 35.9274H21.3506V35.6258H21.241V35.7629C21.241 35.8177 21.241 35.8726 21.2136 35.9274Z" fill="#679BD4"/>
<path d="M21.7875 35.8179V35.8453C21.7875 35.8727 21.8149 35.9001 21.8697 35.9001C21.8972 35.9001 21.9246 35.9001 21.952 35.8727C21.952 35.8727 21.952 35.8727 21.9794 35.8727C22.0342 35.8727 22.0342 35.9001 22.0342 35.9276C22.0342 36.0099 21.8972 36.0099 21.8423 36.0099C21.7053 36.0099 21.623 35.9276 21.623 35.8179V35.6533C21.623 35.5435 21.7053 35.4612 21.8423 35.4612C21.9794 35.4612 22.0342 35.5435 22.0342 35.6258C22.0342 35.7356 21.9794 35.7904 21.8423 35.7904C21.8423 35.8453 21.8149 35.8453 21.7875 35.8179ZM21.8423 35.5984C21.7875 35.5984 21.7601 35.6258 21.7601 35.6533V35.7081C21.7875 35.7081 21.8149 35.7081 21.8423 35.7081C21.8697 35.7081 21.8972 35.7081 21.8972 35.6533C21.9246 35.6258 21.8972 35.5984 21.8423 35.5984Z" fill="#679BD4"/>
<path d="M22.3914 35.9824C22.3914 36.0098 22.364 36.0373 22.3091 36.0373C22.2543 36.0373 22.2269 36.0098 22.2269 35.9824V35.6532H22.1447C22.1173 35.6532 22.0898 35.6258 22.0898 35.5984C22.0898 35.5709 22.1173 35.5435 22.1447 35.5435H22.4462C22.4736 35.5435 22.501 35.5709 22.501 35.5984C22.501 35.6258 22.4736 35.6532 22.4462 35.6532H22.364V35.9824H22.3914Z" fill="#679BD4"/>
<path d="M22.6114 35.7081C22.6114 35.5984 22.6662 35.5161 22.8307 35.5161C22.8855 35.5161 22.9952 35.5435 22.9952 35.5984C22.9952 35.6258 22.9952 35.6533 22.9403 35.6533H22.9129C22.8855 35.6533 22.8855 35.6258 22.8307 35.6258C22.7759 35.6258 22.7485 35.6533 22.7485 35.7081V35.8453C22.7485 35.9002 22.7759 35.9276 22.8307 35.9276C22.8581 35.9276 22.8855 35.9276 22.9129 35.9002H22.9403C22.9952 35.9002 22.9952 35.9276 22.9952 35.955C22.9952 36.0373 22.8855 36.0373 22.8033 36.0373C22.6662 36.0373 22.584 35.955 22.584 35.8453V35.7081H22.6114Z" fill="#679BD4"/>
<path d="M23.2152 35.8453V35.9824C23.2152 36.0099 23.1878 36.0373 23.133 36.0373C23.1056 36.0373 23.0508 36.0099 23.0508 35.9824V35.571C23.0508 35.5435 23.0782 35.5161 23.133 35.5161C23.1604 35.5161 23.2152 35.5435 23.2152 35.571V35.7081H23.2427L23.3797 35.5435C23.4071 35.5161 23.4071 35.5161 23.4345 35.5161C23.4619 35.5161 23.4894 35.5435 23.5168 35.571V35.5984L23.3797 35.763L23.5168 35.9276V35.955C23.5168 35.9825 23.4894 36.0099 23.4345 36.0099C23.4071 36.0099 23.3797 36.0099 23.3797 35.9824L23.2152 35.8453Z" fill="#679BD4"/>
<path d="M23.5703 35.9824V35.571C23.5703 35.5435 23.5977 35.5161 23.6525 35.5161C23.68 35.5161 23.7348 35.5435 23.7348 35.571V35.8179L23.8992 35.5435C23.8992 35.5161 23.9267 35.5161 23.9815 35.5161C24.0363 35.5161 24.0637 35.5435 24.0637 35.571V35.9824C24.0637 36.0099 24.0363 36.0373 23.9815 36.0373C23.9267 36.0373 23.8992 36.0099 23.8992 35.9824V35.7356L23.7348 36.0099C23.7074 36.0373 23.7074 36.0373 23.68 36.0373C23.5977 36.0373 23.5703 36.0099 23.5703 35.9824Z" fill="#679BD4"/>
<path d="M24.5558 35.955V35.9824C24.5558 36.0099 24.5284 36.0373 24.4736 36.0373C24.4462 36.0373 24.4188 36.0373 24.4188 36.0099C24.3914 35.955 24.364 35.9276 24.3365 35.8727C24.3091 35.9276 24.2817 35.955 24.2269 36.0099C24.1995 36.0373 24.1995 36.0373 24.1721 36.0373C24.1447 36.0373 24.0898 36.0099 24.0898 35.9824V35.955C24.1447 35.9002 24.1721 35.8453 24.2269 35.763C24.1721 35.7081 24.1447 35.6533 24.0898 35.5984V35.571C24.0898 35.5435 24.1173 35.5161 24.1721 35.5161C24.1995 35.5161 24.2269 35.5435 24.2543 35.571L24.3365 35.6807L24.4188 35.571C24.4462 35.5435 24.4462 35.5435 24.4736 35.5435C24.501 35.5435 24.5558 35.571 24.5558 35.5984V35.6258L24.4188 35.7904L24.5558 35.955Z" fill="#679BD4"/>
<path d="M25.2155 35.9824C25.2155 36.0098 25.1881 36.0373 25.1333 36.0373C25.1059 36.0373 25.051 36.0098 25.051 35.9824V35.6532H24.9962C24.9688 35.6532 24.9414 35.6258 24.9414 35.5984C24.9414 35.5709 24.9688 35.5435 24.9962 35.5435H25.2977C25.3252 35.5435 25.3526 35.5709 25.3526 35.5984C25.3526 35.6258 25.3252 35.6532 25.2977 35.6532H25.2155V35.9824Z" fill="#679BD4"/>
<path d="M25.4062 35.8453V35.6807C25.4062 35.571 25.4885 35.4887 25.6255 35.4887C25.7626 35.4887 25.8448 35.571 25.8448 35.6807V35.8453C25.8448 35.955 25.7626 36.0373 25.6255 36.0373C25.4885 36.0373 25.4062 35.955 25.4062 35.8453ZM25.7352 35.8453V35.6807C25.7352 35.6259 25.7078 35.5984 25.653 35.5984C25.5981 35.5984 25.5707 35.6259 25.5707 35.6807V35.8453C25.5707 35.9002 25.5981 35.9276 25.653 35.9276C25.7078 35.9276 25.7352 35.9002 25.7352 35.8453Z" fill="#679BD4"/>
<path d="M26.3113 35.763C26.3935 35.7904 26.4209 35.8179 26.4209 35.8727C26.4209 35.955 26.3661 36.0099 26.2291 36.0099H26.092C26.0646 36.0099 26.0098 35.9824 26.0098 35.955V35.571C26.0098 35.5435 26.0372 35.5161 26.092 35.5161H26.2291C26.3661 35.5161 26.4209 35.571 26.4209 35.6533C26.3935 35.7081 26.3661 35.7356 26.3113 35.763ZM26.1194 35.7081H26.1742C26.2291 35.7081 26.2291 35.6807 26.2291 35.6533C26.2291 35.6258 26.2016 35.5984 26.1742 35.5984H26.1194V35.7081ZM26.2016 35.8179H26.1468V35.9276H26.2291C26.2839 35.9276 26.2839 35.9002 26.2839 35.8727C26.2565 35.8453 26.2565 35.8179 26.2016 35.8179Z" fill="#679BD4"/>
<path d="M26.9132 35.9001C26.9132 35.9276 26.9406 35.9276 26.9406 35.9276C26.968 35.9276 26.968 35.955 26.968 35.955C26.968 35.9824 26.9406 36.0099 26.8858 36.0099C26.8584 36.0099 26.831 36.0099 26.8035 35.955C26.7761 35.9824 26.7213 36.0099 26.6665 36.0099C26.5568 36.0099 26.4746 35.955 26.4746 35.8453C26.4746 35.7356 26.5568 35.6807 26.6665 35.6807C26.6939 35.6807 26.7213 35.6807 26.7487 35.6807V35.6533C26.7487 35.5984 26.7213 35.571 26.6665 35.571C26.6391 35.571 26.6117 35.571 26.6117 35.5984H26.5843C26.5294 35.5984 26.5294 35.571 26.5294 35.5435C26.5294 35.4887 26.6117 35.4612 26.6939 35.4612C26.831 35.4612 26.9132 35.5435 26.9132 35.6807V35.9001ZM26.6117 35.8727C26.6117 35.9001 26.6391 35.9276 26.6665 35.9276C26.6939 35.9276 26.7213 35.9276 26.7487 35.9001V35.8179C26.7213 35.8179 26.6939 35.8179 26.6665 35.8179C26.6391 35.8179 26.6117 35.8453 26.6117 35.8727Z" fill="#679BD4"/>
<path d="M27.188 36.0097V36.1742C27.188 36.2016 27.1606 36.229 27.1057 36.229C27.0509 36.229 27.0235 36.2016 27.0235 36.1742V35.6532C27.0235 35.6258 27.0235 35.6258 27.0235 35.5984L26.9961 35.571C26.9961 35.5435 27.0235 35.5161 27.0783 35.5161C27.1057 35.5161 27.1057 35.5161 27.1332 35.5436C27.188 35.5161 27.2154 35.4887 27.2702 35.4887C27.3799 35.4887 27.4621 35.571 27.4621 35.6806V35.7903C27.4621 35.9 27.4073 36.0097 27.2702 36.0097C27.2702 36.0371 27.2428 36.0371 27.188 36.0097ZM27.188 35.9C27.2154 35.9 27.2428 35.9 27.2702 35.9C27.325 35.9 27.3524 35.8726 27.3524 35.7903V35.6806C27.3524 35.6258 27.325 35.5984 27.2976 35.5984C27.2702 35.5984 27.2428 35.5984 27.2154 35.6258C27.2154 35.6258 27.2154 35.6258 27.2154 35.6532V35.9H27.188Z" fill="#679BD4"/>
<path d="M27.5723 35.8453V35.6807C27.5723 35.571 27.6545 35.4887 27.7915 35.4887C27.9286 35.4887 28.0108 35.571 28.0108 35.6807V35.8453C28.0108 35.955 27.9286 36.0373 27.7915 36.0373C27.6545 36.0373 27.5723 35.955 27.5723 35.8453ZM27.8738 35.8453V35.6807C27.8738 35.6259 27.8464 35.5984 27.7915 35.5984C27.7367 35.5984 27.7093 35.6259 27.7093 35.6807V35.8453C27.7093 35.9002 27.7367 35.9276 27.7915 35.9276C27.8464 35.9276 27.8738 35.9002 27.8738 35.8453Z" fill="#679BD4"/>
<path d="M28.45 35.763C28.5322 35.7904 28.5596 35.8179 28.5596 35.8727C28.5596 35.955 28.5048 36.0099 28.3677 36.0099H28.2307C28.2033 36.0099 28.1484 35.9824 28.1484 35.955V35.571C28.1484 35.5435 28.1758 35.5161 28.2307 35.5161H28.3677C28.5048 35.5161 28.5596 35.571 28.5596 35.6533C28.5596 35.7081 28.5322 35.7356 28.45 35.763ZM28.2855 35.7081H28.3403C28.3951 35.7081 28.3951 35.6807 28.3951 35.6533C28.3951 35.6258 28.3677 35.5984 28.3403 35.5984H28.2855V35.7081ZM28.3403 35.8179H28.2855V35.9276H28.3677C28.4225 35.9276 28.4225 35.9002 28.4225 35.8727C28.4225 35.8453 28.4225 35.8179 28.3403 35.8179Z" fill="#679BD4"/>
<path d="M24.7489 29.4565C24.4474 29.0452 24.1733 28.6339 23.8718 28.2226L23.954 28.1403C24.1459 27.9484 24.3378 27.7565 24.5296 27.5645C24.8038 27.3177 24.8038 27.0436 24.5845 26.8242C24.4748 26.7145 24.3652 26.6597 24.2555 26.6597C24.1185 26.6597 23.9814 26.7145 23.8444 26.8516C23.5977 27.0984 23.351 27.3452 23.1317 27.5645L22.9946 27.7016C22.9946 27.5371 22.9946 27.3726 22.9946 27.2081C22.9946 26.8516 22.8301 26.6323 22.5012 26.6323C22.3367 26.6323 22.2271 26.6597 22.1449 26.7694C22.0352 26.879 22.0078 27.0161 22.0078 27.2081C22.0078 28.0581 22.0078 28.9081 22.0078 29.7307C22.0078 29.9226 22.0626 30.0597 22.1449 30.1694C22.2271 30.2516 22.3367 30.3065 22.5012 30.3065C22.8027 30.3065 22.9946 30.0871 22.9946 29.7307C22.9946 29.5661 22.9946 29.4016 22.9946 29.2371V29.1274C23.0494 29.0726 23.1043 29.0177 23.1591 28.9629L23.4332 29.3468C23.5977 29.5936 23.7621 29.8129 23.9266 30.0597C24.1459 30.3613 24.3926 30.4161 24.6667 30.2516C24.8038 30.1694 24.8586 30.0597 24.886 29.95C24.9134 29.7581 24.8586 29.621 24.7489 29.4565Z" fill="#CA4475"/>
<path d="M17.1833 26.6609C17.0189 26.6609 16.6625 26.6609 16.3336 26.6609C15.9498 26.6609 15.5935 26.6609 15.4838 26.6609C15.1275 26.6609 14.9082 26.8255 14.9082 27.1545C14.9082 27.319 14.9356 27.4287 15.0453 27.511C15.1275 27.6206 15.292 27.6481 15.4838 27.6481C15.5387 27.6481 15.6757 27.6481 15.8676 27.6481C15.8676 28.361 15.8676 29.0464 15.8676 29.7593C15.8676 29.9513 15.9224 30.0884 16.0046 30.1981C16.0869 30.2803 16.1965 30.3352 16.361 30.3352C16.6625 30.3352 16.8544 30.1158 16.8544 29.7593C16.8544 29.4577 16.8544 29.1561 16.8544 28.8819V28.4158C16.8544 28.169 16.8544 27.9222 16.8544 27.6755C17.0463 27.6755 17.1833 27.6755 17.2107 27.6755C17.5671 27.6755 17.7864 27.511 17.7864 27.1819C17.7864 27.0174 17.759 26.9077 17.6493 26.8255C17.5123 26.6884 17.3752 26.6609 17.1833 26.6609Z" fill="#CA4475"/>
<path d="M20.9382 26.6323C20.8285 26.6323 20.7463 26.6597 20.6641 26.6871C20.5544 26.7419 20.4448 26.8242 20.3625 26.9613L19.2661 28.3871C19.2661 28.0032 19.2661 27.2081 19.2661 27.2081C19.2661 26.8516 19.1016 26.6323 18.7727 26.6323C18.6082 26.6323 18.4986 26.6597 18.4164 26.7694C18.3067 26.879 18.2793 27.0161 18.2793 27.2081V29.7581C18.2793 29.95 18.3341 30.0871 18.4164 30.1968C18.4986 30.279 18.6082 30.3339 18.7727 30.3339C18.9646 30.3339 19.1565 30.2242 19.3209 30.0048L20.4448 28.5516V29.7581C20.4448 29.95 20.4996 30.0871 20.5818 30.1968C20.6641 30.279 20.8011 30.3339 20.9382 30.3339C21.2397 30.3339 21.4316 30.1145 21.4316 29.7581V27.2629C21.4316 26.8516 21.2397 26.6597 20.9382 26.6323Z" fill="#CA4475"/>
<path d="M28.0944 26.6323C27.9848 26.6323 27.9026 26.6597 27.8203 26.6871C27.7107 26.7419 27.601 26.8242 27.5188 26.9613L26.4224 28.3871C26.4224 28.0032 26.4224 27.2081 26.4224 27.2081C26.4224 26.8516 26.2579 26.6323 25.9289 26.6323C25.7645 26.6323 25.6548 26.6597 25.5726 26.7694C25.463 26.879 25.4355 27.0161 25.4355 27.2081V29.7581C25.4355 29.95 25.4904 30.0871 25.5726 30.1968C25.6548 30.279 25.7645 30.3339 25.9289 30.3339C26.1208 30.3339 26.3127 30.2242 26.4772 30.0048L27.601 28.5516V29.7581C27.601 29.95 27.6559 30.0871 27.7381 30.1968C27.8203 30.279 27.9574 30.3339 28.0944 30.3339C28.396 30.3339 28.5878 30.1145 28.5878 29.7581V27.2629C28.5604 26.8516 28.396 26.6597 28.0944 26.6323Z" fill="#CA4475"/>
<path d="M24.7488 31.5129C24.7214 31.3484 24.6666 31.2113 24.557 31.1291C24.4747 31.0742 24.3377 31.0468 24.2006 31.0742C24.0636 31.1017 23.9813 31.1565 23.9265 31.2387C23.8717 31.2936 23.8169 31.3758 23.7894 31.4855C23.6798 31.7597 23.5976 32.0065 23.4879 32.2807L23.296 32.7742L23.1042 32.2807C22.9945 32.0339 22.8849 31.7597 22.8026 31.4855C22.7752 31.3758 22.7204 31.2936 22.6656 31.2387C22.6108 31.1565 22.5011 31.1017 22.3641 31.0742C22.227 31.0468 22.1174 31.0742 22.0077 31.1291C21.8981 31.2113 21.8433 31.321 21.8158 31.5129C21.7062 32.2807 21.5691 33.0758 21.4595 33.8436C21.4321 34.0355 21.4595 34.1726 21.5417 34.2823C21.5966 34.3646 21.7062 34.4194 21.8433 34.4468C22.1448 34.4742 22.3367 34.3097 22.3915 33.9807C22.4189 33.7339 22.4737 33.4871 22.5011 33.2404L22.5559 33.4049C22.6382 33.6242 22.7478 33.871 22.8301 34.0904C22.8575 34.1178 22.8575 34.1726 22.8849 34.2C22.8849 34.2275 22.9123 34.2549 22.9397 34.2823L22.9671 34.3097C23.0493 34.4194 23.159 34.4742 23.3235 34.4742C23.4605 34.4742 23.5702 34.4194 23.6524 34.3097L23.6798 34.2823C23.7072 34.2549 23.7072 34.2275 23.7346 34.2C23.762 34.1726 23.7894 34.1178 23.7894 34.0904C23.8717 33.871 23.9813 33.6242 24.0636 33.4049L24.1184 33.2404C24.1458 33.4871 24.2006 33.7339 24.228 33.9807C24.2828 34.3371 24.4747 34.5016 24.7762 34.4468C24.9133 34.4194 25.0229 34.3646 25.0778 34.2823C25.16 34.1726 25.1874 34.0355 25.16 33.8436C24.9681 33.0758 24.8585 32.3081 24.7488 31.5129Z" fill="#679BD4"/>
<path d="M17.0463 31.048C16.8819 31.048 16.5529 31.048 16.2514 31.048C16.2514 31.048 16.2514 31.048 16.224 31.048C15.8677 31.048 15.5387 31.048 15.4291 31.048C15.1001 31.048 14.9083 31.2126 14.8809 31.5142C14.8809 31.6513 14.9083 31.7609 14.9905 31.8432C15.0727 31.9255 15.2098 31.9803 15.4017 31.9803H15.758C15.758 32.6384 15.758 33.2964 15.758 33.9271C15.758 34.119 15.8128 34.2561 15.8951 34.3384C15.9773 34.4206 16.087 34.448 16.224 34.448C16.5255 34.448 16.69 34.2561 16.69 33.8996C16.69 33.6255 16.69 33.3513 16.69 33.0771V32.6384C16.69 32.419 16.69 32.1996 16.69 31.9529C16.8545 31.9529 16.9915 31.9529 17.0189 31.9529C17.3479 31.9529 17.5397 31.7884 17.5672 31.4867C17.5672 31.3496 17.5397 31.24 17.4575 31.1577C17.3479 31.0755 17.2108 31.048 17.0463 31.048Z" fill="#679BD4"/>
<path d="M28.1194 31.0468C28.0098 31.0468 27.9275 31.0742 27.8453 31.1016C27.7357 31.1564 27.6534 31.2387 27.5712 31.3484L26.557 32.6645C26.557 32.2806 26.557 31.5677 26.557 31.5677C26.557 31.2113 26.3925 31.0193 26.091 31.0193C25.9539 31.0193 25.8443 31.0468 25.7621 31.129C25.6798 31.2113 25.625 31.3484 25.625 31.5403V33.9258C25.625 34.1177 25.6798 34.2548 25.7621 34.3371C25.8443 34.4193 25.9539 34.4468 26.091 34.4468C26.2829 34.4468 26.4473 34.3371 26.6118 34.1451L27.6534 32.8016V33.9258C27.6534 34.1177 27.7083 34.2548 27.7905 34.3371C27.8727 34.4193 27.9824 34.4468 28.1194 34.4468C28.4209 34.4468 28.5854 34.2548 28.5854 33.8984V31.5677C28.558 31.2387 28.3935 31.0468 28.1194 31.0468Z" fill="#679BD4"/>
<path d="M19.3499 31.0193C18.8565 31.0193 18.4454 31.2113 18.1164 31.5403C17.7875 31.8693 17.623 32.3081 17.623 32.7742C17.623 33.7339 18.3906 34.5016 19.3774 34.5016C19.8433 34.5016 20.2819 34.3097 20.6109 33.9806C20.9398 33.6516 21.1043 33.2129 21.1043 32.7468C21.1043 31.7871 20.3368 31.0193 19.3499 31.0193ZM20.1449 32.7742C20.1449 33.2129 19.8159 33.5419 19.3774 33.5419C19.1581 33.5419 18.9388 33.4597 18.8017 33.3226C18.6647 33.1855 18.5824 32.9661 18.5824 32.7742C18.5824 32.3355 18.9114 32.0064 19.3774 31.979C19.5966 31.979 19.7885 32.0613 19.9256 32.1984C20.0626 32.3355 20.1449 32.5548 20.1449 32.7742Z" fill="#679BD4"/>
<path d="M55.0474 58.3268C52.6823 58.3268 50.808 57.1219 49.8263 56.3633C49.5585 56.1848 49.0676 55.6939 48.2644 55.6939C47.0149 55.6939 46.2116 56.6757 46.2116 57.702C46.2116 58.5499 46.6579 59.0854 47.1488 59.4424C48.2644 60.2457 51.165 62.0753 55.0028 62.0753C61.8304 62.0753 66.2929 57.2112 66.2929 51.3653C66.2929 44.7608 60.7594 41.2354 55.806 41.2354C53.9764 41.2354 51.7898 41.7263 51.7898 41.7263L52.6823 34.14H62.9906C64.1063 34.14 64.9095 33.426 64.9095 32.2212C64.9095 31.1948 64.1063 30.3915 62.9906 30.3915H50.8973C49.6924 30.3915 48.9338 31.3733 48.7999 32.5335L47.595 43.1097C47.5504 43.5559 47.5504 43.6898 47.5504 43.7344C47.5504 44.6269 48.2644 45.7425 49.5139 45.7425C50.0048 45.7425 50.6295 45.564 51.2543 45.4302C52.3699 45.1624 53.3516 44.8054 55.5383 44.8054C58.1265 44.8054 62.0981 47.1259 62.0981 51.3207C62.0981 55.1138 59.5099 58.3268 55.0474 58.3268ZM50.4064 114.666C50.3171 114.844 50.1833 115.112 50.1833 115.424C50.1833 116.272 50.9419 117.075 51.8344 117.075C52.4591 117.075 53.0393 116.718 53.3963 116.138L71.3801 87.355C71.514 87.1319 71.6479 86.8642 71.6479 86.641C71.6479 85.7485 70.8893 84.9453 69.9968 84.9453C69.2828 84.9453 68.7026 85.3023 68.3903 85.8378L50.4064 114.666ZM62.4105 110.248C62.4105 113.996 65.4896 117.075 69.2828 117.075C73.0313 117.075 76.1104 113.996 76.1104 110.248C76.1104 106.455 73.0313 103.375 69.2828 103.375C65.4896 103.375 62.4105 106.455 62.4105 110.248ZM65.5789 110.248C65.5789 108.195 67.23 106.544 69.2828 106.544C71.2909 106.544 72.942 108.195 72.942 110.248C72.942 112.256 71.2909 113.907 69.2828 113.907C67.23 113.907 65.5789 112.256 65.5789 110.248ZM45.7654 91.7283C45.7654 95.5214 48.8445 98.5559 52.593 98.5559C56.3861 98.5559 59.4653 95.5214 59.4653 91.7283C59.4653 87.9352 56.3861 84.9007 52.593 84.9007C48.8445 84.9007 45.7654 87.9352 45.7654 91.7283ZM48.9338 91.7283C48.9338 89.6755 50.5849 88.0244 52.593 88.0244C54.6458 88.0244 56.2969 89.6755 56.2969 91.7283C56.2969 93.781 54.6458 95.4322 52.593 95.4322C50.5849 95.4322 48.9338 93.781 48.9338 91.7283Z" fill="white"/>
</g>
</g>
<defs>
<filter id="filter0_d" x="0" y="0" width="70" height="50" filterUnits="userSpaceOnUse" color-interpolation-filters="sRGB">
<feFlood flood-opacity="0" result="BackgroundImageFix"/>
<feColorMatrix in="SourceAlpha" type="matrix" values="0 0 0 0 0 0 0 0 0 0 0 0 0 0 0 0 0 0 127 0"/>
<feOffset dy="1"/>
<feGaussianBlur stdDeviation="4"/>
<feColorMatrix type="matrix" values="0 0 0 0 0 0 0 0 0 0 0 0 0 0 0 0 0 0 0.15 0"/>
<feBlend mode="normal" in2="BackgroundImageFix" result="effect1_dropShadow"/>
<feBlend mode="normal" in="SourceGraphic" in2="effect1_dropShadow" result="shape"/>
</filter>
<clipPath id="clip0">
<rect x="8" y="7" width="54" height="34" rx="5" fill="white"/>
</clipPath>
</defs>
</svg>
