<svg>

    <symbol id="transport" viewBox="0 0 40 40" fill="none" xmlns="http://www.w3.org/2000/svg">
        <path d="M15.6044 35.3658C14.3104 35.3658 13.2012 34.3122 13.2012 33.0829C13.2012 31.8536 14.3104 30.8 15.6044 30.8C16.8985 30.8 18.0077 31.8536 18.0077 33.0829C17.8228 34.4878 16.8985 35.3658 15.6044 35.3658ZM15.6044 32.2049C15.0498 32.2049 14.4952 32.7317 14.4952 33.2585C14.4952 33.7853 15.0498 34.3122 15.6044 34.3122C16.159 34.3122 16.7136 33.7853 16.7136 33.2585C16.5287 32.5561 16.159 32.2049 15.6044 32.2049Z" fill="#489ED7"/>
        <path d="M33.1669 35.3658C31.8729 35.3658 30.7637 34.3122 30.7637 33.0829C30.7637 31.8536 31.8729 30.8 33.1669 30.8C34.4609 30.8 35.5701 31.8536 35.5701 33.0829C35.5701 34.4878 34.4609 35.3658 33.1669 35.3658ZM33.1669 32.2049C32.6123 32.2049 32.0577 32.7317 32.0577 33.2585C32.0577 33.7853 32.6123 34.3122 33.1669 34.3122C33.7215 34.3122 34.2761 33.7853 34.2761 33.2585C34.2761 32.5561 33.7215 32.2049 33.1669 32.2049Z" fill="#489ED7"/>
        <path d="M24.1075 16.5756L22.8135 16.2244L26.3259 2L26.8804 2.17561C33.5354 3.40488 38.7115 9.37561 39.2661 16.4L37.9721 16.5756C37.4175 10.2537 33.1657 4.98537 27.2502 3.58049L24.1075 16.5756Z" fill="#489ED7"/>
        <path d="M33.1651 38C30.3922 38 28.1738 35.8927 28.1738 33.2586C28.1738 30.6244 30.3922 28.5171 33.1651 28.5171C35.9381 28.5171 38.1564 30.6244 38.1564 33.2586C38.1564 35.8927 35.9381 38 33.1651 38ZM33.1651 29.5707C31.1316 29.5707 29.4679 31.1512 29.4679 33.0829C29.4679 35.0146 31.1316 36.5951 33.1651 36.5951C35.1986 36.5951 36.8624 35.0146 36.8624 33.0829C36.8624 31.1512 35.1986 29.5707 33.1651 29.5707Z" fill="#489ED7"/>
        <path d="M24.2941 30.0976C16.7147 30.0976 10.4294 24.8293 9.32018 17.8049V16.9268C9.32018 14.9951 8.7656 13.5902 8.02615 12.7122C7.2867 12.0098 6.3624 11.6585 5.06836 11.4829L5.25321 10.2537C6.91697 10.4293 8.02615 10.9561 8.95046 11.8341C9.87478 12.8878 10.4294 14.2927 10.6142 16.2244H39.4528V16.9268C38.7134 24.3024 32.0583 30.0976 24.2941 30.0976ZM10.6142 17.4537C11.5386 23.9512 17.2693 28.6927 24.2941 28.6927C31.134 28.6927 37.0496 23.7756 37.9739 17.4537H10.6142Z" fill="#489ED7"/>
        <path d="M15.6045 38C12.8316 38 10.6133 35.8927 10.6133 33.2586C10.6133 30.6244 12.8316 28.5171 15.6045 28.5171C18.3774 28.5171 20.5958 30.6244 20.5958 33.2586C20.5958 35.8927 18.3774 38 15.6045 38ZM15.6045 29.5707C13.571 29.5707 11.9073 31.1512 11.9073 33.0829C11.9073 35.0146 13.571 36.5951 15.6045 36.5951C17.638 36.5951 19.3017 35.0146 19.3017 33.0829C19.3017 31.1512 17.638 29.5707 15.6045 29.5707Z" fill="#489ED7"/>
        <path d="M3.40323 12.8878C2.10919 12.8878 1 11.8342 1 10.6049C1 9.37562 2.10919 8.32196 3.40323 8.32196C4.69728 8.32196 5.80647 9.37562 5.80647 10.6049C5.80647 12.0098 4.69728 12.8878 3.40323 12.8878ZM3.40323 9.72684C2.84864 9.72684 2.29407 10.2537 2.29407 10.7805C2.29407 11.3073 2.84864 11.8342 3.40323 11.8342C3.95782 11.8342 4.51243 11.3073 4.51243 10.7805C4.51243 10.0781 3.95782 9.72684 3.40323 9.72684Z" fill="#489ED7"/>
    </symbol>

    <symbol id="kids-room" viewBox="0 0 40 40" fill="none" xmlns="http://www.w3.org/2000/svg">
        <path d="M4 33.2098C4 34.2927 4.6688 35.0147 5.50479 35.3757V38.8049C5.50479 39.1659 5.83919 39.5269 6.17359 39.5269C6.50798 39.5269 6.84238 39.1659 6.84238 38.8049V35.3757C7.51118 35.1952 8.01276 34.6537 8.17996 33.9318H31.2534C31.4206 34.6537 31.9222 35.1952 32.591 35.3757V38.8049C32.591 39.1659 32.9253 39.5269 33.2597 39.5269C33.5941 39.5269 33.9285 39.1659 33.9285 38.8049V35.3757C34.7645 35.0147 35.4333 34.2927 35.4333 33.2098C35.4333 32.3074 34.7645 31.4049 33.9285 31.0439V24.5464C34.7645 24.1854 35.4333 23.4634 35.4333 22.3805C35.4333 21.1171 34.4301 20.2147 33.4269 20.2147C32.591 20.2147 31.755 20.9366 31.4206 21.8391H8.01277C7.84557 21.2976 7.51117 20.7561 7.00958 20.5756C7.00958 20.5756 6.84238 20.5756 6.84238 20.3951C7.00958 15.8829 8.84876 11.5512 11.8583 8.30245C14.3663 5.59513 17.5431 3.79024 21.0543 3.06829C21.0543 3.60976 21.3887 4.15122 21.7231 4.69269C22.0574 5.05366 22.3918 5.23415 22.8934 5.41464V7.40001C22.2246 7.94147 21.723 8.48294 21.3886 9.20489C20.7199 10.4683 20.5527 11.9122 21.0543 13.1756C21.7231 15.522 23.5622 16.9659 25.7358 16.9659C26.2374 16.9659 26.739 16.9659 27.0734 16.7854C27.7422 16.6049 28.2438 16.2439 28.7454 15.8829C28.9126 15.7025 29.0798 15.3415 28.9126 15.161C28.9126 14.9805 28.5782 14.6195 28.411 14.6195C26.9062 14.439 25.7358 13.3561 25.2342 11.7317C24.7326 10.1073 25.2342 8.48293 26.5718 7.58049C26.739 7.4 26.9062 7.03903 26.739 6.85854C26.739 6.67806 26.4046 6.31708 26.2374 6.31708C25.5686 6.31708 24.8998 6.31708 24.3982 6.49757H24.231V5.23415C25.2342 4.87317 26.0702 3.97074 26.0702 2.70732C26.0702 1.26342 24.8998 0 23.5622 0C22.559 0 21.723 0.721948 21.3886 1.62439C17.5431 2.34634 14.0319 4.15123 11.1895 7.21952C8.01277 10.6488 6.00639 15.3415 5.83919 20.2147C5.0032 20.5756 4.3344 21.2976 4.3344 22.3805C4.3344 23.283 5.0032 24.1854 5.83919 24.5464V31.0439C4.6688 31.2244 4 32.1269 4 33.2098ZM24.3982 7.94147C23.7294 9.20489 23.395 10.8293 23.8966 12.2732C24.231 13.7171 25.2342 14.9805 26.5718 15.522C26.2374 15.522 25.903 15.7025 25.5686 15.7025C23.8966 15.7025 22.559 14.439 22.0574 12.8146C21.723 11.7317 21.8902 10.6488 22.3918 9.74635C22.7262 8.84391 23.395 8.30245 24.3982 7.94147ZM23.395 1.4439C24.0638 1.4439 24.5654 1.98537 24.5654 2.70732C24.5654 3.42927 24.0638 3.97073 23.395 3.97073C22.7262 3.97073 22.2246 3.42927 22.2246 2.70732C22.0574 2.16586 22.7262 1.4439 23.395 1.4439ZM6.00639 33.9318C5.50479 33.9318 5.1704 33.5708 5.1704 33.0293C5.1704 32.4879 5.50479 32.1269 6.00639 32.1269C6.50799 32.1269 6.84238 32.4879 6.84238 33.0293C6.84238 33.5708 6.50799 33.9318 6.00639 33.9318ZM33.7613 33.2098C33.7613 33.7513 33.4269 34.1122 32.9253 34.1122C32.4238 34.1122 32.0894 33.7513 32.0894 33.2098C32.0894 32.6683 32.4238 32.3074 32.9253 32.3074C33.4269 32.3074 33.7613 32.6683 33.7613 33.2098ZM33.0925 21.6586C33.5941 21.6586 33.9285 22.0195 33.9285 22.561C33.9285 23.1025 33.5941 23.4634 33.0925 23.4634C32.5909 23.4634 32.2566 23.1025 32.2566 22.561C32.2566 22.0195 32.5909 21.6586 33.0925 21.6586ZM31.0862 23.1025C31.2534 23.8244 31.755 24.3659 32.4237 24.5464V31.0439C31.755 31.2244 31.2534 31.7659 31.0862 32.4879H29.4142V23.1025H31.0862ZM28.0766 23.1025V32.4879H24.8998V23.1025H28.0766ZM23.5622 23.1025V32.4879H20.3855V23.1025H23.5622ZM19.0479 23.1025V32.4879H15.8711V23.1025H19.0479ZM14.5335 23.1025V32.4879H11.3567V23.1025H14.5335ZM8.01277 23.1025H10.0192V32.4879H8.01277C7.84557 31.7659 7.34398 31.2244 6.67519 31.0439V24.5464C7.34398 24.3659 7.84557 23.8244 8.01277 23.1025ZM5.33759 22.3805C5.33759 21.8391 5.67199 21.4781 6.17359 21.4781C6.67518 21.4781 7.00958 21.8391 7.00958 22.3805C7.00958 22.922 6.67518 23.283 6.17359 23.283C5.67199 23.283 5.33759 22.922 5.33759 22.3805Z" fill="#489ED7"/>
    </symbol>

    <symbol id="diapers" viewBox="0 0 40 40" fill="none" xmlns="http://www.w3.org/2000/svg">
        <path d="M25.8981 6L35.1695 6C38.1991 6 38.9855 8.50196 39 9.75294M25.8981 6L14.1019 6M25.8981 6V9.75294M25.8981 35C26.3043 32.0858 29.4935 25.285 39 21.3956V9.75294M25.8981 35H14.1019M25.8981 35V9.75294M39 9.75294H25.8981M14.1019 6L4.83047 6C1.80092 6 1.01451 8.50196 1 9.75294M14.1019 6V9.75294M14.1019 35C13.6957 32.0858 10.5065 25.285 1 21.3956V9.75294M14.1019 35L14.1019 9.75294M1 9.75294L14.1019 9.75294" stroke="#489ED7" stroke-width="1.5"/>
    </symbol>

    <symbol id="food" viewBox="0 0 40 40" fill="none" xmlns="http://www.w3.org/2000/svg">
        <path d="M24.5688 38.3659C24.5688 38.3659 24.4128 38.3659 24.5688 38.3659C23.633 38.3659 22.6973 38.1976 21.9174 38.0292C20.9817 37.8608 20.2018 37.6925 19.422 37.6925C18.6422 37.6925 17.7064 37.8608 16.9266 37.8608C15.9908 38.0292 15.211 38.0292 14.2752 38.0292C13.3394 38.0292 12.5596 37.6925 11.9358 37.019C11.3119 36.3456 11 35.5038 11 34.4936L11.156 19.3412C11.156 18.331 11.4679 17.4892 12.0917 16.8157C12.7156 16.1423 13.4954 15.8056 14.4312 15.8056L24.7248 15.9739C25.6606 15.9739 26.4404 16.3107 27.0642 16.9841C27.6881 17.6575 28 18.4993 28 19.5095L27.844 34.662C27.844 35.6722 27.5321 36.514 26.9083 37.1874C26.5963 37.5241 26.2844 37.6925 25.8165 37.8608C25.3486 38.3659 24.8807 38.3659 24.5688 38.3659ZM19.1101 36.514C19.2661 36.514 19.2661 36.514 19.1101 36.514C20.2018 36.514 20.9817 36.6823 21.9174 36.8507C22.8532 37.019 23.633 37.1874 24.4128 37.1874C24.7248 37.1874 25.0367 37.1874 25.1927 37.019C25.5046 36.8507 25.6606 36.6823 25.8165 36.514C26.2844 36.0089 26.4404 35.5038 26.4404 34.9987L26.5963 19.8462C26.5963 19.1728 26.4404 18.6677 25.9725 18.331C25.5046 17.8259 25.0367 17.6575 24.5688 17.6575L14.4312 17.3208C13.9633 17.3208 13.3394 17.4892 13.0275 17.9943C12.5596 18.4993 12.4037 19.0044 12.4037 19.5095L12.2477 34.8304C12.2477 35.5038 12.4037 36.0089 12.8716 36.3456C13.3394 36.8507 13.8073 37.019 14.2752 37.019C15.055 37.019 15.9908 36.8507 16.7706 36.8507C17.3945 36.6823 18.3303 36.514 19.1101 36.514Z" fill="#489ED7"/>
        <path d="M25.8165 16.9841L24.7248 16.4791C24.7248 16.3107 24.8807 16.1423 24.8807 16.1423V14.2904C24.8807 13.9536 24.7248 13.7853 24.5688 13.6169C24.4129 13.4486 24.1009 13.2802 23.945 13.2802C20.6698 13.2802 18.7982 13.2802 17.2386 13.1118H15.3671C14.8992 13.1118 14.4313 13.6169 14.4313 14.122V15.974C14.4313 16.1423 14.4313 16.3107 14.4313 16.3107L13.3396 16.8158C13.1836 16.4791 13.1836 16.1423 13.1836 15.8056V13.9536C13.1836 12.6068 14.1194 11.5966 15.3671 11.5966H17.2386C18.7982 11.5966 20.6698 11.5966 23.945 11.7649C24.5688 11.7649 25.0367 12.1017 25.5046 12.4384C25.9725 12.9435 26.1284 13.4486 26.1284 14.122V15.974C25.9725 16.3107 25.9725 16.6474 25.8165 16.9841Z" fill="#489ED7"/>
        <path d="M27.2193 20.8564H22.2285V22.035H27.2193V20.8564Z" fill="#489ED7"/>
        <path d="M22.8534 12.4384L21.9177 11.7649L22.0736 11.5966C22.3856 11.2598 22.6975 10.9231 22.6975 10.0813C22.6975 9.23952 22.5415 9.07116 22.0736 8.56607C21.6057 7.89263 20.9819 7.21919 20.9819 5.0305C20.9819 4.86213 20.8259 4.35705 20.67 4.02033C20.514 3.68361 20.2021 3.34689 19.7342 3.34689C19.2663 3.34689 18.9544 3.68361 18.7984 4.02033C18.4865 4.35705 18.3305 4.86213 18.3305 5.0305C18.3305 7.05083 17.7066 7.72427 17.2388 8.39771L17.0828 8.56607C16.7709 8.9028 16.4589 9.23952 16.4589 10.0813C16.4589 10.9231 16.7709 11.4282 17.0828 11.5966L17.2388 11.7649L16.303 12.6067C15.991 12.1017 15.3672 11.4282 15.3672 10.0813C15.3672 8.73444 15.8351 8.22935 16.303 7.72427L16.4589 7.55591C16.7709 7.21919 17.2388 6.7141 17.2388 5.0305C17.2388 4.52541 17.5507 3.85197 17.8626 3.17853C18.3305 2.50508 18.9544 2 19.7342 2C20.514 2 21.1378 2.50508 21.6057 3.17853C21.9177 3.68361 22.2296 4.52541 22.2296 5.0305C22.2296 6.7141 22.5415 7.21919 23.0094 7.55591C23.4773 8.06099 23.9452 8.56607 23.9452 9.91296C23.7892 11.4282 23.1654 12.1017 22.8534 12.4384Z" fill="#489ED7"/>
        <path d="M27.2193 24.7287H22.2285V25.9073H27.2193V24.7287Z" fill="#489ED7"/>
        <path d="M27.2193 28.7694H22.2285V29.9479H27.2193V28.7694Z" fill="#489ED7"/>
        <path d="M27.2193 32.6417H22.2285V33.8202H27.2193V32.6417Z" fill="#489ED7"/>
    </symbol>

    <symbol id="creation" viewBox="0 0 40 40" fill="none" xmlns="http://www.w3.org/2000/svg">
        <path d="M21.7362 5.73642C21.3741 5.73642 21.0119 6.12734 21.0119 6.51826C21.0119 6.90917 21.3741 7.30009 21.7362 7.30009C22.8226 7.30009 23.7279 6.3228 23.7279 5.15004C23.7279 3.97729 22.8226 3 21.7362 3H15.58C14.6746 3 13.7693 3.78183 13.5882 4.75913L11.9586 17.4639C11.7776 17.4639 11.5965 17.4639 11.2344 17.4639C6.16453 17.4639 2 21.9595 2 27.4323C2 32.9052 6.16453 37.4007 11.2344 37.4007C16.3042 37.4007 20.4688 32.9052 20.4688 27.4323C20.4688 22.5459 17.3906 18.6367 13.045 17.6594L13.5882 13.7502C16.3042 13.5548 20.1066 14.1411 23.5469 15.5094C27.5303 17.073 30.6085 19.4185 32.4191 21.9595C32.9623 22.7413 33.3244 23.7186 33.5055 24.5005C33.3244 24.5005 33.1434 24.5005 32.9623 24.5005C29.7031 24.5005 26.9871 27.4323 26.9871 30.9506C26.9871 34.4688 29.7031 37.4007 32.9623 37.4007C36.2215 37.4007 38.9375 34.4688 38.9375 30.9506C38.9375 28.0187 37.1268 25.6732 34.773 24.8914C34.5919 23.7186 34.2298 22.5459 33.3245 21.1777L33.1434 20.9822C34.4108 20.3958 35.4972 19.4185 35.8594 18.0503C36.0404 17.2685 36.2215 16.4866 36.2215 15.7048C36.9458 15.1184 37.489 14.5321 37.489 13.7502C37.489 11.6002 33.6866 10.232 30.2463 10.232C26.625 10.232 23.0037 11.4047 23.0037 13.7502C23.0037 13.7502 23.0037 13.7502 23.0037 13.9457C19.7445 12.7729 16.4853 12.1866 13.7693 12.382L14.6746 4.95459C14.6746 4.56367 15.0368 4.36821 15.3989 4.36821H21.5552C21.9173 4.36821 22.2794 4.75913 22.2794 5.15004C22.4605 5.3455 22.0983 5.73642 21.7362 5.73642ZM34.2298 29.5824C34.5919 29.9733 34.773 30.3642 34.773 30.9506C34.773 31.9279 34.0487 32.9052 32.9623 32.9052C32.057 32.9052 31.1517 32.1233 31.1517 30.9506C31.1517 29.9733 31.8759 28.996 32.7812 28.996C32.6002 29.5824 32.4191 29.9733 32.2381 30.5597C32.057 30.9506 32.2381 31.3415 32.6002 31.537H32.7812C32.9623 31.537 33.3245 31.3415 33.3245 31.146C33.8677 30.5597 34.0487 29.9733 34.2298 29.5824ZM33.3245 27.6278C33.1434 27.6278 33.1434 27.6278 32.9623 27.6278C31.3327 27.6278 29.8842 29.1915 29.8842 30.9506C29.8842 32.7097 31.3327 34.2734 32.9623 34.2734C34.5919 34.2734 36.0404 32.7097 36.0404 30.9506C36.0404 29.7778 35.4972 28.6051 34.5919 28.2142C34.773 27.6278 34.773 27.0414 34.954 26.455C36.5836 27.2369 37.8511 28.996 37.8511 31.146C37.8511 33.8825 35.6783 36.228 33.1434 36.228C30.6085 36.228 28.4357 33.8825 28.4357 31.146C28.4357 28.4096 30.6085 26.0641 33.1434 26.0641C33.3244 26.0641 33.5055 26.0641 33.6866 26.0641C33.5055 26.455 33.5055 27.0414 33.3245 27.6278ZM34.954 17.4639C34.773 18.2458 34.0487 19.2231 32.6002 19.8094H32.4191C31.5138 18.8322 30.6085 17.8549 29.341 17.073C29.7031 17.073 30.0653 17.073 30.2463 17.073C31.5138 17.073 32.6002 16.8776 33.6866 16.6821C34.0487 16.4866 34.5919 16.4866 34.954 16.2912C35.1351 16.6821 35.1351 17.073 34.954 17.4639ZM30.4274 11.6002C34.0487 11.6002 36.4026 12.7729 36.4026 13.5548C36.4026 14.3366 34.0487 15.7048 30.4274 15.7048C26.8061 15.7048 24.4522 14.5321 24.4522 13.7502C24.4522 12.7729 26.8061 11.6002 30.4274 11.6002ZM12.5018 22.3504C14.4936 22.9368 15.9421 24.8914 15.9421 27.4323C15.9421 30.3642 13.7693 32.7097 11.0533 32.7097C8.33732 32.7097 6.16453 30.3642 6.16453 27.4323C6.16453 24.5005 8.33732 22.1549 11.0533 22.1549L10.329 27.2369C10.329 27.6278 10.5101 28.0187 10.8722 28.0187C10.8722 28.0187 10.8722 28.0187 11.0533 28.0187C11.4154 28.0187 11.5965 27.8232 11.7776 27.4323L12.5018 22.3504ZM19.2013 27.2369C19.2013 31.9279 15.58 35.8371 11.2344 35.8371C6.88879 35.8371 3.26746 31.9279 3.26746 27.2369C3.26746 22.5459 6.88879 18.6367 11.2344 18.6367C11.4154 18.6367 11.5965 18.6367 11.7776 18.6367L11.5965 20.5913H11.4154C7.97518 20.5913 5.2592 23.5232 5.2592 27.2369C5.2592 30.9506 7.97518 33.8825 11.4154 33.8825C14.8557 33.8825 17.5717 30.9506 17.5717 27.2369C17.5717 24.1095 15.58 21.5686 12.864 20.7867L13.045 18.8322C16.6664 19.8094 19.2013 23.1322 19.2013 27.2369Z" fill="#489ED7"/>
    </symbol>

    <symbol id="clothing" viewBox="0 0 40 40" fill="none" xmlns="http://www.w3.org/2000/svg">
        <path d="M38 6.29335L26.7119 3H25.9492V3.494C25.9492 7.11668 23.3559 9.91603 20 9.91603C16.6441 9.91603 14.0508 7.11668 14.0508 3.494V3H13.4407L2 6.29335L4.13559 15.0207L8.40678 13.7034V29.1821H8.86441C12.9831 29.3468 16.1864 32.8048 16.1864 37.2508V37.9095H23.3559V37.4155C23.3559 32.9695 26.7119 29.3468 30.8305 29.3468H31.4407V13.7034L35.7119 15.0207L38 6.29335ZM30.5254 12.386V28.1941H30.2203C26.1017 28.5234 22.7458 31.9815 22.2881 36.4275V36.7568H17.1017V36.4275C16.7966 32.1461 13.5932 28.6881 9.62712 28.1941H9.32203V12.386L4.74576 13.7034L3.0678 7.11668L12.9831 4.31734V4.64667C13.4407 8.26936 16.339 11.0687 19.8475 11.0687C23.3559 11.0687 26.2542 8.26936 26.7119 4.64667V4.31734L36.6271 7.11668L34.9492 13.7034L30.5254 12.386Z" fill="#489ED7"/>
        <path d="M19.9992 14.362C19.5416 14.362 19.084 14.856 19.084 15.35C19.084 15.844 19.5416 16.338 19.9992 16.338C20.4569 16.338 20.9145 15.844 20.9145 15.35C20.9145 14.6914 20.4569 14.362 19.9992 14.362Z" fill="#489ED7"/>
        <path d="M19.9992 20.4548C19.5416 20.4548 19.084 20.9488 19.084 21.4428C19.084 21.9368 19.5416 22.4308 19.9992 22.4308C20.4569 22.4308 20.9145 21.9368 20.9145 21.4428C20.9145 20.7841 20.4569 20.4548 19.9992 20.4548Z" fill="#489ED7"/>
        <path d="M19.9992 26.3828C19.5416 26.3828 19.084 26.8768 19.084 27.3708C19.084 27.8648 19.5416 28.3588 19.9992 28.3588C20.4569 28.3588 20.9145 27.8648 20.9145 27.3708C20.9145 26.8768 20.4569 26.3828 19.9992 26.3828Z" fill="#489ED7"/>
    </symbol>

    <symbol id="book" viewBox="0 0 40 40" fill="none" xmlns="http://www.w3.org/2000/svg">
        <path d="M32 9.27111V35C32 36.6569 30.6569 38 29 38H10.5C8.84315 38 7.5 36.6569 7.5 35V6.30707" stroke="#489ED7" stroke-width="1.3"/>
        <path d="M7.65 6.5C7.65 4.92599 8.92599 3.65 10.5 3.65H32.5C34.074 3.65 35.35 4.92599 35.35 6.5C35.35 8.07401 34.074 9.35 32.5 9.35H10.5C8.92599 9.35 7.65 8.07401 7.65 6.5Z" stroke="#489ED7" stroke-width="1.3"/>
        <path d="M32.5 0H39.0008V10H32.5V0Z" fill="white"/>
        <rect x="10.25" y="6.25" width="21.5" height="0.5" stroke="#489ED7" stroke-width="0.5"/>
    </symbol>

    <symbol id="toys" viewBox="0 0 40 40" fill="none" xmlns="http://www.w3.org/2000/svg">
        <path d="M19.8379 23.9337C13.9614 23.9337 9.11333 19.1761 9.11333 13.4669C9.11333 12.9911 9.11334 12.3567 9.26025 11.881C7.3504 11.7224 5.73438 9.81932 5.73438 7.75766C5.73438 5.37883 7.49731 3.63436 9.55407 3.63436C10.8763 3.63436 12.1985 4.4273 12.7861 5.53742C14.696 3.95153 17.1935 3 19.691 3C22.1885 3 24.6859 3.79294 26.5958 5.53742C27.3304 4.26871 28.5057 3.63436 29.8279 3.63436C32.0315 3.63436 33.6476 5.53742 33.6476 7.75766C33.6476 9.97791 32.0315 11.7224 30.1217 11.881C30.2686 12.3567 30.2686 12.9911 30.2686 13.4669C30.5624 19.3346 25.7143 23.9337 19.8379 23.9337ZM10.7294 10.6123L10.5824 11.4052C10.2886 12.0396 10.2886 12.8325 10.2886 13.4669C10.2886 18.5417 14.5491 22.8236 19.8379 22.8236C25.1267 22.8236 29.3871 18.5417 29.3871 13.4669C29.3871 12.8325 29.2402 12.0396 29.0933 11.4052L28.9464 10.6123H29.6809C29.8278 10.6123 29.8279 10.6123 29.9748 10.6123C31.4439 10.6123 32.7661 9.18496 32.7661 7.59907C32.7661 6.01319 31.4439 4.58589 29.9748 4.58589C28.7995 4.58589 27.7711 5.37883 27.3304 6.48895L27.0365 7.2819L26.4489 6.64754C24.686 4.90307 22.3354 3.95153 19.691 3.95153C17.1935 3.95153 14.8429 4.90307 12.933 6.64754L12.3454 7.2819L12.0516 6.48895C11.6108 5.37883 10.5825 4.58589 9.40716 4.58589C7.93805 4.58589 6.61584 6.01319 6.61584 7.59907C6.61584 9.34355 8.08495 10.7708 9.70098 10.6123H10.7294Z" fill="#489ED7"/>
        <path d="M19.8383 21.5549C16.6063 21.5549 13.9619 19.4933 13.9619 16.9558C13.9619 14.4184 16.6063 12.3568 19.8383 12.3568C23.0703 12.3568 25.7147 14.4184 25.7147 16.9558C25.7147 19.4933 23.0703 21.5549 19.8383 21.5549ZM19.8383 13.6255C17.1939 13.6255 15.1372 15.2114 15.1372 16.9558C15.1372 18.7003 17.1939 20.2862 19.8383 20.2862C22.4827 20.2862 24.5394 18.7003 24.5394 16.9558C24.5394 15.2114 22.4827 13.6255 19.8383 13.6255Z" fill="#489ED7"/>
        <path d="M16.312 14.4184C15.7244 14.4184 15.1367 13.784 15.1367 13.1497C15.1367 12.5153 15.7244 11.881 16.312 11.881C16.8997 11.881 17.4873 12.5153 17.4873 13.1497C17.4873 13.784 17.0466 14.4184 16.312 14.4184ZM16.312 12.9911C16.312 13.1497 16.4589 13.1497 16.312 12.9911C16.4589 12.9911 16.312 12.9911 16.312 12.9911Z" fill="#489ED7"/>
        <path d="M23.3637 14.4184C22.7761 14.4184 22.1885 13.784 22.1885 13.1497C22.1885 12.5153 22.7761 11.881 23.3637 11.881C23.9513 11.881 24.5389 12.5153 24.5389 13.1497C24.5389 13.784 23.9513 14.4184 23.3637 14.4184ZM23.3637 12.9911C23.3637 12.9911 23.2168 12.9911 23.3637 12.9911C23.2168 13.1497 23.3637 13.1497 23.3637 12.9911Z" fill="#489ED7"/>
        <path d="M20.2785 15.8457H19.25V20.762H20.2785V15.8457Z" fill="#489ED7"/>
        <path d="M19.8384 17.273C18.81 17.273 17.6348 16.9558 17.6348 16.1629C17.6348 15.3699 18.81 15.0527 19.8384 15.0527C20.8667 15.0527 22.042 15.3699 22.042 16.1629C22.042 16.9558 20.8667 17.273 19.8384 17.273Z" fill="#489ED7"/>
        <path d="M27.4772 37.7309C26.3019 37.7309 25.1266 37.4138 24.3921 36.6208C23.6575 35.8279 23.2168 34.7177 23.2168 33.6076C23.2168 31.8631 24.0983 30.1187 25.4205 28.85C27.9179 26.4711 31.4438 25.9954 33.3536 27.8984C34.0882 28.6914 34.5289 29.8015 34.5289 30.9116C34.5289 32.6561 33.6474 34.4006 32.3253 35.6693C31.0031 37.0966 29.2401 37.7309 27.4772 37.7309ZM30.4154 27.7398C29.0932 27.7398 27.4772 28.3742 26.3019 29.4843C25.1266 30.5944 24.3921 32.0217 24.3921 33.449C24.3921 34.4006 24.6859 35.0349 25.2735 35.6693C26.7426 37.0966 29.6809 36.7794 31.7376 34.7177C32.9129 33.6076 33.6475 32.1803 33.6475 30.753C33.6475 29.8015 33.3536 29.1671 32.766 28.5328C32.1783 28.057 31.2969 27.7398 30.4154 27.7398Z" fill="#489ED7"/>
        <path d="M12.1988 37.7309C10.5827 37.7309 8.81977 36.938 7.35063 35.6693C5.88148 34.242 5.14691 32.4975 5 30.9116C5 29.6429 5.44074 28.6914 6.17531 27.8984C8.0852 25.9954 11.6111 26.4711 14.1087 28.85C15.5778 30.2773 16.3124 32.0217 16.3124 33.6076C16.3124 34.8763 15.8717 35.8279 15.1371 36.6208C14.4025 37.4138 13.3741 37.7309 12.1988 37.7309ZM9.26052 27.7398C8.37903 27.7398 7.49754 28.057 6.90988 28.6914C6.32222 29.1671 6.0284 29.9601 6.0284 30.9116C6.0284 32.1803 6.76297 33.7662 7.93829 34.8763C9.99509 36.938 12.9334 37.2552 14.4025 35.8279C14.9902 35.3521 15.284 34.5592 15.284 33.6076C15.284 32.3389 14.5494 30.753 13.3741 29.6429C12.1988 28.3742 10.7297 27.7398 9.26052 27.7398Z" fill="#489ED7"/>
        <path d="M26.5964 28.2156C26.5964 27.8984 26.1557 26.4711 26.1557 26.1539C26.0087 25.5196 25.7149 25.0438 25.568 24.4095C25.2742 23.9337 24.9804 23.2993 24.6865 22.8236L25.568 22.1892C25.8618 22.665 26.1557 23.2993 26.4495 23.9337C26.7433 24.568 26.8902 25.2024 27.184 25.8368C27.331 26.1539 27.6248 27.7398 27.7717 27.8984L26.5964 28.2156Z" fill="#489ED7"/>
        <path d="M19.8382 37.7309C18.0753 37.7309 16.0185 37.5724 14.6963 36.938L15.2839 35.8279C16.4592 36.4622 18.9567 36.4622 19.8382 36.4622C20.7197 36.4622 23.3641 36.4622 24.3925 35.8279L24.9801 36.938C23.8048 37.7309 21.6011 37.7309 19.8382 37.7309Z" fill="#489ED7"/>
        <path d="M13.0801 28.2156L12.0518 27.8984C12.0518 27.5812 12.4925 26.1539 12.6394 25.8368C12.7863 25.2024 13.0801 24.568 13.374 23.9337C13.6678 23.2993 13.9616 22.8236 14.2554 22.1892L15.1369 22.8236C14.8431 23.2993 14.5492 23.7751 14.2554 24.4095C13.9616 25.0438 13.8147 25.5196 13.6678 26.1539C13.5209 26.4711 13.2271 27.8984 13.0801 28.2156Z" fill="#489ED7"/>
        <path d="M9.11368 27.2641C8.67294 26.6297 8.52603 25.6782 8.81986 24.4095C9.11369 23.2994 9.70134 22.1893 10.4359 21.0791C10.8767 20.6034 11.3174 20.1276 11.7581 19.8104L12.4927 20.762C12.052 21.0791 11.7581 21.5549 11.4643 21.8721C10.7297 22.8236 10.289 23.7751 9.99518 24.7267C9.84826 25.5196 9.84826 26.154 10.1421 26.4712L9.11368 27.2641Z" fill="#489ED7"/>
        <path d="M30.5621 27.2641L29.6807 26.4712C29.9745 26.154 29.9745 25.5196 29.8276 24.7267C29.5338 23.7751 29.093 22.8236 28.3585 21.8721C28.0646 21.3963 27.6239 21.0791 27.3301 20.762L28.0646 19.8104C28.5054 20.1276 28.9461 20.6034 29.3868 21.0791C30.1214 22.0307 30.709 23.2994 31.0029 24.4095C31.2967 25.6782 31.1498 26.6297 30.5621 27.2641Z" fill="#489ED7"/>
    </symbol>

    <symbol id="chancellery" viewBox="0 0 40 40" fill="none" xmlns="http://www.w3.org/2000/svg">
        <path d="M12.0688 39.4713C9.34765 39.4713 7.13672 37.0847 7.13672 34.1473V7.89426H16.8308V34.3309C16.8308 37.0847 14.6198 39.4713 12.0688 39.4713ZM8.32722 9.17937V34.1473C8.32722 36.3503 10.0279 38.0026 11.8987 38.0026C13.9396 38.0026 15.4702 36.1667 15.4702 34.1473V9.17937H8.32722Z" fill="#489ED7"/>
        <path d="M16.3091 31.9442H7.80566V33.2293H16.3091V31.9442Z" fill="#489ED7"/>
        <path d="M15.4608 9.17846H8.31802C7.80782 9.17846 7.29762 8.81129 7.12755 8.44411C6.95748 8.07694 6.95748 7.52617 7.12755 6.97541L10.699 0.733436C11.2092 -0.184501 12.5697 -0.184501 13.0799 0.733436L16.6513 6.97541C16.8214 7.34258 16.8214 7.89335 16.6513 8.44411C16.4812 8.99487 15.971 9.17846 15.4608 9.17846ZM11.8894 1.46778L8.31802 7.70976H15.4608L11.8894 1.46778Z" fill="#489ED7"/>
        <path d="M12.5712 8.62863H11.3809V32.1278H12.5712V8.62863Z" fill="#489ED7"/>
        <path d="M31.6198 31.7606H21.9258V5.32404C21.9258 2.38664 24.1367 0 26.8578 0C29.579 0 31.7899 2.38664 31.7899 5.32404V31.7606H31.6198ZM23.1163 30.4755H30.2593V5.32404C30.2593 3.12099 28.5586 1.4687 26.6878 1.4687C24.6469 1.4687 23.1163 3.30458 23.1163 5.32404V30.4755Z" fill="#489ED7"/>
        <path d="M31.107 12.1168H22.6035V13.4019H31.107V12.1168Z" fill="#489ED7"/>
        <path d="M26.8573 39.4713C26.3471 39.4713 26.007 39.2878 25.6668 38.737L22.0953 32.495C21.9253 32.1278 21.9253 31.5771 22.0953 31.0263C22.2654 30.6591 22.7756 30.292 23.2858 30.292H30.4288C30.939 30.292 31.4492 30.6591 31.6193 31.0263C31.7894 31.3935 31.7894 31.9443 31.6193 32.495L28.0478 38.737C27.7077 39.2878 27.1975 39.4713 26.8573 39.4713ZM23.2858 31.7607L26.6872 38.1862L27.3675 38.5534L26.8573 38.1862L30.4288 31.9443L23.2858 31.7607Z" fill="#489ED7"/>
        <path d="M33.6571 18.7259H32.4667V4.03891C32.4667 2.75379 31.4463 1.65227 30.2558 1.65227H26.8545V0.367157H30.2558C32.2966 0.367157 33.8272 2.01944 33.8272 4.22249V18.7259H33.6571Z" fill="#489ED7"/>
    </symbol>
    
    <symbol id="new-yaer" viewBox="0 0 40 40" fill="none" xmlns="http://www.w3.org/2000/svg">
        <path d="M34.3349 28.6805H4.1416V4H19.8491V10.9708C19.8491 10.9708 19.5001 14.7388 21.4199 17.188C22.467 18.6952 24.2123 19.4488 26.3066 19.6372C29.4481 19.6372 31.717 20.5792 32.9387 22.2748C34.8585 24.7241 34.3349 27.9269 34.3349 28.1153V28.6805ZM5.18877 27.5501H33.4623C33.4623 26.6081 33.4623 24.7241 32.2406 23.2169C31.0189 21.7096 29.0991 20.956 26.3066 20.956C23.8633 20.7676 21.9434 19.8256 20.5472 18.13C18.2784 15.304 18.6274 11.3476 18.6274 11.1592V5.3188H5.18877V27.5501Z" fill="#489ED7"/>
        <path d="M8.85403 28.1153H7.80664V35.8397H8.85403V28.1153Z" fill="#489ED7"/>
        <path d="M30.4953 28.1153H29.4482V35.8397H30.4953V28.1153Z" fill="#489ED7"/>
        <path d="M33.4623 36.4049H1V35.2745H33.4623C33.6368 35.2745 36.9528 35.0861 36.9528 28.1153H38C38 36.4049 33.6368 36.4049 33.4623 36.4049Z" fill="#489ED7"/>
        <path d="M19.1513 11.3476H4.83984V12.478H19.1513V11.3476Z" fill="#489ED7"/>
        <path d="M21.0242 17.6307L18.958 20.1853L19.7469 20.9288L21.8131 18.3742L21.0242 17.6307Z" fill="#489ED7"/>
        <path d="M26.8292 20.2025H25.7822V23.2169H26.8292V20.2025Z" fill="#489ED7"/>
    </symbol>

    
    <symbol id="sport" viewBox="0 0 40 40" fill="none" xmlns="http://www.w3.org/2000/svg">
        <path d="M8.07851 29.4651C6.12322 29.4651 4.46875 31.2511 4.46875 33.3618C4.46875 35.6349 6.12322 37.2585 8.07851 37.2585C10.1842 37.2585 11.6883 35.4725 11.6883 33.3618C11.6883 31.2511 10.0338 29.4651 8.07851 29.4651ZM8.07851 36.122C6.72485 36.122 5.5216 34.8231 5.5216 33.3618C5.5216 31.9006 6.72485 30.6017 8.07851 30.6017C9.43218 30.6017 10.6354 31.9006 10.6354 33.3618C10.6354 34.9855 9.43218 36.122 8.07851 36.122Z" fill="#489ED7"/>
        <path d="M8.06878 37.4209C5.96307 37.4209 4.30859 35.6349 4.30859 33.3618C4.30859 31.0888 5.96307 29.3028 8.06878 29.3028C10.1745 29.3028 11.829 31.0888 11.829 33.3618C11.6786 35.6349 10.0241 37.4209 8.06878 37.4209ZM8.06878 29.4651C6.11348 29.4651 4.45901 31.2511 4.45901 33.3618C4.45901 35.4725 6.11348 37.2585 8.06878 37.2585C10.0241 37.2585 11.6786 35.4725 11.6786 33.3618C11.6786 31.2511 10.0241 29.4651 8.06878 29.4651ZM8.06878 36.2844C6.5647 36.2844 5.51186 34.9855 5.51186 33.5242C5.51186 31.9006 6.71511 30.764 8.06878 30.764C9.57285 30.764 10.6257 32.0629 10.6257 33.5242C10.6257 34.9855 9.42244 36.2844 8.06878 36.2844ZM8.06878 30.764C6.71511 30.764 5.51186 31.9006 5.51186 33.5242C5.51186 34.9855 6.5647 36.2844 8.06878 36.2844C9.42244 36.2844 10.6257 35.1478 10.6257 33.5242C10.4753 31.9006 9.42244 30.764 8.06878 30.764Z" fill="#489ED7"/>
        <path d="M13.4829 4.2989H15.5886V3H13.4829C11.2268 3 9.27148 5.11071 9.27148 7.54616V26.2179H10.4747V7.70852C10.3243 5.92253 11.678 4.2989 13.4829 4.2989Z" fill="#489ED7"/>
        <path d="M10.4747 26.3802H9.27148V7.70851C9.27148 5.11071 11.2268 3.16235 13.4829 3.16235H15.739V4.46125H13.4829C11.8284 4.46125 10.4747 5.92252 10.4747 7.70851V26.3802ZM9.27148 26.3802H10.3243V7.70851C10.3243 5.92252 11.678 4.29889 13.4829 4.29889H15.5886V3.16235H13.4829C11.2268 3.16235 9.27148 5.11071 9.27148 7.70851V26.3802Z" fill="#489ED7"/>
        <path d="M24.6231 32.8748H14.9971V34.1737H24.6231V32.8748Z" fill="#489ED7"/>
        <path d="M24.6146 34.1737H14.8379V32.8748H24.6146V34.1737ZM14.9883 34.0113H24.4642V32.8748H14.9883V34.0113Z" fill="#489ED7"/>
        <path d="M8.2195 27.0297C11.5285 27.0297 14.0854 29.9522 14.0854 33.3619V34.0113H16.3415V32.7124H15.2886V32.3877C14.8374 28.6533 11.8293 25.7308 8.3699 25.7308C4.60971 25.7308 1.60158 28.9781 1.45117 32.8748H2.65444C2.50403 29.7899 5.06095 27.0297 8.2195 27.0297Z" fill="#489ED7"/>
        <path d="M16.3413 34.1737H13.9348V33.5242C13.9348 30.1146 11.3779 27.1921 8.06901 27.1921C4.91051 27.1921 2.50405 29.7899 2.20324 33.0371H1C1.1504 28.9781 4.30889 25.7308 8.06901 25.7308C11.6787 25.7308 14.6868 28.6533 15.138 32.3877V32.7124H16.1909V34.1737H16.3413ZM14.0852 34.0113H16.1909V32.8748H15.138V32.55C14.6868 28.8157 11.6787 25.8932 8.21942 25.8932C4.45931 25.8932 1.45121 28.9781 1.3008 33.0371H2.35363C2.50404 29.6275 5.21133 27.0297 8.21942 27.0297C11.5283 27.0297 14.0852 29.9522 14.0852 33.3619V34.0113Z" fill="#489ED7"/>
        <path d="M30.9417 29.4651C28.8361 29.4651 27.332 31.2511 27.332 33.3618C27.332 35.6349 28.9865 37.2585 30.9417 37.2585C32.897 37.2585 34.5515 35.4725 34.5515 33.3618C34.7019 31.2511 33.0474 29.4651 30.9417 29.4651ZM30.9417 36.122C29.5881 36.122 28.3849 34.8231 28.3849 33.3618C28.3849 31.9006 29.5881 30.6017 30.9417 30.6017C32.2954 30.6017 33.4987 31.9006 33.4987 33.3618C33.4987 34.9855 32.4458 36.122 30.9417 36.122Z" fill="#489ED7"/>
        <path d="M30.9311 37.4209C28.8254 37.4209 27.1709 35.6349 27.1709 33.3618C27.1709 31.0888 28.8254 29.3028 30.9311 29.3028C33.0368 29.3028 34.6913 31.0888 34.6913 33.3618C34.6913 35.6349 33.0368 37.4209 30.9311 37.4209ZM30.9311 29.4651C28.9758 29.4651 27.3213 31.2511 27.3213 33.3618C27.3213 35.4725 28.9758 37.2585 30.9311 37.2585C32.8864 37.2585 34.5409 35.4725 34.5409 33.3618C34.5409 31.2511 32.8864 29.4651 30.9311 29.4651ZM30.9311 36.2844C29.427 36.2844 28.3742 34.9855 28.3742 33.5242C28.3742 31.9006 29.5774 30.764 30.9311 30.764C32.4352 30.764 33.488 32.0629 33.488 33.5242C33.6384 34.9855 32.4352 36.2844 30.9311 36.2844ZM30.9311 30.764C29.5774 30.764 28.3742 31.9006 28.3742 33.5242C28.3742 34.9855 29.427 36.2844 30.9311 36.2844C32.4352 36.2844 33.488 35.1478 33.488 33.5242C33.488 31.9006 32.2847 30.764 30.9311 30.764Z" fill="#489ED7"/>
        <path d="M30.7803 25.8932C27.3209 25.8932 24.3127 28.8157 23.8615 32.55V32.8748H22.8086V34.1737H25.0647V33.5242C25.0647 29.9522 27.7721 27.1921 30.9307 27.1921C34.0893 27.1921 36.6462 29.7899 36.7966 33.1995H37.9999C37.5487 29.1404 34.5405 25.8932 30.7803 25.8932Z" fill="#489ED7"/>
        <path d="M24.9143 34.1737H22.5078V32.8748H23.7111V32.55C24.1623 28.8157 27.1704 25.8932 30.7802 25.8932C34.5403 25.8932 37.6989 29.1404 37.8493 33.1995H36.646C36.4956 29.9522 33.9387 27.3544 30.7802 27.3544C27.6216 27.3544 24.9143 30.1146 24.9143 33.6866V34.1737ZM22.6582 34.0113H24.7639V33.5242C24.7639 29.9522 27.4712 27.1921 30.6297 27.1921C33.7883 27.1921 36.3452 29.7899 36.4956 33.1995H37.5485C37.398 29.3028 34.2395 26.0555 30.6297 26.0555C27.1704 26.0555 24.1623 28.8157 23.7111 32.7124V33.0371H22.6582V34.0113Z" fill="#489ED7"/>
    </symbol>

    <symbol id="other" viewBox="0 0 40 40" fill="none" xmlns="http://www.w3.org/2000/svg">
        <circle cx="20.5" cy="20.5" r="16.85" stroke="#489ED7" stroke-width="1.3"/>
        <circle cx="11" cy="20" r="2" fill="#489ED7"/>
        <circle cx="21" cy="20" r="2" fill="#489ED7"/>
        <circle cx="31" cy="20" r="2" fill="#489ED7"/>
    </symbol>

</svg>
