<svg width="524" height="49" viewBox="0 0 524 49" fill="none" xmlns="http://www.w3.org/2000/svg">
<path fill-rule="evenodd" clip-rule="evenodd" d="M129.649 0.788503C128.186 2.5908 130.1 0.337948 130.606 1.68967C129.65 2.14025 128.187 3.94252 128.693 4.3931C128.693 3.94252 129.649 3.94252 129.649 4.3931C129.409 4.40503 129.181 4.50229 129.006 4.66742C128.83 4.83255 128.719 5.05478 128.693 5.29427H129.649V5.80114C130.1 4.89999 130.606 3.94249 129.649 3.04134C130.1 3.04134 129.649 1.68968 131.056 2.14026C130.606 3.04141 132.519 4.39312 132.013 5.29427C132.519 3.49197 133.42 6.25172 133.926 5.80114C133.926 6.70229 132.969 6.25176 132.969 7.60349C134.376 8.05406 133.42 5.80116 135.333 6.25173C134.376 4.39311 135.839 3.04142 133.42 2.59084C133.42 3.04142 133.926 3.04135 134.376 3.49193C133.926 3.9425 132.969 3.49194 132.969 3.94251C132.969 4.39309 133.42 4.3931 132.969 4.3931C132.519 4.3931 132.519 3.04134 131.563 3.04134C133.42 2.59077 135.333 -0.112626 136.289 1.68967C135.839 1.68967 135.839 1.23909 135.333 1.23909C135.333 2.14024 136.29 2.59077 136.796 3.04134C137.303 3.49192 136.796 0.788503 137.753 0.788503C138.709 1.68965 138.203 1.23909 140.116 1.23909C140.116 1.68966 139.159 1.68969 139.61 2.59084C140.566 2.14027 140.566 3.04134 141.073 3.04134C140.566 1.23904 142.479 3.49199 142.029 2.59084C141.579 1.68969 141.073 1.68966 141.073 1.23909C143.436 0.788513 141.523 1.68968 142.479 2.14026C142.986 1.23911 142.986 0.788503 143.436 0.788503C144.843 2.14023 144.393 1.68965 144.843 0.788503C145.799 1.23908 147.262 2.59081 147.713 1.23909C147.713 2.14024 150.132 3.04142 150.132 2.59084C150.132 2.14027 149.176 2.14025 149.176 1.68967C150.582 1.68967 151.033 1.68968 151.539 2.14026C151.295 2.13983 151.06 2.23293 150.882 2.40049C150.704 2.56804 150.597 2.79729 150.582 3.04134C152.496 1.23904 154.859 2.59077 155.816 3.04134C155.366 2.59077 154.859 2.14026 155.366 2.14026C157.223 1.68968 154.859 3.04134 156.772 3.04134C156.772 2.59077 156.772 2.14026 157.222 2.14026V3.04134C159.136 3.49192 157.729 2.14026 158.686 2.14026C159.642 2.14026 159.642 2.59083 160.092 2.14026C159.136 3.04141 160.092 2.59077 160.599 3.04134C162.006 3.49192 161.499 2.14027 162.962 2.59084C162.962 3.49199 163.919 3.49192 164.369 3.04134C164.876 4.39307 165.326 4.90002 163.919 5.29427C163.749 4.85966 163.749 4.37712 163.919 3.94251C162.456 4.39309 163.412 6.25172 163.919 5.80114C164.425 5.35057 164.875 6.25174 164.875 5.29427C165.445 4.36022 166.065 3.45777 166.732 2.59084C167.689 2.59084 168.196 4.89997 169.152 3.49193C168.589 3.49193 168.196 2.81607 169.152 3.49193C170.109 4.16779 170.052 3.49197 170.277 3.09772C170.728 3.54829 169.321 5.35061 170.277 3.99889C171.234 3.99889 170.278 3.09772 171.234 3.09772C172.191 3.09772 171.684 2.64715 172.641 3.5483C173.091 2.19658 173.597 3.54828 175.004 2.64713C173.597 3.54828 175.961 3.54824 175.961 4.44939C176.329 4.26021 176.73 4.1454 177.143 4.11147H178.324C179.056 4.11147 179.562 4.11151 179.281 3.09772C180.744 4.44944 181.194 3.54832 182.657 3.99889C183.107 3.09774 184.514 3.54832 185.471 3.99889C185.021 2.19659 186.427 5.35061 188.341 3.99889C188.367 3.75941 188.478 3.53717 188.653 3.37204C188.828 3.20691 189.057 3.10965 189.297 3.09772C189.297 3.54829 188.847 3.54832 189.297 3.99889C191.211 3.54832 192.167 4.44944 192.167 3.09772C193.574 3.54829 194.08 4.44945 194.981 4.95635C194.981 3.99888 194.08 3.99888 194.08 3.5483C194.08 3.09773 194.53 3.99888 195.937 3.5483C197.427 3.58318 198.916 3.46991 200.383 3.2103C201.339 3.2103 202.24 2.81605 202.296 3.2103C203.421 1.9149 205.391 4.44939 206.573 3.66089C205.166 3.66089 206.573 2.30915 207.529 3.2103C207.529 3.66088 206.573 4.11147 207.529 4.11147C207.529 3.21032 208.992 3.21038 209.442 2.7598C209.949 3.21038 208.036 3.66089 209.442 3.66089C209.442 3.21031 209.949 3.21038 210.399 2.7598C211.356 4.11153 210.906 2.7598 211.356 2.7598C211.806 2.7598 211.806 3.66089 212.312 3.66089C212.762 2.30916 214.226 4.11145 215.182 3.2103V4.11147C217.996 2.30917 219.459 5.06892 221.372 3.2103C220.866 5.06892 221.822 4.56208 220.865 5.46323C223.229 4.56208 225.649 0.957427 228.462 3.2103C228.969 2.30915 233.245 1.408 233.245 3.2103C233.752 1.408 236.565 2.30921 237.522 1.85863C236.565 2.30921 238.028 5.46319 239.435 3.66089C238.479 3.66089 239.435 1.85863 239.885 1.85863C241.348 3.66093 242.755 2.30922 244.668 2.30922C243.262 4.11152 245.119 4.56207 244.218 6.42069H245.119C245.119 6.87126 245.119 6.87127 245.625 6.87127C243.712 4.56208 248.495 5.06893 246.075 3.66089C248.945 4.11146 247.032 2.30922 248.495 2.30922C249.958 2.30922 250.858 3.21037 251.815 2.30922C252.265 2.75979 251.815 4.11147 253.222 4.11147C253.728 2.75975 251.308 2.30922 252.771 2.30922C254.685 4.11152 254.178 2.30917 257.498 4.11147C258.005 2.30917 260.875 3.66094 262.281 2.30922C262.281 2.75979 262.281 3.2103 262.731 3.2103C261.775 2.75973 261.325 2.75974 261.325 3.66089C263.238 3.66089 261.775 4.56206 262.731 4.56206C262.731 4.11148 263.238 3.66088 263.688 3.2103C264.645 4.11145 264.645 3.66091 263.688 4.56206C265.151 5.9701 265.151 3.2103 265.601 3.2103C267.497 3.36687 269.378 3.66815 271.229 4.11147C271.679 2.30917 273.592 4.11152 274.042 2.30922C273.592 3.21037 274.042 3.66089 274.999 3.66089C275.174 3.2115 275.517 2.84799 275.955 2.64713H277.306C278.206 2.64713 279.275 3.4356 280.232 3.66089C281.189 2.30916 282.145 3.21038 283.608 2.7598C284.058 3.21038 284.058 4.11147 285.015 4.11147C285.465 3.21032 283.102 2.7598 284.509 2.7598C285.465 4.5621 285.015 0.957503 287.378 2.7598C287.378 1.85865 286.422 1.40805 287.378 1.40805C288.335 1.40805 287.378 2.30923 288.335 2.7598C290.248 0.957503 289.292 5.46321 289.742 4.56206C290.248 1.85861 291.205 4.56203 293.118 3.2103C293.568 1.85858 292.162 2.75978 291.655 1.85863C296.888 4.56208 297.845 0.957448 301.671 4.11147C303.078 2.75975 306.398 4.11151 305.948 1.85863C306.191 2.12506 306.486 2.33788 306.815 2.4835C307.145 2.62913 307.501 2.70437 307.861 2.70437C308.221 2.70437 308.577 2.62913 308.907 2.4835C309.236 2.33788 309.532 2.12506 309.775 1.85863C309.268 3.21036 311.181 5.46323 310.225 7.49082C309.774 7.04024 310.225 6.58965 309.775 6.58965C309.775 7.4908 309.268 8.39199 310.225 8.39199C310.225 7.49084 311.688 7.94138 311.688 7.04023C310.731 7.49081 311.181 6.13908 310.731 5.63219C311.991 5.13725 313.125 4.3677 314.051 3.37935L315.458 4.73102C315.458 4.28044 315.964 4.28042 316.414 3.82985C316.414 4.73099 316.414 5.23789 316.921 5.23789C316.921 4.28042 318.778 5.23789 319.284 5.23789C319.735 3.82985 318.328 4.2805 318.328 3.37935C321.198 3.82992 319.735 3.82987 321.198 4.73102C322.604 3.82987 323.561 4.73107 324.518 3.37935C324.968 4.2805 324.011 4.73102 324.518 4.73102C325.924 1.57699 329.244 5.23797 331.664 3.37935C332.114 4.2805 335.434 4.73107 334.027 3.37935C334.984 3.82992 335.434 3.37935 335.941 3.37935C335.941 5.23797 338.304 4.2805 338.811 3.37935C339.767 3.82992 338.304 6.13906 339.261 4.73102C339.261 4.28044 339.767 3.82992 340.217 3.37935C340.217 3.82992 341.624 3.82992 341.624 3.37935C342.581 3.82992 341.624 5.23789 342.581 5.23789C343.537 5.23789 342.581 4.2805 343.537 3.37935C345 4.2805 345 4.73107 345 3.37935C345.901 4.2805 345.901 5.63214 347.814 5.23789C349.727 4.84364 347.364 3.82992 348.32 3.37935H349.277C348.32 4.73107 350.684 4.28042 349.277 5.23789C351.64 5.23789 352.091 6.58962 352.597 5.23789C352.597 6.13904 354.004 4.73102 353.047 6.13906C354.51 6.58964 353.554 4.73102 354.96 4.73102C355.917 7.49079 358.281 5.23792 359.744 6.58965C360.7 5.23792 362.557 7.04019 363.514 5.23789C363.514 7.04019 365.933 6.58966 366.89 5.63219C367.34 6.58966 368.747 7.04024 369.253 7.49082C370.21 5.23794 366.89 7.04019 367.34 5.23789C369.703 5.63214 374.937 6.58965 374.487 6.58965C373.08 5.63218 375.893 5.63217 375.893 4.73102C375.936 5.0867 376.118 5.41085 376.4 5.63219C373.98 5.23793 375.893 7.94137 376.4 6.58965C375.893 6.58965 375.893 6.58964 375.893 6.13906C377.807 6.58964 378.763 7.49081 378.763 5.63219C379.672 6.41295 380.806 6.88315 382 6.97432C383.195 7.06548 384.387 6.77284 385.403 6.13906C384.447 7.94136 387.316 6.1391 386.866 7.9414C386.866 7.49083 386.866 7.04023 387.317 7.04023C387.767 7.04023 387.823 7.9414 388.273 7.9414C387.823 7.04025 387.823 6.13908 387.317 5.63219C386.36 7.04023 385.91 4.73102 384.953 4.73102C384.579 5.41691 384.105 6.04331 383.546 6.58965C383.996 4.28045 381.127 6.58962 380.17 5.23789C383.075 4.05754 386.325 4.05754 389.23 5.23789C386.36 5.23789 390.637 9.74369 390.186 7.49082C389.736 8.84254 389.23 7.04022 389.23 6.58965H389.961C390.58 6.58965 391.143 7.60344 391.143 6.58965C390.186 6.58965 390.637 5.63215 390.186 4.28043C391.593 4.73101 391.143 5.23791 391.593 6.13906C391.593 4.28044 394.969 5.63214 394.969 3.82985C395.87 4.73099 394.969 5.23791 394.463 6.13906C395.87 6.58964 397.333 5.23791 397.333 6.13906C397.333 7.04021 394.97 6.13908 395.42 7.04023C395.87 7.94138 395.42 7.49083 394.969 7.9414C396.376 8.39198 395.87 6.58966 397.333 7.04023C397.783 7.49081 400.653 9.74364 399.696 8.84249C399.696 7.94134 399.246 7.49081 399.246 7.04023C400.653 7.49081 400.203 6.58964 401.103 6.13906V7.04023C400.203 7.49081 399.696 8.39191 401.103 8.84249C401.609 7.94134 403.523 6.58965 401.61 6.58965C402.06 5.63218 403.016 6.58962 402.06 5.23789C402.566 6.58962 404.479 4.28044 404.479 6.13906C404.198 5.40688 403.86 5.80113 403.635 6.13906C404.986 6.13906 405.886 8.33564 406.393 7.04023C404.929 7.04023 407.293 6.58964 407.293 6.13906C407.293 5.68849 405.886 4.73101 407.293 4.28043C407.293 6.58963 408.25 3.37927 409.713 3.82985C410.669 5.63214 409.206 4.28046 409.206 5.63219C412.526 6.13908 410.669 3.82985 413.033 3.82985C412.076 5.63214 413.989 4.28044 413.989 4.73102C413.989 5.18159 413.033 5.23793 412.526 5.63219C415.396 5.63219 413.483 6.13907 412.526 6.58965H413.82C414.89 6.58965 415.509 7.60344 415.902 6.58965C414.946 6.58965 414.946 5.63217 414.439 4.73102C415.903 5.23791 415.902 4.28042 416.353 3.82985C416.353 4.73099 416.859 4.73099 416.859 5.23789C416.859 5.74479 415.396 5.23793 415.396 5.63219C415.396 6.02644 417.084 6.02642 417.816 5.35056L419.11 3.94251C418.153 5.74481 419.56 5.35059 419.56 6.70231C418.604 6.70231 418.604 7.60349 418.153 7.60349C418.153 6.25176 419.054 5.80113 417.816 5.35056C418.21 7.43447 416.803 6.58966 416.353 7.04023C416.651 7.51781 417.08 7.89933 417.589 8.13907C418.098 8.3788 418.665 8.46661 419.222 8.39199C419.222 7.49084 419.673 7.49082 420.629 7.49082C420.179 6.58967 420.179 5.63217 421.586 4.73102C422.092 7.04021 422.993 4.73102 424.456 4.73102C424.906 5.23791 423.949 5.63219 424.456 5.63219C424.962 5.63219 426.369 4.28046 425.863 5.63219C427.326 6.13908 427.326 4.73101 428.282 4.28043C430.647 5.40263 433.309 5.73812 435.879 5.23789C435.745 5.23789 435.616 5.18453 435.521 5.08947C435.426 4.99441 435.372 4.86545 435.372 4.73102C436.329 4.73102 436.835 4.73101 436.835 4.28043C438.749 6.58963 441.562 5.23789 445.389 3.82985C445.463 4.95818 445.79 6.05536 446.345 7.04023C446.345 6.13908 447.302 7.49082 447.752 7.49082C447.752 4.73105 449.215 7.94137 449.215 6.58965C448.259 6.58965 449.215 5.23789 449.665 5.23789C450.172 6.58962 450.622 7.04025 449.215 7.9414C449.215 7.49083 448.709 7.49083 448.258 7.9414C449.215 7.9414 449.215 8.39199 450.172 8.39199C450.172 7.94141 450.172 7.04023 450.622 7.04023V8.84249C451.579 9.74364 453.492 7.94135 454.899 9.29307C454.448 9.74365 452.985 9.2931 453.492 10.6448C453.998 11.9966 454.899 10.1943 455.855 11.0954C456.362 10.6448 456.362 9.29307 457.262 9.29307C457.262 10.1942 456.362 10.6449 456.812 11.9966C458.725 12.4472 455.855 10.1942 457.768 10.1942H458.219C458.219 11.546 459.175 11.0954 458.725 12.4472C458.219 12.4472 458.219 11.546 457.768 12.4472L459.175 13.7988C459.175 13.7988 458.219 13.7988 458.219 14.2494C459.175 13.7988 459.682 14.2494 460.132 14.2494C460.638 12.8977 458.725 13.3483 459.175 11.546C459.536 11.5106 459.874 11.3514 460.132 11.0954C460.132 11.546 460.638 11.546 460.638 11.9966C460.638 12.4472 459.682 11.9966 459.682 12.4472C460.638 11.9966 461.088 13.7988 461.088 12.8977C461.006 11.7886 460.679 10.7116 460.132 9.74366C460.132 9.74366 460.132 10.1942 459.682 9.74366C459.175 7.49078 461.088 9.29307 461.595 9.29307C462.101 9.29307 462.495 7.04025 463.958 7.9414V6.13906C464.915 6.58964 464.915 5.23793 466.322 5.63219C465.365 6.58966 466.828 7.04023 465.871 7.04023C464.915 7.04023 464.915 6.58965 464.408 6.58965C464.915 7.94137 463.002 8.39191 464.408 8.84249C464.915 8.39191 464.408 7.04024 465.871 7.49082C465.365 9.29312 467.278 8.39193 467.729 9.74366C466.828 9.74366 465.871 8.39192 465.871 9.29307C467.278 10.6448 467.728 9.74364 469.191 8.84249C469.642 10.1942 471.555 7.94137 469.642 10.1942C469.642 10.6448 471.555 10.1942 471.555 9.74366C471.31 9.50062 471.152 9.18406 471.105 8.84249C472.511 9.74364 472.512 7.94141 474.425 8.39199C474.393 8.6367 474.417 8.88544 474.495 9.11956C474.573 9.35368 474.703 9.56702 474.875 9.74366C474.425 9.74366 473.918 7.94135 473.468 9.29307C473.918 9.29307 473.918 9.74367 473.918 10.1942C474.803 10.1745 475.656 9.857 476.338 9.29307C475.832 8.8425 474.425 9.29313 474.875 7.9414C476.338 9.7437 477.745 7.9414 480.108 7.9414C480.183 7.0169 480.028 6.08819 479.658 5.23789C478.701 6.58962 479.658 6.58966 479.152 7.04023C478.701 6.58966 478.251 7.04023 477.745 7.04023C477.745 5.23793 476.788 4.28042 478.701 3.82985C478.701 3.82985 477.745 5.23791 479.152 4.73102C479.658 4.73102 479.658 3.82992 480.615 3.37935C481.571 4.2805 482.021 2.92871 482.528 4.28043C479.658 4.28043 483.935 5.63222 481.571 8.39199C484.385 8.39199 483.484 10.1943 483.484 10.6448C484.891 9.74368 485.341 8.39196 486.298 7.04023C484.891 6.58966 485.341 8.84249 484.385 8.84249C484.891 7.49076 483.935 6.58966 483.484 5.63219C485.341 5.23793 486.804 5.63214 488.718 5.23789C488.718 5.23789 492.994 2.92872 494.345 4.73102C494.345 5.23791 493.388 4.73099 493.388 5.23789C494.851 5.23789 493.895 6.58965 494.851 6.58965C495.111 6.38905 495.424 6.27131 495.752 6.25173H496.146C496.652 6.25173 497.102 6.25169 497.834 5.23789C498.79 6.13904 499.747 5.63217 501.154 4.73102C501.154 5.63217 500.197 5.63217 500.647 6.13906C502.11 4.73102 504.98 6.13906 505.937 6.13906C505.937 7.04021 504.474 6.58967 504.024 7.49082C504.192 7.70213 504.406 7.87272 504.65 7.98996C504.893 8.1072 505.16 8.16811 505.43 8.16811C505.701 8.16811 505.967 8.1072 506.211 7.98996C506.454 7.87272 506.668 7.70213 506.837 7.49082C506.387 7.49082 507.344 6.13906 506.387 4.73102C507.794 4.73102 507.794 5.63214 509.257 5.23789C509.257 3.82985 509.707 5.2379 511.17 4.28043C511.62 6.58963 511.17 7.49076 512.07 8.84249C511.62 7.04019 513.027 9.29313 513.027 7.9414C512.577 7.9414 511.62 7.49081 512.577 7.04023C513.027 7.94138 513.533 5.63217 514.94 4.73102C515.129 4.92252 515.359 5.0679 515.613 5.15582C515.866 5.24374 516.137 5.27182 516.403 5.23789C516.854 7.04019 516.854 7.04025 517.81 7.9414C518.26 5.63221 520.174 5.63215 522.593 4.28043C521.13 6.13905 522.593 7.04019 524 8.84249V10.6448C523.494 10.6448 523.493 10.6448 523.493 11.0954C522.593 10.6448 523.493 10.1942 523.493 9.74366C522.087 10.1942 522.593 12.8977 524 11.0954V43.9311C523.152 43.3561 522.154 43.0427 521.13 43.0299C520.68 44.3816 520.173 45.7333 518.767 45.7333C517.36 45.7333 517.81 43.0299 515.897 44.3817C516.403 43.4805 514.49 40.777 513.533 42.1287C513.984 42.5793 514.49 42.5793 513.984 43.0299C513.028 43.787 511.876 44.256 510.664 44.3817C511.17 44.8322 511.62 45.2827 511.17 45.2827C510.72 45.2827 510.664 44.3816 510.213 43.9311C510.664 43.9311 512.577 43.4805 511.62 42.5793C511.62 43.4805 510.213 43.0299 509.707 43.0299C509.257 44.8322 509.707 45.2827 509.257 45.7333C508.3 45.2827 508.3 45.7334 509.257 44.3817C508.75 44.3817 508.3 43.9311 507.794 43.4805C508.3 43.4805 508.75 43.9311 509.257 43.9311C509.707 42.5793 507.794 43.931 507.794 42.5793C508.3 42.5793 508.3 42.5793 508.3 42.1287C509.257 42.1287 509.707 41.6781 510.213 41.6781C510.72 41.6781 509.257 42.5793 510.213 42.5793C510.213 42.1287 511.17 42.5793 511.17 42.1287C510.214 41.6782 511.17 41.2276 510.664 41.2276C509.707 42.1287 508.3 40.3264 506.837 41.6781C507.27 42.8463 507.591 44.0534 507.794 45.2827C505.937 46.1839 503.517 46.1839 502.561 47.0851C503.067 45.7334 501.154 46.6345 501.154 44.3817C500.197 44.8322 501.154 46.6345 500.197 46.6345C500.197 45.7333 499.747 45.7333 499.24 46.1839C499.747 44.8322 496.877 43.931 497.834 41.2276C499.24 42.5793 499.747 38.5242 501.604 40.7771C498.284 40.7771 503.067 42.1287 503.067 42.5793C502.11 42.5793 502.11 43.4805 502.11 44.3817C502.214 44.1806 502.382 44.0199 502.587 43.9252C502.792 43.8305 503.023 43.8073 503.243 43.8591C503.463 43.9109 503.659 44.0347 503.8 44.2111C503.942 44.3874 504.02 44.6061 504.024 44.8322C505.43 43.4805 503.067 43.4804 503.517 42.1287C504.458 42.377 505.446 42.377 506.387 42.1287C504.98 40.777 503.517 39.4253 502.561 41.6781C502.11 40.777 503.067 39.8759 502.561 38.5241C502.11 38.5241 501.604 37.623 501.604 38.5241C501.604 39.4253 501.604 38.5241 501.097 38.5241H500.647C500.197 38.5241 500.647 39.4253 500.647 39.8759C499.674 40.5421 498.504 40.8597 497.327 40.7771V39.8759C498.79 40.777 499.241 38.0736 500.197 38.5241C499.747 38.5241 499.747 38.5241 499.747 38.0735C499.747 37.623 500.197 37.623 499.747 37.623C498.79 38.5241 498.284 40.3264 496.877 38.9747C496.371 39.8759 497.834 41.2276 496.877 41.6781C495.414 41.2276 496.877 40.3265 495.92 40.3265C495.92 41.6782 494.514 38.9748 494.514 40.7771C496.371 39.8759 494.964 43.931 495.92 43.0299C495.92 42.5793 495.921 42.1287 496.371 42.1287C496.433 42.1917 496.508 42.2417 496.59 42.2759C496.672 42.31 496.76 42.3275 496.849 42.3275C496.938 42.3275 497.026 42.31 497.108 42.2759C497.19 42.2417 497.264 42.1917 497.327 42.1287C497.834 44.8322 496.877 43.4804 496.371 45.7333C495.414 44.8322 495.921 45.2828 496.371 43.9311C495.541 44.2665 494.874 44.9132 494.514 45.7333C495.414 45.7333 496.371 45.7333 495.92 46.6345C495.414 46.6345 495.414 46.1839 494.964 46.6345C495.414 46.6345 495.414 47.5357 494.964 47.5357C494.007 46.6345 494.514 46.6345 493.051 47.0851C493.557 46.1839 491.644 45.2828 492.6 43.9311C493.051 43.9311 493.163 43.9311 493.107 44.3817C494.176 43.9874 492.375 43.9311 492.094 43.1426C491.813 43.8747 491.587 44.6633 491.137 44.8322C491.414 44.1069 491.414 43.3047 491.137 42.5793C490.687 43.0299 489.731 41.6782 489.731 42.5793C490.687 43.0299 489.731 44.3817 489.224 44.3817C489.224 43.0299 487.817 45.2828 487.817 43.9311C487.817 43.4805 490.181 43.0299 488.774 42.5793C488.386 43.066 487.828 43.3884 487.213 43.4823C486.598 43.5762 485.97 43.4348 485.454 43.0862V43.9311C484.948 43.9311 484.948 43.9311 484.948 44.3817C484.948 44.8322 486.861 44.3817 486.861 44.8322C486.861 45.2828 486.411 45.7333 485.904 45.7333C485.904 44.8322 485.454 46.1839 484.948 46.1839C484.867 45.2152 484.538 44.2839 483.991 43.4805L485.454 43.0862C485.819 43.023 486.153 42.8455 486.411 42.5793C485.454 42.5793 485.454 41.6782 486.411 42.1287C486.411 41.6782 486.411 41.2276 486.861 41.2276C487.311 41.2276 487.367 41.6781 487.367 41.2276C485.904 39.8758 483.541 40.7771 483.091 40.7771C482.64 40.7771 483.091 40.3265 482.584 40.3265C482.584 42.5793 483.541 43.9311 483.091 44.8322H482.134C482.584 43.4805 481.628 41.6782 481.628 40.3265C481.177 40.777 481.628 41.6781 480.221 41.6781C480.671 43.0299 481.177 44.8322 479.264 45.2827C480.221 44.3816 478.307 43.931 477.857 43.0299C476.394 43.931 478.308 44.8322 477.351 45.2827C477.351 43.931 475.944 43.0299 475.438 44.3817C475.438 43.4805 475.944 40.777 477.351 42.5793C476.901 40.777 476.394 40.777 475.438 39.8759C476.394 38.5242 476.901 40.777 477.351 39.8759C476.901 39.8759 476.901 39.4253 476.901 38.9747C477.857 39.4253 478.307 39.4253 477.857 38.0735C478.307 38.0735 478.307 38.5241 479.264 38.9747C479.264 38.0736 478.758 38.0736 478.758 37.1725C477.351 37.1725 476.394 38.9748 477.351 37.1725C475.438 36.7219 474.031 36.2712 474.987 37.623C474.987 37.1724 475.944 37.1724 475.944 37.623C475.944 38.0735 475.438 38.0735 474.481 38.0735C473.524 38.0735 475.944 34.469 474.031 35.3701C474.988 35.3701 474.031 36.2713 473.525 36.2713C473.018 36.2713 473.524 35.3701 473.074 35.3701C473.524 37.623 474.481 39.4253 472.624 39.4253C473.074 40.3265 472.624 42.5793 474.031 43.9311C473.524 43.9311 473.524 44.3817 473.074 44.3817C473.524 43.4805 472.624 43.0299 472.118 42.1287C472.118 42.1287 472.624 40.777 472.118 40.3265C471.611 39.8759 469.754 41.2276 470.711 38.9747C469.754 38.9747 469.248 40.3265 467.841 40.3265C466.434 39.4253 468.291 38.5241 467.335 38.5241C465.928 39.4253 466.434 38.9747 467.335 40.3265C464.971 40.3265 464.971 39.8759 464.971 39.4253C464.014 40.3265 463.058 40.777 464.015 42.1287C462.608 41.2276 463.564 43.0299 462.101 42.5793C462.101 41.6782 463.058 41.2276 461.651 41.2276C461.651 44.3816 459.738 41.6782 458.331 43.0299C458.781 41.6782 456.418 43.0299 456.418 41.2276C457.375 41.6781 459.738 42.1287 460.244 41.6781C460.695 40.3264 458.781 38.9747 460.244 38.0735C460.244 38.5241 461.201 38.9747 461.201 38.5241L459.738 37.1725C460.244 37.1725 460.695 38.0736 461.201 37.1725C460.837 36.9482 460.418 36.8295 459.991 36.8295C459.564 36.8295 459.145 36.9482 458.781 37.1725C460.244 38.5242 457.825 39.8759 458.331 40.7771C458.331 40.3265 458.781 40.3265 458.781 40.7771C457.374 41.6782 455.968 38.9747 455.461 37.623C456.272 38.2707 457.296 38.5921 458.331 38.5241C457.825 38.5241 458.331 38.0735 458.331 37.623C458.331 37.1724 457.374 38.0736 457.374 37.1725C457.374 37.1725 457.825 37.1725 457.374 36.7219C456.418 37.1725 456.418 38.0736 455.011 37.1725C455.461 38.9748 455.011 39.8759 455.461 40.7771C454.505 40.7771 453.548 40.3264 453.548 41.2276C454.505 41.2276 455.011 41.2276 455.461 42.1287C453.098 41.2276 454.055 43.0299 453.098 43.4805C452.591 41.6782 450.678 41.6782 453.098 39.4253C451.635 38.9747 450.678 41.6782 449.272 40.3265C449.778 39.8759 450.678 39.4253 449.778 39.4253C449.778 40.3265 448.315 39.8759 448.315 40.7771C452.141 41.2276 450.228 41.6782 449.272 43.4805C448.821 41.2276 447.865 41.2276 447.865 38.9747C446.908 41.6782 443.588 38.9748 443.082 37.1725C443.588 37.1725 444.545 38.9747 444.995 37.623C444.038 37.623 444.545 36.7219 444.038 36.7219C443.532 36.7219 443.588 37.1725 443.082 36.7219C443.082 37.623 442.125 38.5242 443.082 39.4253C443.082 38.0736 444.038 39.8759 444.545 40.3265C444.038 41.2276 443.081 41.6782 444.545 42.1287C443.588 42.5793 443.082 42.1287 443.082 41.6781C443.082 41.2276 444.995 40.3265 443.588 39.8759C443.082 40.777 439.311 38.9748 440.718 40.7771C440.718 39.4253 442.125 40.777 441.675 41.6781C439.762 42.5793 438.805 39.8759 437.398 39.4253C436.892 39.4253 437.398 40.777 436.442 41.2276C436.892 39.4253 433.572 39.8758 434.022 41.2276C434.528 41.2276 434.979 40.777 434.979 41.6781C433.572 42.1287 433.121 41.2276 432.615 42.1287C433.572 42.5793 433.572 43.4805 432.615 43.9311C432.615 43.0299 431.658 42.5793 432.615 42.1287C431.658 40.777 429.295 41.2276 430.702 42.1287C430.702 42.1287 431.659 41.6782 431.659 42.1287C429.745 42.1287 429.745 43.9311 430.702 43.4805C428.338 44.3816 427.888 41.6781 426.932 41.6781C427.382 40.3264 428.789 40.3264 429.295 41.6781C429.295 39.8758 430.702 41.6782 430.702 40.3265C429.295 40.3265 431.659 38.9747 430.252 38.9747C429.745 40.3264 429.745 38.0735 429.745 37.623C429.266 37.6127 428.793 37.7331 428.376 37.9712C427.96 38.2093 427.616 38.5561 427.382 38.9747C427.888 38.9747 427.888 40.7771 427.382 40.7771C426.875 40.7771 426.932 39.8759 425.975 39.8759C426.425 41.2276 424.062 41.6781 424.512 41.6781C425.037 41.6573 425.553 41.8163 425.975 42.1287C424.062 42.1287 426.932 43.4805 425.018 43.4805C425.018 41.6782 424.062 43.4804 423.555 42.1287C422.149 42.5793 423.105 42.5793 422.599 43.0299C422.149 42.5793 422.149 43.0299 421.698 43.0299C422.149 42.1287 420.742 40.777 420.235 42.1287C420.48 42.1283 420.715 42.2214 420.893 42.389C421.07 42.5565 421.178 42.7858 421.192 43.0299C418.829 43.931 419.785 44.4943 418.322 46.2966C419.279 46.7472 414.552 45.846 416.465 47.1977C416.915 46.2966 417.365 48.0989 417.872 46.7472C417.872 47.6483 417.872 48.0988 418.322 48.0988C416.465 46.7471 415.959 48.0989 414.046 47.1977C415.002 47.1977 416.465 46.2966 414.552 45.846C414.046 47.1977 414.045 45.846 413.595 46.7472H412.639C412.639 46.2966 413.595 46.2966 412.639 46.2966C412.639 46.2966 412.639 46.7472 412.132 46.2966C412.53 46.8079 412.712 47.4549 412.639 48.0988C412.132 48.5494 412.132 49 411.682 49C412.132 48.5494 412.132 46.2966 411.232 46.2966C411.232 48.0989 410.725 47.1977 410.275 46.2966C409.319 48.5494 410.275 46.2966 408.362 46.7472C408.812 46.7472 406.899 47.6483 405.999 48.0988C406.899 47.1977 405.042 46.7471 404.536 45.846C405.042 48.5494 402.622 45.3955 402.172 47.6483C402.622 45.846 400.709 47.1978 400.709 47.6483C400.259 45.846 400.259 47.6483 399.809 47.6483C399.302 46.7472 398.852 46.7472 398.852 46.2966C398.852 46.7472 396.433 45.846 395.982 45.846C394.576 49 389.792 46.2966 387.429 47.1977C387.429 47.1977 388.386 45.3954 387.429 45.3954C386.923 46.7471 385.966 43.5931 385.516 45.3954C386.472 44.9448 387.429 46.7472 386.473 46.2966C384.053 44.9449 384.559 46.2965 383.603 44.9448C383.603 46.2965 382.646 45.846 381.689 46.2966C382.196 44.4943 380.733 44.0437 378.369 42.692C377.919 45.3954 374.093 43.1425 372.742 44.9448C373.192 44.9448 374.149 46.2966 373.192 46.2966C373.192 44.9449 371.279 44.0437 372.236 45.846C370.829 44.0437 367.959 45.3954 367.002 45.3954C367.959 44.0437 366.046 44.9449 366.552 43.5932C366.046 44.0437 366.046 43.1426 365.596 43.1426C365.089 44.0437 365.596 44.4943 366.046 45.3954C365.089 44.9448 364.133 45.3954 364.133 44.9448C365.596 43.5931 363.176 43.5931 363.176 44.9448C362.726 42.2414 363.683 43.5931 364.639 42.2414C364.133 41.3402 363.682 42.692 363.176 41.7908C362.726 42.692 363.176 43.1426 362.726 43.5932C360.813 43.5932 356.086 45.3954 355.579 42.2414C354.623 42.2414 353.216 44.4943 352.71 43.1426C352.203 41.7908 353.666 44.0437 353.666 42.2414C351.753 42.2414 350.796 44.0436 352.259 44.0436C351.303 44.4942 350.796 44.0437 349.39 44.9448C349.896 43.5931 350.796 43.5931 351.303 42.692C349.896 43.1426 347.983 40.8897 347.983 42.692C347.983 44.4943 349.896 41.3403 349.896 43.1426C348.433 44.9449 347.476 43.5931 346.069 44.0436C346.069 43.1425 347.476 43.5931 347.476 42.692C347.026 42.692 346.07 41.3402 345.563 42.2414C346.07 43.1425 344.663 44.0437 343.706 43.1426C344.663 42.2414 342.75 40.8897 342.243 42.2414C344.156 42.692 339.88 43.1426 339.88 43.5932C340.836 44.0437 340.33 44.4943 341.287 45.846C340.33 45.3954 339.43 44.9448 340.33 44.0436C338.473 43.1425 337.967 44.0437 337.967 42.2414C336.56 42.2414 337.01 42.692 336.053 42.2414C336.053 42.692 336.053 43.5932 335.603 43.5932C335.603 42.692 335.097 42.692 333.69 42.692C333.24 44.4943 331.326 44.0437 330.82 45.3954C329.863 43.1425 333.24 44.4943 332.733 42.692C331.326 42.2414 331.777 42.2414 330.37 42.692C330.443 43.3359 330.261 43.9829 329.863 44.4942C329.863 43.1425 328.907 43.5931 328.457 43.1426C328.457 44.9449 327.5 43.1426 327.05 43.1426C326.543 44.0437 328.457 44.4942 327.05 44.9448C326.093 44.0437 326.543 44.0437 325.587 44.9448C326.093 44.0437 322.267 44.0436 322.267 44.0436C322.267 44.0436 323.223 44.4942 322.717 44.9448C322.21 45.3954 318.44 43.1425 318.44 44.9448C317.484 44.4942 318.44 42.692 317.034 43.1426C317.101 43.7777 316.941 44.4161 316.583 44.9448C316.077 43.5931 316.077 44.0437 316.583 42.692C315.12 44.0437 317.033 44.0436 313.713 44.0436C314.164 42.6919 311.35 43.1425 312.757 41.7908C311.35 40.8897 307.524 42.2413 308.48 44.0436C308.93 42.6919 309.887 44.4942 310.393 44.9448C309.887 44.9448 309.437 44.9448 309.437 45.3954C308.547 44.578 307.427 44.0534 306.23 43.8923C305.033 43.7312 303.815 43.9412 302.741 44.4942C302.741 43.5931 302.741 42.692 301.784 42.692C301.334 44.9449 298.464 42.2414 297.507 42.2414C298.014 42.2414 298.97 42.2414 298.464 41.7908C297.99 41.8076 297.527 41.9394 297.116 42.1749C296.704 42.4103 296.356 42.7424 296.101 43.1426C296.101 42.2414 296.1 41.3402 295.144 41.7908C294.187 42.2414 295.144 42.2414 295.594 43.1426C294.187 43.1426 293.737 42.692 293.737 41.7908C294.694 41.7908 295.144 41.3402 294.187 40.8896C293.231 41.3402 293.737 43.1426 292.274 43.1426C293.737 41.3403 290.867 43.5932 289.911 43.5932C289.911 43.4699 289.886 43.3479 289.837 43.2348C289.788 43.1216 289.717 43.0196 289.627 42.9351C289.538 42.8506 289.432 42.7855 289.316 42.7437C289.2 42.7019 289.077 42.6843 288.954 42.692C288.504 42.692 287.997 44.0437 287.547 43.5932C287.997 42.692 287.997 42.2414 287.041 42.2414C286.313 42.9557 285.405 43.4586 284.414 43.6967C283.423 43.9348 282.386 43.899 281.414 43.5932C282.033 43.9311 280.907 42.7483 280.457 42.2414C280.457 42.692 280.457 43.1426 279.951 43.1426C279.5 41.7908 278.544 43.1425 278.094 42.2414C279.5 40.8897 277.587 39.9885 278.094 40.8896C277.587 41.3402 278.094 43.1426 276.631 43.1426C275.167 43.1426 277.137 40.8896 276.631 40.8896C276.177 41.0516 275.791 41.3623 275.536 41.7712C275.28 42.1801 275.17 42.6633 275.224 43.1426C271.904 42.2414 268.077 41.7908 267.121 44.4942C266.164 44.0437 263.801 42.2414 263.801 42.692C263.801 43.1426 264.251 43.1425 264.757 44.0436C264.396 44.0791 264.058 44.2383 263.801 44.4942C263.005 43.8948 262.096 43.4654 261.128 43.2329C260.159 43.0003 259.154 42.9696 258.173 43.1426C258.173 43.5931 258.174 44.4942 257.723 44.4942C255.81 43.1425 255.81 45.3955 254.403 43.5932C256.26 41.7909 252.94 43.5932 252.49 43.5932C253.447 44.4943 249.62 42.6919 249.62 44.9448C248.664 44.9448 248.664 42.2414 248.214 43.5932C249.17 45.846 246.3 44.4942 247.257 44.4942C243.937 45.3954 243.937 43.1425 242.024 44.4942C240.561 43.5931 242.024 43.1425 241.517 42.2414C239.154 41.7908 240.561 44.0436 240.11 44.0436C239.768 43.7563 239.372 43.5398 238.945 43.4068C238.519 43.2738 238.07 43.2269 237.625 43.2688C237.18 43.3107 236.748 43.4406 236.353 43.651C235.959 43.8614 235.61 44.1479 235.327 44.4942C235.327 42.6919 234.371 42.692 234.371 41.7908C234.371 42.2414 233.47 42.2414 232.964 41.7908C232.514 42.2414 233.921 43.5931 232.007 44.0436C230.601 43.5931 229.137 43.5931 228.687 42.2414C229.644 42.2414 229.644 42.692 230.094 43.1426C229.644 40.8897 227.731 42.692 225.817 41.7908C225.817 42.692 227.28 44.0437 225.817 44.4942C224.861 44.0437 223.904 44.0437 223.454 43.5932C224.411 42.2414 224.411 44.0436 225.817 44.0436C225.817 43.1425 225.367 43.1425 225.367 42.2414C223.454 41.7908 223.904 43.5931 222.497 44.0436C221.091 43.5931 220.584 41.7908 219.628 40.8896C219.628 42.2414 222.047 42.6919 220.134 44.0436C220.134 43.1425 219.177 43.5931 219.177 43.1426C219.177 42.692 220.134 43.1425 220.134 42.2414C217.264 41.7908 214.507 44.0436 216.308 44.0436C214.1 43.8157 211.875 43.8157 209.668 44.0436C209.668 43.1425 209.668 42.692 209.161 42.2414C208.676 42.2535 208.213 42.444 207.86 42.7765C207.507 43.1091 207.289 43.5602 207.248 44.0436C207.248 42.2413 205.391 44.9449 205.841 43.5932C207.248 43.1426 206.291 41.3402 205.841 40.4391C205.832 41.287 205.488 42.0969 204.884 42.692C204.434 41.7908 205.841 41.7908 205.391 40.4391C205.129 40.4688 204.864 40.4441 204.612 40.3666C204.361 40.2891 204.128 40.1604 203.928 39.9886C203.478 42.2414 202.521 39.9885 202.015 39.538C200.608 39.0874 199.651 39.0873 199.651 40.4391C199.651 39.5379 201.058 41.7908 202.521 42.2414C201.564 44.0437 200.101 41.3403 200.101 43.1426C199.201 43.1426 200.608 40.8896 199.201 41.3402C199.201 42.6919 197.738 43.1426 196.781 43.5932C195.825 43.1426 196.331 39.9885 195.375 41.3402C195.375 41.3402 195.825 42.692 195.375 43.1426C193.968 42.692 194.868 41.3403 193.461 43.1426C193.461 42.2414 192.055 42.692 192.055 42.2414C192.055 41.7908 193.011 42.2414 193.011 41.7908C193.011 41.3402 192.055 39.9885 191.548 41.3402C193.968 42.6919 186.821 43.5931 188.735 42.2414C187.778 43.1425 186.821 42.2414 186.315 42.692V43.5932C184.908 44.0437 183.951 43.1426 182.545 43.1426C181.138 43.1426 181.082 44.0436 180.631 44.0436C180.181 44.0436 179.675 43.1426 179.168 43.1426C178.662 43.1426 178.718 44.0436 178.212 44.0436C176.863 44.6159 175.374 44.7728 173.935 44.4942C174.892 44.9448 176.355 43.5932 174.892 43.5932C173.935 44.4943 170.615 42.2413 171.572 44.0436C170.615 44.0436 170.615 43.1426 170.165 43.1426C170.165 44.4943 168.252 43.5931 167.745 44.4942C168.252 44.4942 168.252 44.4942 167.745 44.9448C167.295 44.0437 167.295 42.692 165.382 43.1426C166.339 44.9449 163.975 44.0437 162.062 44.9448C163.019 43.1425 159.192 41.7908 161.555 44.0436C160.655 45.3954 160.149 44.9448 158.742 45.3954C158.235 44.4943 158.235 43.5931 157.279 43.1426C156.829 44.0437 154.915 43.1425 153.002 44.9448C152.552 44.0437 153.509 44.0437 153.509 43.1426C153.002 43.5931 151.089 43.5931 150.639 44.9448C151.595 44.9448 152.046 44.0437 152.552 45.3954C150.639 44.9448 149.682 44.9448 148.726 44.0436C149.682 45.8459 144.899 45.3954 144.449 44.9448C145.406 44.4942 146.812 45.3954 146.812 44.4942C146.812 43.5931 143.492 41.3403 143.999 42.692C144.899 42.692 144.899 43.5931 144.899 44.4942C143.999 44.0437 143.999 45.3954 143.042 45.3954C143.492 43.5931 141.579 44.4943 141.129 43.1426C142.086 42.692 142.536 43.5931 142.536 43.1426C141.129 41.7908 140.172 44.0436 138.765 44.0436C138.765 43.5931 138.765 42.692 138.259 42.692C136.852 43.5931 138.765 44.0437 139.666 44.9448C139.216 44.9448 139.216 44.9448 139.216 45.3954C137.809 44.0437 136.852 43.5931 135.389 44.9448C134.939 42.6919 132.576 44.0437 131.619 44.9448C132.576 43.5931 131.113 43.1426 132.576 42.692C130.156 43.1426 130.156 42.6919 131.619 44.0436C128.749 44.9448 127.793 43.5931 126.386 42.692C126.836 42.692 127.342 42.692 127.342 42.2414C124.923 41.3402 126.386 44.0437 125.429 44.4942C125.429 42.2414 124.923 43.5931 123.966 43.1426C123.966 42.692 123.966 41.7908 123.516 41.7908C123.066 41.7908 122.109 40.8897 122.109 41.7908C123.009 41.7908 122.559 42.692 123.01 43.1426C122.559 43.5931 119.239 43.1425 121.152 42.2414C119.689 41.7908 120.196 42.692 119.239 43.1426C119.239 40.8897 117.326 42.692 116.37 41.7908C115.919 44.0437 118.283 41.3403 118.733 42.692C117.326 42.692 115.919 44.4943 115.413 43.5932C115.657 43.5936 115.892 43.5004 116.07 43.3328C116.248 43.1653 116.355 42.936 116.37 42.692C113.5 42.692 113.5 42.2413 110.742 44.0436C110.742 41.7908 108.829 44.0436 107.872 44.0436C107.92 43.7021 108.078 43.3856 108.323 43.1426C106.916 42.692 106.409 43.5931 105.959 42.692C105.509 41.7908 103.596 43.1426 103.596 43.1426C102.639 42.692 102.639 41.7908 101.683 41.3402C100.726 42.2414 99.7694 43.5931 98.3626 42.692C98.8128 44.9449 96.8995 42.6919 96.8995 44.4942C96.8995 43.5931 96.4494 44.0437 95.9429 43.5932C95.0426 44.0437 92.6229 44.4943 93.1294 42.692C91.6663 43.5931 90.7096 42.6919 91.6663 44.0436H90.991C90.3158 44.0436 89.7531 43.0299 89.7531 44.0436C90.2595 44.0436 90.2595 44.4942 89.7531 44.4942C89.3029 43.5931 89.3029 42.692 88.3463 42.692C87.3896 43.5931 86.433 43.5931 85.9828 42.692C86.433 44.4943 84.0696 42.692 84.0696 42.2414C83.6194 44.0437 81.7062 42.6919 80.7496 44.4942C81.1998 43.1425 79.7931 43.1425 79.2866 42.2414C79.2866 44.9448 76.9231 42.6919 75.9665 44.4942C75.6835 44.1598 75.2946 43.9326 74.8645 43.8506C74.4344 43.7686 73.9892 43.8367 73.6032 44.0436C74.0533 43.5931 75.01 42.2414 73.6032 42.2414C73.0967 44.9448 70.2831 42.692 69.3265 41.7908C66.9631 43.5931 65.0498 41.7908 64.5434 44.9448C65.0498 41.7908 60.2668 44.4943 62.1801 42.2414C62.0957 42.1357 61.9886 42.0504 61.8668 41.9918C61.7451 41.9332 61.6118 41.9028 61.4767 41.9028C61.3416 41.9028 61.2081 41.9332 61.0863 41.9918C60.9646 42.0504 60.8576 42.1357 60.7733 42.2414C61.2235 42.2414 61.2235 43.1426 60.7733 43.1426C59.6545 42.8298 58.4837 42.7484 57.3324 42.9033C56.1811 43.0582 55.0735 43.4462 54.077 44.0436C55.54 42.2413 53.6267 43.5932 53.1203 43.5932C52.6138 43.5932 51.7135 39.9885 51.7135 41.7908C52.6701 42.2414 49.3502 43.5931 49.3502 41.7908C48.8437 43.1425 49.3502 43.5931 48.8438 44.0436C48.3936 43.1425 47.8871 43.5931 47.437 44.0436C47.8871 43.1425 46.4803 41.7908 46.4803 43.1426C47.4369 43.1426 46.4803 44.9448 45.9739 44.9448C45.0172 43.1425 45.5238 43.1426 45.5238 42.692C43.6105 43.1426 45.9739 44.0437 44.117 44.4942C43.1604 43.1425 43.1603 43.5931 42.6539 44.4942C41.6973 41.7908 40.7407 44.4943 39.3339 42.2414C38.8837 42.692 38.8836 44.0437 38.3772 44.4942C35.5073 43.1425 34.1005 45.3954 32.75 44.4942C33.7066 43.5931 32.2437 43.1425 31.7935 42.2414C31.7935 43.5931 28.9236 41.7908 28.9236 43.1426C30.3304 43.1426 29.3738 44.4942 28.4172 44.4942V43.5932C28.9236 43.5932 28.9236 44.0437 28.9236 43.5932C27.967 43.5932 26.5601 41.7908 26.5601 42.692C27.0103 42.692 27.5168 43.1425 27.5168 44.0436C25.0972 42.6919 23.1839 43.5931 21.3269 42.692C21.7771 42.692 21.7772 43.1426 21.7772 43.5932C20.8206 42.692 21.327 43.5931 20.3704 44.0436C19.4138 44.4942 19.8638 42.2414 18.457 42.692C18.9072 44.4943 19.4136 45.3954 17.0502 45.3954C16.5438 44.4943 16.5439 43.1426 15.5873 43.5932C14.6307 44.0437 16.0937 44.4942 15.5873 44.9448C15.5873 44.0437 14.1805 44.4942 14.1805 44.0436C14.1805 43.5931 15.5872 42.692 14.6306 42.692C12.7174 43.5931 9.39737 44.4943 9.00347 42.692C9.45364 43.9874 7.7093 41.5092 7.14659 42.9736C7.99066 42.9736 8.77841 42.9735 8.32824 43.8747C7.88882 43.6393 7.48993 43.3352 7.14659 42.9736C6.8583 42.6676 6.51462 42.4191 6.13374 42.2414C6.58391 44.4943 4.22036 41.3403 4.22036 43.1426C4.22036 43.1426 5.17705 43.1426 5.17705 43.5932C4.22044 43.5932 3.77026 43.5931 3.77026 44.0436C3.26382 41.7908 3.26374 44.4942 2.81357 44.4942C2.3634 44.4942 1.85708 43.5932 1.35063 43.5932C1.35063 44.9449 0.900343 43.5931 0 44.0436V4.05518C0.448539 4.00092 0.902093 4.00092 1.35063 4.05518C1.35063 3.60461 0.450289 3.15401 1.35063 3.15401C2.30725 5.01263 6.97772 2.70344 8.49705 3.15401L9.45374 3.6046C11.8171 4.05517 14.2368 3.15404 16.1501 4.50577C17.5568 5.01266 16.6002 3.6046 18.0069 3.6046C22.3398 4.05517 23.2403 3.60461 27.5732 4.05518C27.607 3.70951 27.7673 3.38854 28.0233 3.15401C28.4734 5.40688 29.9366 2.25288 30.3867 4.05518C33.2566 1.80231 36.5765 5.01262 39.4464 2.70343C38.9962 3.154 39.8966 4.50573 39.8966 3.15401C41.8098 3.60459 38.9963 5.01264 39.8966 5.01264C40.8532 3.15402 43.7231 5.01262 41.8098 2.70343C42.7664 3.154 44.2294 3.15399 44.6796 2.25284C44.2294 4.50571 45.6362 2.25287 46.0863 3.6046C45.6362 4.05517 45.1298 4.50577 45.6362 4.50577C46.1427 4.50577 50.8695 6.36438 48.5061 4.05518C49.9129 4.05518 49.9128 5.9138 50.8694 4.05518C48.9562 4.50576 49.9129 2.70345 48.9562 3.6046C49.4627 2.70345 47.5495 2.25284 48.9562 2.25284C50.363 2.25284 49.4628 1.80229 49.9129 3.15401C53.5569 2.70617 57.2418 2.70617 60.8858 3.15401C60.8858 2.70344 59.9292 2.70341 60.3793 2.25284C61.3598 2.08326 62.3646 2.11573 63.3322 2.34815C64.2997 2.58057 65.2097 3.00809 66.0065 3.6046C65.5 4.05517 64.5434 2.25286 64.0933 3.15401C66.4567 4.05516 65.05 5.40694 66.4568 5.40694C66.3926 5.40643 66.3289 5.41962 66.2703 5.4457C66.2116 5.47178 66.1594 5.5101 66.1167 5.55811C66.0741 5.60611 66.0421 5.66271 66.0231 5.72406C66.0041 5.7854 65.9985 5.85009 66.0065 5.91381C68.3699 6.81496 66.0066 5.01265 66.4568 4.05518L67.4133 4.50577C68.3699 4.50577 66.9632 2.70343 66.9632 2.70343C67.8207 2.19361 68.7828 1.88545 69.7767 1.80225C69.3266 3.60455 70.7333 3.60461 70.7333 4.05518C70.7328 3.99096 70.746 3.92738 70.7721 3.86869C70.7981 3.81 70.8364 3.75753 70.8844 3.71486C70.9324 3.67219 70.9888 3.64029 71.0501 3.62127C71.1114 3.60225 71.176 3.59657 71.2397 3.6046C71.2397 4.05517 71.2398 4.50575 71.69 3.6046C70.7333 3.6046 70.2832 3.154 70.2832 2.70343C71.2398 2.70343 70.7333 1.35176 71.69 1.35176C71.69 1.80233 72.1964 1.80228 72.1964 2.70343C71.8352 2.66799 71.4972 2.50882 71.2397 2.25284C71.6899 3.15399 72.1964 4.50575 73.6032 3.6046C74.0533 2.25287 71.6899 3.60456 72.6465 2.25284H75.01C73.6032 2.25284 76.4729 2.25283 75.9665 1.80225C76.4729 1.80225 76.4731 2.25286 76.4731 3.15401C79.5048 1.465 83.0614 0.982287 86.4331 1.80225C85.9829 1.80225 85.9829 2.25285 85.0263 2.70343C85.4764 0.901126 84.0697 2.7034 83.6195 1.80225C83.6277 2.15049 83.7127 2.49268 83.8683 2.80423C84.024 3.11579 84.2465 3.38906 84.5198 3.6046C85.0263 2.70345 85.4763 3.15402 85.9828 3.6046C86.433 2.25287 87.3897 3.60461 87.8962 4.05518C88.3463 3.60461 88.8527 2.70344 90.2595 3.15401C91.2161 4.50573 88.3463 4.50575 89.7531 5.01264C89.7531 4.50575 90.7097 5.01264 91.2162 5.01264C92.1728 3.6046 93.5795 2.25289 93.5795 0.90117C93.5795 1.80232 94.5361 1.80225 95.4927 1.80225C96.4493 3.15398 96.4493 5.91383 98.3626 6.81498C97.406 4.50579 99.7695 3.60456 97.4061 2.25284C98.3627 2.25284 99.3192 2.25286 99.7694 3.15401C99.8321 3.091 99.9066 3.04099 99.9887 3.00688C100.071 2.97277 100.159 2.95523 100.248 2.95523C100.336 2.95523 100.425 2.97277 100.507 3.00688C100.589 3.04099 100.663 3.091 100.726 3.15401C100.726 2.25286 100.726 1.80233 100.276 1.35176C101.683 0.901181 102.133 0.450606 102.639 1.35176C103.146 2.25291 101.683 1.80228 101.683 2.70343C102.639 3.154 103.089 0.901115 103.596 2.25284C103.089 2.25284 102.133 3.6046 103.089 3.6046C103.089 2.25287 104.552 2.70341 105.003 2.25284C104.552 1.80227 104.046 1.80233 104.046 1.35176C106.709 0.775207 109.424 0.473227 112.149 0.450585C112.149 0.90116 110.236 1.80227 111.643 2.25284C113.556 -0.450609 113.556 2.70344 110.742 3.15401C112.149 4.05516 112.599 2.25286 113.556 3.15401C112.599 3.60459 111.192 4.50579 112.599 5.40694C112.57 5.15754 112.601 4.90477 112.689 4.66965C112.777 4.43454 112.92 4.22386 113.106 4.05518C113.139 4.48828 113.07 4.92317 112.904 5.32443C112.737 5.72569 112.479 6.082 112.149 6.3644C112.149 5.40693 110.742 6.36441 110.742 6.81498C112.149 6.36441 111.643 6.36441 113.106 6.81498C113.106 5.91383 113.556 5.91383 114.062 5.40694C114.569 4.90004 114.062 4.39312 114.062 3.88622C113.443 4.73105 112.43 1.52066 115.3 2.25284C115.3 2.70341 114.85 2.70344 114.85 3.15401C115.807 3.15401 115.807 1.80225 116.763 1.80225C115.807 1.35168 114.344 2.25291 114.344 1.35176C115.3 0.901181 113.893 0.450585 114.85 0.450585C115.3 1.35173 116.763 1.35168 118.17 1.80225C118.248 1.33086 118.4 0.87478 118.62 0.450585C119.577 1.35173 120.083 2.06458e-05 120.083 0.90117C118.17 2.25289 122.447 2.70345 119.127 3.6046C120.083 4.05517 121.04 4.50579 121.04 5.40694C120.083 5.40694 120.083 5.91382 120.534 6.3644C119.577 5.91382 119.577 6.81496 118.62 5.91381C118.587 6.33867 118.656 6.76531 118.823 7.15754C118.989 7.54977 119.248 7.89595 119.577 8.16665C123.403 6.36435 119.577 6.81494 122.897 5.01264C121.997 4.50575 122.447 5.01264 121.04 5.01264C119.577 3.15402 121.997 3.15406 120.083 1.35176C120.534 1.35176 121.04 1.80233 121.04 1.35176C120.083 0.901181 122.897 -0.450544 122.447 1.35176C121.997 1.35176 121.997 4.05515 122.447 2.70343C122.447 0.450551 123.854 3.60456 123.854 2.25284C122.897 1.80227 123.854 1.80233 124.36 1.35176C123.403 1.35176 122.897 1.35173 122.897 0.450585C123.806 0.814207 124.787 0.962739 125.763 0.884584C126.739 0.806429 127.684 0.503688 128.524 0C128.524 0.450575 128.974 0.450595 129.481 0.90117L129.649 0.788503ZM107.141 1.68967C107.141 1.2391 107.141 1.23909 106.691 1.23909C106.184 2.59081 108.098 1.68969 108.098 2.59084C107.647 1.23912 109.561 0.788503 108.098 0.788503C108.098 1.23908 107.647 1.2391 107.141 1.68967ZM125.711 3.04134C126.217 2.14019 126.217 1.23909 125.26 1.23909C125.124 1.36962 125.025 1.53383 124.973 1.71503C124.921 1.89622 124.918 2.08795 124.963 2.27089C125.009 2.45383 125.102 2.62141 125.233 2.75671C125.365 2.89201 125.529 2.99021 125.711 3.04134ZM124.304 4.3931C124.754 3.94252 125.711 2.59084 124.304 2.59084C124.304 3.49199 123.797 3.94252 124.304 4.3931ZM104.327 3.04134C105.284 3.94249 106.184 2.59084 105.284 2.59084C105.284 3.04142 104.327 2.59077 104.327 3.04134ZM231.388 3.94251C231.388 3.94251 231.839 2.59077 231.839 3.04134C230.882 1.68962 230.882 4.39309 231.388 3.94251ZM80.4683 2.87238C80.4683 2.53445 80.4683 2.87238 80.4683 2.87238V2.87238ZM80.9747 3.49193H78.6112V5.80114C80.5245 6.25172 80.0181 4.39309 80.9747 3.94251C80.9747 4.89998 82.888 4.89998 81.9314 3.94251C81.4812 3.94251 81.4811 3.9425 81.4811 3.49193C81.4811 3.04135 81.9313 3.04134 81.4811 3.04134C81.3318 3.14304 81.1553 3.1975 80.9747 3.1975C80.7941 3.1975 80.6176 3.14304 80.4683 3.04134L80.9747 3.66089V3.49193ZM200.101 3.04134H200.439H200.101ZM145.237 3.04134C145.237 4.39307 143.83 3.49192 143.323 3.04134C143.323 3.94249 141.917 5.29427 142.873 5.29427C143.83 5.29427 143.324 4.39309 143.83 3.94251C145.237 4.89998 143.324 6.25174 144.28 6.70231C145.237 7.15289 145.687 6.7023 144.73 6.25173C144.671 6.25173 144.613 6.24008 144.558 6.21744C144.503 6.1948 144.454 6.16157 144.412 6.11973C144.37 6.07789 144.337 6.02821 144.314 5.97354C144.292 5.91887 144.28 5.86031 144.28 5.80114C144.73 5.80114 145.237 5.29427 146.193 5.29427C146.193 4.39312 146.193 3.49192 145.237 3.04134ZM114.006 3.77355C114.173 3.56447 114.272 3.30864 114.287 3.04134C114.295 3.17635 114.274 3.31141 114.225 3.43761C114.177 3.56381 114.102 3.67831 114.006 3.77355ZM201.846 3.04134C200.889 3.04134 200.945 5.29424 201.396 3.94251C201.488 3.61655 201.641 3.31084 201.846 3.04134ZM74.3347 3.49193C75.2913 3.49193 76.698 4.39308 75.2912 3.49193C75.7414 2.59078 72.8717 3.49193 74.3347 3.49193ZM232.345 5.29427C231.838 3.94254 233.752 4.39308 233.752 3.49193C231.838 3.04135 230.882 5.29427 232.345 5.29427ZM166.17 3.49193C164.763 5.29423 168.083 7.15289 167.126 5.29427C166.17 7.15289 167.126 3.49193 166.17 3.49193ZM149.288 4.3931C149.288 4.32888 149.301 4.2653 149.327 4.20661C149.353 4.14792 149.391 4.09544 149.439 4.05277C149.487 4.01011 149.544 3.9782 149.605 3.95919C149.666 3.94017 149.731 3.93448 149.795 3.94251C147.882 5.80113 151.652 3.94252 151.202 5.80114C150.245 5.80114 150.245 5.29426 150.245 6.25173C152.158 6.25173 151.202 5.29424 151.202 3.94251C151.652 3.94251 152.158 3.9425 151.652 3.49193C151.201 4.39308 147.881 3.04137 149.288 4.3931ZM84.0696 4.3931C85.0262 4.89999 87.896 4.39308 85.9828 3.49193C86.4892 4.89997 84.0696 3.49195 84.0696 4.3931ZM139.272 3.94251C140.735 4.39309 138.822 4.90002 138.822 5.29427C140.229 5.80117 140.229 4.39309 140.735 3.94251C140.229 4.39309 137.865 3.04136 139.272 3.94251ZM163.581 3.94251C163.581 3.49194 163.581 3.60458 163.581 3.94251V3.94251ZM135.445 3.94251C135.445 3.94251 138.203 5.23792 135.727 3.94251H135.445ZM268.978 3.94251C268.021 6.25171 270.384 5.80113 268.978 3.94251V3.94251ZM83.2819 3.94251C82.7192 3.54826 85.4201 6.75865 83.732 4.33681L83.2819 3.94251ZM160.824 4.33681L161.274 4.84368C160.824 4.84368 160.374 4.33679 159.867 4.84368C160.374 5.23794 160.824 5.74479 161.78 5.23789C161.78 4.84364 160.824 3.43566 160.824 4.33681ZM490.124 5.23789C491.081 3.43559 488.268 4.33674 490.124 5.23789V5.23789ZM278.825 4.33681C277.418 6.19543 280.288 5.74485 278.825 4.33681V4.33681ZM261.944 5.74485C262.9 6.646 264.363 4.8437 262.9 5.74485C262.9 3.43566 261.944 5.74485 261.944 5.74485ZM3.54513 4.84368C2.13834 5.23794 2.13846 4.84368 0.675402 4.84368C0.22523 7.09656 3.09496 5.74483 3.54513 4.84368ZM513.702 6.64594C514.546 6.64594 514.771 7.09651 514.715 7.43444C514.659 7.77237 515.165 6.53329 515.615 5.23789C514.659 5.23789 514.659 6.19536 513.702 6.64594ZM402.848 5.74485C402.848 6.42072 402.848 6.08278 402.848 5.74485V5.74485ZM214.845 7.09652C215.52 8.3356 216.42 6.42072 216.758 5.74485C216.049 6.08433 215.402 6.54128 214.845 7.09652ZM237.297 6.42069C238.253 6.42069 237.803 7.77244 238.254 7.77244C238.704 7.77244 239.21 7.32185 239.21 6.87127C237.803 7.32185 237.803 5.06896 237.297 6.42069ZM487.142 6.87127C487.649 7.77242 489.055 8.22297 489.055 9.5747C488.605 9.5747 488.605 10.0253 489.055 10.0253C489.505 10.0253 490.012 9.57471 490.462 10.0253C490.462 10.0895 490.475 10.1531 490.501 10.2118C490.527 10.2705 490.565 10.3229 490.613 10.3656C490.661 10.4083 490.718 10.4402 490.779 10.4592C490.84 10.4782 490.905 10.4839 490.969 10.4759C490.969 7.77242 489.506 7.32184 491.419 6.42069C489.506 6.87126 487.649 5.06897 487.142 6.87127ZM126.442 6.87127C126.442 6.87127 127.342 6.87126 127.342 6.42069C127.342 5.97011 126.273 6.4207 126.442 6.87127ZM75.5164 6.42069C75.5164 8.22299 76.9231 7.77242 77.4296 6.87127C76.473 6.87127 75.9666 6.87126 75.5164 6.42069ZM127.399 6.42069C129.818 7.54713 128.524 6.42069 127.399 6.42069V6.42069ZM66.0065 7.32186C66.4567 8.67358 65.5 5.06898 66.0065 7.32186V7.32186ZM496.652 7.32186C496.799 7.44235 496.972 7.52733 497.157 7.57023C497.342 7.61312 497.535 7.61276 497.72 7.5692C497.905 7.52563 498.077 7.43997 498.224 7.31894C498.37 7.19791 498.487 7.04476 498.565 6.87127C498.115 6.4207 496.652 6.42071 496.652 7.32186ZM412.245 7.77244C413.201 6.42072 410.388 6.42072 412.245 7.77244V7.77244ZM499.859 7.77244C499.859 7.77244 499.353 7.32187 499.353 7.77244C501.266 9.12417 498.396 8.22298 498.396 10.0253C499.353 10.0253 500.76 12.7288 500.31 11.377C499.859 10.0253 499.353 10.0253 499.353 9.5747C499.353 9.12412 499.859 9.12411 500.31 9.12411C500.31 10.4758 503.179 8.67353 501.716 8.67353C501.716 8.79303 501.669 8.9077 501.585 8.9922C501.5 9.07669 501.386 9.12411 501.266 9.12411C500.76 7.77239 499.859 8.22301 501.266 7.32186C499.859 6.42071 500.76 7.32187 499.859 7.77244ZM390.862 7.77244C390.862 7.77244 390.862 7.32187 390.355 7.77244C391.818 8.67359 393.225 5.97014 390.862 7.77244ZM421.417 7.09652C420.742 7.09652 419.673 8.56096 421.811 8.22303C421.836 8.01762 421.813 7.80918 421.745 7.61388C421.677 7.41859 421.564 7.24158 421.417 7.09652ZM515.053 7.77244C515.053 8.50463 515.053 8.1667 515.053 7.77244V7.77244ZM510.326 9.12411C512.183 8.22296 509.819 6.42066 510.326 9.12411V9.12411ZM486.523 7.77244C486.017 8.67359 487.48 9.57468 487.93 8.67353C486.973 8.67353 486.973 8.22302 486.523 7.77244ZM463.677 10.0253C463.677 9.12413 465.084 9.57469 465.084 9.12411C463.171 9.57469 463.17 8.22302 462.72 7.77244C462.72 8.67359 462.72 10.0253 463.677 10.0253ZM493.163 9.80003C493.67 6.64601 491.25 7.99774 493.163 9.80003V9.80003ZM516.966 7.99769C516.516 7.99769 516.516 10.2506 516.966 8.89886C517.416 7.54714 518.879 9.34943 517.416 8.44828C517.416 7.9977 517.416 7.99769 516.966 7.99769ZM506.049 9.80003C506.049 8.89888 506.049 8.44827 506.499 7.99769C505.093 7.99769 505.093 9.34946 506.049 9.80003ZM495.076 8.44828C495.527 8.44828 495.527 8.44829 495.527 8.89886C495.527 9.34944 494.626 9.80003 495.076 9.80003C495.527 9.80003 495.076 9.34945 495.527 9.34945C495.977 9.34945 495.527 9.80003 496.033 9.80003C496.483 8.89888 495.527 7.54713 495.076 8.44828ZM512.689 10.7011C512.689 9.79997 512.183 9.34945 511.733 9.34945C511.283 9.34945 511.733 10.7011 512.689 10.7011ZM486.017 12.5035C486.017 11.6023 486.973 11.1517 487.48 10.7011C486.523 10.7011 486.973 9.34945 486.523 9.34945C486.523 10.2506 485.06 12.0529 486.017 12.5035ZM497.271 11.1517C496.765 11.1517 495.358 10.2505 494.908 10.7011C495.358 10.7011 495.358 11.1517 494.908 11.6023C497.721 11.1517 498.678 11.6023 497.721 13.8552C499.634 13.8552 498.228 11.1517 499.634 11.1517C497.271 11.6023 498.678 9.80003 497.721 9.80003C498.228 9.80003 497.271 11.1517 497.271 11.1517ZM491.644 11.1517C491.644 11.1517 492.15 11.1517 491.644 11.6023C492.15 11.6023 492.6 11.6023 492.6 11.1517C492.481 11.1517 492.367 11.1043 492.282 11.0198C492.198 10.9353 492.15 10.8206 492.15 10.7011C492.6 10.7011 493.107 10.2505 492.15 10.2505C492.15 10.7011 491.644 10.7011 491.644 11.1517ZM471.217 10.2505C470.711 12.954 472.624 11.1517 471.217 10.2505V10.2505ZM477.857 12.5035C477.857 12.0529 477.857 12.0529 478.364 12.0529C478.87 12.0529 478.364 12.5034 478.814 12.0529C477.407 12.0529 479.771 10.7011 478.364 10.7011C478.364 11.1517 476.451 12.0529 477.857 12.5035ZM484.329 10.7011C482.19 10.7011 483.147 12.0529 484.329 11.6023C483.259 11.9402 483.822 10.9827 484.329 10.7011ZM479.771 13.4046C478.814 12.9541 478.364 12.9541 477.857 13.4046C478.814 13.4046 477.407 13.8552 478.364 13.8552C478.364 13.4046 478.814 13.4046 479.264 13.4046C479.714 13.4046 479.264 13.8552 480.221 13.8552C479.771 12.5035 479.771 11.6023 479.264 11.1517C478.814 12.0529 479.264 12.5035 479.771 13.4046ZM465.478 13.8552C465.55 13.3144 465.454 12.7644 465.202 12.2804C464.95 11.7965 464.555 11.4023 464.071 11.1517C463.114 12.0529 464.071 13.8552 465.478 13.8552ZM321.31 11.6023C320.804 12.0529 321.76 11.6023 321.76 11.6023C323.674 13.4046 321.76 10.2506 321.31 11.6023ZM489.731 11.6023C489.731 11.6023 490.237 11.6023 490.237 12.0529C488.83 12.0529 489.731 13.8552 490.237 13.8552C490.601 13.8483 490.96 13.7644 491.29 13.6091C491.62 13.4538 491.913 13.2306 492.15 12.954C492.15 12.5035 491.644 12.954 491.644 12.5035C492.601 11.6023 489.731 11.1517 489.731 11.6023ZM472.849 13.8552C474.256 13.4046 474.256 12.5034 474.762 11.6023C472.399 11.1517 473.806 12.9541 472.849 13.8552ZM480.952 12.0529C480.952 13.4046 482.359 13.4046 482.866 13.4046C482.796 13.3522 482.739 13.2841 482.7 13.2059C482.661 13.1277 482.64 13.0415 482.64 12.954C482.64 12.8666 482.661 12.7804 482.7 12.7022C482.739 12.6239 482.796 12.5559 482.866 12.5035C481.909 12.5035 481.909 11.6023 481.402 11.6023C481.402 11.7218 481.355 11.8364 481.271 11.9209C481.186 12.0054 481.072 12.0529 480.952 12.0529ZM466.659 13.4046C466.209 12.0529 468.066 14.3058 468.066 12.954C466.659 12.0529 469.023 12.0529 469.529 12.954C469.529 12.0529 469.979 12.5034 469.979 12.0529C469.023 11.6023 468.573 12.0529 467.166 11.6023C467.616 12.5034 464.746 12.5035 466.659 13.4046ZM367.678 12.0529C366.721 12.5034 366.721 12.9541 365.764 13.4046C365.314 12.9541 365.765 12.5035 365.314 12.5035C364.864 12.5035 365.314 14.3058 366.721 13.8552C366.271 13.4046 368.634 11.1517 367.678 12.0529ZM463.339 12.5035C464.746 16.1081 462.383 9.80001 463.339 12.5035V12.5035ZM456.699 12.5035C456.758 12.5035 456.817 12.5151 456.872 12.5378C456.926 12.5604 456.976 12.5935 457.018 12.6354C457.059 12.6772 457.092 12.7269 457.115 12.7816C457.138 12.8362 457.149 12.8949 457.149 12.954C456.699 12.954 456.193 12.9541 456.193 13.4046C456.193 13.8552 456.193 14.3058 457.6 13.8552C457.6 12.9541 456.699 11.1517 456.699 12.5035ZM492.826 13.8552C493.332 13.8552 493.332 13.4046 493.782 13.8552C493.782 12.9541 494.289 12.0529 493.332 12.0529C492.375 12.0529 493.332 13.4046 492.826 13.8552ZM360.531 13.4046C361.488 13.4046 360.531 11.6023 360.081 12.0529C359.631 12.5034 360.531 12.9541 360.531 13.4046ZM506.162 13.4046C507.569 13.8552 507.118 14.3057 506.668 15.2069C508.075 15.6575 508.075 12.5035 507.569 12.5035C507.062 12.5035 506.162 12.5035 506.162 13.4046ZM487.142 12.5035C486.185 12.5035 485.229 15.6574 486.186 14.3057C485.679 13.4046 488.549 14.7564 488.099 13.8552C487.142 13.8552 487.592 12.5035 487.142 12.5035ZM362.445 13.8552C362.895 13.4046 363.401 13.8552 363.851 13.8552C363.401 12.9541 364.808 12.5035 363.851 12.5035C363.851 12.954 362.445 12.5035 362.445 13.8552ZM354.848 13.8552C354.848 12.9541 354.341 12.5035 353.891 12.5035C353.441 12.5035 353.891 13.8552 354.848 13.8552ZM322.942 13.8552C323.899 13.8552 324.349 13.4046 324.349 12.954C324.349 12.5035 323.392 12.5035 322.942 12.5035V13.8552ZM476.169 13.8552C476.676 13.8552 476.169 15.2069 477.126 15.2069C477.092 14.9572 477.12 14.703 477.209 14.467C477.297 14.2311 477.443 14.0209 477.632 13.8552C474.762 14.3058 478.589 12.954 477.126 12.954C476.885 12.966 476.657 13.0632 476.482 13.2284C476.307 13.3935 476.196 13.6157 476.169 13.8552ZM469.304 13.2357C469.304 13.2357 469.304 15.5449 469.304 13.8552C469.304 13.292 469.304 13.123 469.304 13.2357ZM265.376 14.3057C266.333 12.954 263.463 13.4046 265.376 14.3057V14.3057ZM491.419 13.8552C490.912 14.3058 490.912 14.7563 490.462 14.3057C489.956 15.2069 491.869 16.108 491.869 15.2069C491.419 15.2069 490.912 15.2069 491.419 14.7563C491.925 14.3057 491.869 14.3058 491.419 13.8552ZM465.703 13.8552C464.296 14.869 463.677 13.8552 462.439 13.8552H460.976C461.314 14.869 461.426 14.869 460.976 15.2069C462.889 15.6575 464.746 15.6575 465.703 13.8552ZM325.305 14.7563H326.768V13.8552H325.812C325.812 14.3058 325.305 14.3057 325.305 14.7563ZM198.244 16.1081C198.221 15.8934 198.241 15.6761 198.302 15.469C198.363 15.2619 198.464 15.0689 198.6 14.9013C198.736 14.7337 198.904 14.5948 199.094 14.4925C199.284 14.3903 199.493 14.3268 199.708 14.3057C200.158 15.2069 199.707 15.6575 200.158 15.6575C200.608 15.6575 200.608 13.4046 199.708 13.8552C198.807 14.3058 196.838 15.2069 198.244 16.1081ZM196.838 15.2069C197.288 16.108 197.794 13.4046 196.838 13.8552C195.881 14.3058 196.838 15.2069 196.838 15.2069ZM208.092 14.3057C205.729 15.2069 207.135 17.0092 208.092 14.3057V14.3057ZM467.897 16.5586C469.36 17.0092 468.404 15.2069 467.897 14.7563C467.897 16.108 468.404 15.6575 467.897 16.5586ZM479.883 14.9816C478.251 14.9816 479.545 16.3897 480.783 14.9816H479.883ZM464.577 14.9816C464.127 15.8828 465.534 17.2345 466.04 16.3333C465.084 16.7839 465.534 14.9816 464.577 14.9816ZM412.695 15.4322C414.608 15.8828 415.115 15.4322 414.158 14.9816C414.158 14.9816 411.795 15.4322 412.695 15.4322ZM460.301 15.4322C462.664 16.3334 460.301 18.1357 460.807 19.0368C460.807 18.5862 461.257 18.5862 461.764 19.0368C461.764 17.2345 463.171 15.8828 460.807 14.9816L460.301 15.4322ZM472.68 15.4322C474.087 17.6851 474.087 14.0805 472.68 15.4322V15.4322ZM209.499 15.8827C211.862 14.9816 208.092 14.9816 209.499 15.8827V15.8827ZM463.621 16.7839L464.127 15.4322C463.17 14.5311 462.664 16.7839 463.621 16.7839ZM506.499 16.3333C507.4 17.685 507.906 15.8828 506.95 15.4322C506.95 15.8828 506.499 15.8827 506.499 16.3333ZM486.973 16.7839H487.649C488.324 16.7839 488.887 17.7977 488.887 16.7839C487.93 16.7839 488.887 16.3334 488.887 15.4322C487.423 15.4322 487.423 16.3333 486.973 16.7839ZM398.908 16.7839C398.908 16.3333 398.909 15.8827 398.458 15.8827C398.458 17.2344 398.458 19.0368 399.865 19.0368C400.372 17.6851 398.908 18.1356 398.908 17.2345H399.527C400.09 17.5161 400.484 18.2483 400.822 17.2345C399.415 17.2345 401.272 16.7839 400.822 15.4322C398.908 14.9816 399.865 16.7839 398.908 16.7839ZM519.329 15.8827C520.736 19.0367 518.823 14.531 519.329 15.8827V15.8827ZM450.341 17.6851C451.241 17.2345 452.704 17.685 452.704 16.3333C451.241 16.7839 450.791 15.8827 449.834 15.8827C449.834 16.7839 450.341 16.7839 450.341 17.6851ZM397.108 17.6851C397.108 17.5656 397.155 17.451 397.24 17.3665C397.324 17.282 397.439 17.2345 397.558 17.2345V16.3333C396.151 15.8827 396.151 18.1356 397.108 17.6851ZM263.351 17.2345C263.857 18.5862 264.814 16.7839 263.857 16.3333C263.857 16.7839 263.351 16.7839 263.351 17.2345ZM459.457 17.2345C459.457 17.2345 459.907 18.1356 459.907 17.2345C459.907 16.3333 457.994 16.3333 459.457 17.2345ZM3.03871 17.2345C2.58854 16.5586 2.70108 16.8965 3.03871 17.2345V17.2345ZM517.472 17.2345C516.066 17.2345 520.342 17.6851 517.472 17.2345V17.2345ZM470.88 19.0368C471.836 19.0368 471.836 19.0368 472.287 19.4874C472.793 19.0368 473.243 17.2345 472.287 17.2345C472.287 18.1356 471.33 18.1357 470.88 19.0368ZM204.378 19.4874C204.378 19.0368 204.828 19.0368 205.335 19.0368C205.841 19.0368 205.785 19.4874 205.785 19.0368C204.378 18.5862 207.192 17.6851 205.335 17.2345C205.785 18.5862 202.465 18.5863 204.378 19.4874ZM2.58861 19.9379C3.03878 19.9379 3.03878 20.3885 3.9954 20.3885C3.03878 19.0368 3.03876 19.9379 4.50182 18.1356C3.99538 18.1356 3.43261 17.7977 3.03871 17.3471C3.03871 18.6425 2.58861 19.0931 2.58861 19.9379ZM475.269 17.6851C474.312 17.2345 475.269 20.3885 475.269 18.5862C475.269 18.1357 476.226 16.7839 475.269 17.6851ZM457.656 18.1356C458.613 18.5862 457.149 19.4873 457.656 20.3885C458.106 20.3885 458.612 21.2896 458.612 20.3885C456.699 20.3885 459.569 19.0368 459.063 17.6851C458.106 18.1356 457.656 17.6851 457.656 18.1356ZM12.6611 19.9379C12.9228 19.9082 13.1879 19.9328 13.4397 20.0103C13.6914 20.0879 13.9244 20.2166 14.1242 20.3885C13.6177 19.0368 13.1677 18.1357 14.5745 19.4874C14.5745 19.0368 15.0808 19.0368 15.531 19.0368V17.6851C13.6177 17.6851 12.6611 18.1356 12.6611 19.9379ZM192.111 18.1356C193.067 18.1356 192.561 19.4874 193.518 19.0368C194.474 18.5862 192.111 17.2345 192.111 18.1356ZM507.231 19.4874C508.694 19.4874 508.694 19.0368 509.144 18.1356C508.188 18.5862 507.231 18.1357 507.231 19.4874ZM484.385 18.1356C482.978 19.9379 485.848 19.0368 484.385 18.1356V18.1356ZM193.18 19.9379C193.425 19.9632 193.673 19.9345 193.906 19.8537C194.139 19.7729 194.351 19.642 194.528 19.4702C194.705 19.2984 194.843 19.0899 194.93 18.8593C195.018 18.6288 195.055 18.3818 195.037 18.1356C193.63 18.1356 194.137 19.9379 193.18 19.9379ZM497.721 18.5862C498.678 19.0368 498.678 20.3885 499.634 20.3885C499.634 19.4873 499.634 18.5862 499.184 18.5862C499.184 19.938 497.721 17.2345 497.721 18.5862ZM7.76549 18.5862C6.47125 18.3046 7.76552 20.8391 8.49705 18.5862C8.25684 18.5266 8.00569 18.5266 7.76549 18.5862ZM196.5 20.6701C196.5 17.5161 194.587 18.8678 196.5 20.6701V20.6701ZM477.857 20.2195C477.857 19.769 478.364 19.3184 478.814 18.8679H477.407C477.407 19.3184 477.407 20.2195 477.857 20.2195ZM7.65301 21.5713C7.65301 20.2196 9.56622 21.5713 9.56622 21.5713C8.6096 20.2196 11.9296 20.2195 10.0726 19.3184C10.0726 19.7689 10.0727 19.7689 9.56622 19.7689C9.05977 19.7689 9.56629 18.8679 9.11612 18.8679C10.0727 20.6702 6.24622 20.6701 7.65301 21.5713ZM231.332 21.5713C231.839 19.3184 233.245 21.5713 232.795 22.0219C233.245 21.1207 233.752 21.1207 233.245 20.2195C232.289 20.6701 232.289 19.7689 231.332 19.7689C231.839 20.6701 228.969 21.5713 231.332 21.5713ZM215.632 22.0219C216.139 22.0219 216.139 22.0219 216.139 22.4725C216.139 22.923 217.095 22.4724 217.095 22.0219C217.095 21.5713 217.095 20.2195 215.632 19.7689C215.632 20.6701 216.589 21.1207 215.632 22.0219ZM26.2225 21.5713C27.1791 21.5713 27.1791 22.0219 28.1357 22.0219C28.1357 21.1207 28.1359 21.008 27.4043 21.008H26.7853C26.7853 21.008 26.7853 21.008 26.7853 20.6701C26.7853 20.3322 26.7853 19.7689 26.2788 19.7689V21.5713H26.2225ZM15.3058 21.5713C14.7994 20.6701 15.7561 20.6701 16.2625 20.2195C15.3059 18.8678 13.8428 21.1207 15.3058 21.5713ZM194.699 20.2195C194.699 20.6701 193.743 22.4724 194.699 21.5713C194.249 20.2196 196.106 22.4724 196.613 21.1207C195.149 21.5713 195.656 20.2195 194.699 20.2195ZM183.445 22.4725H184.852C183.951 21.1207 185.358 20.6701 183.951 20.2195C182.995 21.1207 185.358 21.5713 183.445 22.4725ZM189.635 22.0219C189.635 21.5713 189.185 21.5713 189.185 22.0219C190.085 23.3736 192.955 22.0218 191.548 20.6701C191.042 21.1207 191.042 22.0219 189.635 22.0219ZM35.4511 22.4725C35.4511 22.0219 35.451 22.0219 35.9012 22.0219C36.3514 22.0219 35.9012 22.923 36.4076 22.923C36.4076 22.0218 36.8578 22.0219 36.4076 21.5713C36.8578 21.5713 37.3643 21.5713 37.3643 20.6701C36.4077 20.6701 34.4945 22.0219 35.4511 22.4725ZM204.884 21.1207C205.841 21.5713 204.378 22.0219 205.335 22.4725C205.335 22.0219 207.248 21.5713 205.841 21.1207C205.842 21.1849 205.828 21.2485 205.802 21.3072C205.776 21.3659 205.738 21.4184 205.69 21.461C205.642 21.5037 205.586 21.5356 205.524 21.5546C205.463 21.5736 205.398 21.5793 205.335 21.5713C205.335 21.1207 204.884 20.2195 204.884 21.1207ZM249.114 22.0219V21.5713C251.477 20.2196 247.707 21.5713 249.114 22.0219ZM197.738 21.5713C199.145 21.5713 196.781 22.923 198.188 22.923V22.4725C198.252 22.4644 198.316 22.4701 198.378 22.4891C198.439 22.5081 198.496 22.54 198.544 22.5827C198.592 22.6254 198.63 22.6778 198.656 22.7365C198.682 22.7952 198.695 22.8587 198.695 22.923C198.695 22.0218 198.695 22.0219 198.188 21.5713C197.682 21.1207 196.781 21.1207 197.738 21.5713ZM198.188 21.5713C198.695 21.5713 199.145 21.1207 198.188 21.1207V21.5713ZM452.816 22.4725C452.31 23.3736 453.773 24.2747 454.223 23.3735C453.267 23.3735 453.267 22.4725 452.816 22.4725ZM282.933 24.2747C282.933 23.3736 284.34 23.3736 284.34 22.4725C283.383 22.0219 281.976 23.8241 282.933 24.2747ZM155.872 22.4725C154.915 22.923 155.366 22.4725 153.959 22.4725C154.032 23.1164 153.85 23.7633 153.452 24.2747C154.409 24.2747 154.915 24.2747 154.915 24.7253C153.452 22.923 156.772 22.923 155.872 22.4725ZM289.123 23.8241C290.023 23.8241 290.53 24.2747 290.53 23.8241C290.53 23.3735 289.573 22.923 289.123 23.8241ZM305.273 23.8241C305.273 23.3735 304.823 23.3735 304.823 23.8241C304.823 24.2747 307.186 23.8241 305.779 23.3735C305.78 23.4378 305.767 23.5013 305.74 23.56C305.714 23.6187 305.676 23.6712 305.628 23.7139C305.58 23.7565 305.524 23.7884 305.462 23.8074C305.401 23.8265 305.336 23.8322 305.273 23.8241ZM213.438 23.8241C211.975 25.6264 215.351 25.1758 213.438 23.8241V23.8241ZM81.8188 23.8241C81.1435 23.8241 80.7496 25.1195 82.5503 24.4437C82.5503 23.9931 82.0438 23.8241 81.8188 23.8241ZM216.87 24.8943H217.827V23.9931H216.87V24.8943ZM199.989 25.7954C200.048 25.7954 200.106 25.8071 200.161 25.8297C200.216 25.8524 200.265 25.8855 200.307 25.9273C200.349 25.9692 200.382 26.0189 200.405 26.0735C200.427 26.1282 200.439 26.1868 200.439 26.246C200.439 26.246 199.989 26.6966 200.439 26.6966C201.396 25.7954 202.802 24.4437 200.889 23.9931C201.396 25.7954 200.889 25.7954 199.989 25.7954ZM467.897 24.4437C468.348 24.4437 467.447 26.6965 466.941 27.1471C467.897 27.1471 468.854 26.6965 469.811 27.5977C469.304 27.5977 468.854 28.0483 469.811 28.0483C469.811 26.6965 472.174 27.1471 472.174 25.7954C471.724 26.246 471.217 25.3448 470.767 25.7954C472.174 26.246 469.811 26.6966 469.304 26.6966C470.261 25.7954 468.347 25.7954 468.347 25.3448C468.347 24.8943 469.304 23.0919 467.897 24.4437ZM104.778 24.8943C105.284 25.3448 105.734 24.8943 105.734 25.3448C105.734 25.7954 105.284 25.7954 105.734 25.7954C105.734 25.7312 105.747 25.6676 105.773 25.6089C105.799 25.5502 105.837 25.4978 105.885 25.4551C105.933 25.4124 105.99 25.3805 106.051 25.3615C106.112 25.3425 106.177 25.3368 106.241 25.3448C106.241 25.7954 106.241 26.246 106.691 25.7954C107.141 25.3448 106.691 24.8943 107.141 24.8943C106.241 24.4437 105.284 23.9931 104.778 24.8943ZM214.732 26.246C214.732 26.1818 214.719 26.1182 214.693 26.0595C214.667 26.0008 214.629 25.9484 214.581 25.9057C214.533 25.863 214.476 25.8311 214.415 25.8121C214.354 25.7931 214.289 25.7874 214.225 25.7954C213.775 26.6966 214.732 28.4988 215.182 27.1471C214.732 27.1471 214.732 27.1472 214.732 26.6966H214.788C214.507 25.7954 214.788 25.6828 214.788 25.6828H215.182C215.282 25.6773 215.378 25.6423 215.458 25.5821C215.539 25.522 215.599 25.4394 215.632 25.3448C214.676 25.3448 216.083 24.4437 214.676 24.4437C213.269 24.4437 215.126 25.7954 213.719 26.246H214.732ZM488.83 24.8943H489.337C488.38 25.3448 489.337 25.7954 489.731 24.8943C489.28 24.6126 489.168 23.8805 488.83 24.8943ZM490.744 24.8943C490.293 25.1759 490.012 25.1759 489.787 24.8943C489.393 26.5276 490.744 25.6264 490.744 24.8943ZM476.957 26.5839C478.364 28.3862 479.32 26.1334 481.684 27.0345C481.684 25.2322 478.364 26.5839 477.914 24.7816C478.87 27.485 476.957 24.7816 476.957 26.5839ZM211.862 24.7816C211.412 28.3862 211.412 26.1333 212.312 25.6828H212.875C212.481 25.4293 212.137 25.1047 211.862 24.7253V24.7816ZM205.222 24.7816C205.159 24.8446 205.085 24.8946 205.003 24.9287C204.921 24.9628 204.833 24.9804 204.744 24.9804C204.655 24.9804 204.567 24.9628 204.485 24.9287C204.403 24.8946 204.328 24.8446 204.266 24.7816C204.716 26.1333 204.265 26.5839 204.716 27.0345C204.716 26.1334 205.672 25.2322 205.222 24.7816ZM122.39 24.7816C122.39 26.1333 121.94 26.5839 120.984 25.6828C120.477 27.0345 122.897 27.0345 122.897 26.1333C121.434 26.5839 124.304 25.2322 122.39 24.7816ZM95.2677 26.1333C95.7742 25.6828 95.2676 24.7816 94.8175 24.7816C94.3673 24.7816 94.3111 25.6828 95.2677 26.1333ZM490.744 27.0345C490.744 26.915 490.791 26.8003 490.875 26.7158C490.96 26.6313 491.074 26.5839 491.194 26.5839C491.194 26.5839 491.7 26.5839 491.7 27.0345C491.7 27.4851 491.194 27.4851 492.15 27.4851C491.7 26.5839 491.194 26.1333 492.15 25.2322C491.194 25.2322 489.787 27.0345 490.744 27.0345ZM209.386 25.2322C209.386 26.5839 206.516 27.4851 207.923 27.0345H209.386C208.88 26.1334 210.343 25.6827 209.386 25.2322ZM385.46 25.6828C386.866 27.0345 386.866 24.331 385.46 25.6828V25.6828ZM120.365 25.6828C118.452 26.5839 120.871 27.9356 120.365 25.6828V25.6828ZM212.763 25.6828C213.382 26.077 213.55 25.6828 212.763 25.6828V25.6828ZM482.078 26.9781H483.034V26.077H482.078V26.9781ZM139.891 27.8793C139.891 27.4287 139.891 27.4287 140.847 27.4287V26.5276C140.341 26.5276 139.891 26.5276 139.891 26.077C140.341 27.4288 138.484 27.8793 139.891 27.8793ZM399.753 26.9781C399.812 26.9781 399.87 26.9898 399.925 27.0124C399.979 27.0351 400.029 27.0683 400.071 27.1101C400.113 27.152 400.146 27.2017 400.168 27.2563C400.191 27.311 400.203 27.3695 400.203 27.4287C399.753 27.4287 398.796 28.3299 399.753 28.3299C399.753 27.8793 400.709 28.3299 401.159 27.4287C400.203 27.8793 399.753 25.6264 399.753 26.9781ZM486.804 27.4287C487.311 28.7804 486.354 25.1758 486.804 27.4287V27.4287ZM497.271 27.8793H498.228V26.9781H497.271V27.8793ZM371.167 28.3299C373.586 28.3299 372.63 26.5276 372.123 26.9781C371.617 27.4287 372.123 28.3299 371.167 28.3299ZM326.937 28.3299C327.387 28.3299 328.344 28.3299 328.344 27.8793C327.387 27.8793 327.894 26.9781 326.937 26.9781V28.3299ZM218.896 27.8793C218.896 27.8793 218.39 27.4287 218.39 27.8793C219.346 28.3299 220.303 28.7804 220.809 26.9781H219.346C218.896 27.4287 219.346 27.8793 218.896 27.8793ZM216.533 26.9781C214.113 27.8793 216.983 29.231 216.533 26.9781V26.9781ZM283.608 27.4287C285.015 27.8793 283.158 28.3299 283.608 29.2311C284.115 29.2311 284.565 31.0897 285.015 29.7379C284.115 29.231 284.115 28.7804 284.565 27.4287C284.565 26.9781 282.202 26.9781 283.608 27.4287ZM81.3687 28.3299C82.7754 26.9782 79.4554 26.9782 81.3687 28.3299V28.3299ZM410.219 28.7805C410.219 28.3299 408.756 28.3299 409.262 29.2311C410.669 29.2311 410.669 28.7805 411.626 29.7379C412.582 28.3299 411.626 29.231 412.582 29.7379C412.132 27.8793 415.452 30.6391 414.496 29.2311C413.539 29.2311 413.539 27.8793 413.033 27.4287C412.582 28.7804 411.176 26.9782 410.219 28.7805ZM373.586 28.3299H374.487V27.4287H373.586V28.3299ZM503.011 28.3299C504.924 27.4287 501.097 27.4287 503.011 28.3299V28.3299ZM418.603 29.7379C418.603 29.231 419.56 27.8793 418.603 27.8793C419.054 28.7805 417.647 29.7379 418.603 29.7379ZM276.799 28.3299C277.25 28.3299 277.756 30.1885 277.756 28.7805C277.25 28.7805 277.756 28.3299 277.756 27.8793C277.756 27.4287 276.799 27.8793 276.799 28.3299ZM298.689 28.3299C299.139 29.231 300.096 27.4287 300.096 28.7805C300.096 28.7805 299.646 28.7805 300.096 29.2311C302.459 28.7805 298.183 27.4287 298.689 28.3299ZM390.974 28.3299C391.931 28.3299 391.481 29.231 391.481 29.7379C393.394 30.1885 394.801 31.9908 395.757 30.1885C393.844 29.231 392.437 30.6391 392.437 28.3299C391.931 28.7805 391.481 27.8793 390.974 28.3299ZM402.904 28.7805C404.817 28.7805 401.947 30.6391 403.354 30.6391C403.354 30.1885 403.354 30.1885 403.86 30.1885C404.367 30.1885 404.31 30.6391 404.31 30.1885C404.31 29.7379 404.31 26.9782 402.904 28.7805ZM408.137 31.0897C409.544 31.0897 409.094 31.9908 410.05 31.0897C409.544 30.1885 408.137 27.8793 408.137 28.3299C408.587 29.7379 408.137 29.2311 408.137 31.0897ZM133.42 28.9494C133.926 28.9494 135.333 28.9494 134.376 28.4988C133.42 28.0483 132.519 28.9494 133.42 28.9494ZM112.993 29.4C112.487 29.4 112.037 28.4989 111.53 29.4C112.037 29.9069 113.443 29.9069 113.443 28.9494C112.487 28.4989 112.487 28.4989 112.993 29.4ZM310.956 29.4C311.913 29.4 312.363 31.2586 312.363 29.9069C311.913 29.9069 311.463 28.0483 310.956 29.4ZM280.964 28.9494C280.626 29.9632 280.288 29.231 279.726 28.9494H279.05V29.9069C279.05 30.3575 279.05 30.3575 279.557 30.3575C280.063 30.3575 282.427 29.9069 280.964 28.9494ZM74.4472 29.4C76.8106 30.8081 76.3604 28.0483 74.4472 29.4V29.4ZM223.398 29.4C223.848 29.4 223.848 29.4 223.848 29.9069C223.848 30.4138 223.848 31.2586 223.848 30.3575C224.804 29.9069 223.848 28.4989 223.398 29.4ZM396.601 29.9069C397.108 30.808 398.515 30.3575 399.021 29.4C398.064 28.9494 396.601 28.9494 396.601 29.9069ZM359.969 30.8081C359.969 30.3575 359.969 30.3575 360.475 30.3575V29.4C358.562 28.4989 358.562 30.3575 359.969 30.8081ZM476.113 26.1896V25.739C478.476 24.331 474.65 25.7391 476.113 26.1896ZM399.471 30.3575H400.878C401.384 28.9494 398.515 28.9494 399.471 30.3575ZM404.254 29.4C403.748 30.3575 405.211 31.7092 405.211 30.8081C404.704 30.8081 405.211 29.4 404.254 29.4ZM347.589 30.3575C347.589 29.9069 347.589 29.9069 347.139 29.9069V30.8081C347.589 30.8081 348.095 31.2586 348.545 31.2586C348.545 30.3575 349.052 30.3575 349.502 29.9069C349.244 29.9407 348.982 29.9124 348.737 29.8242C348.493 29.736 348.273 29.5906 348.095 29.4C348.095 29.9069 348.095 30.3575 347.589 30.3575ZM310.956 31.7092C310.956 31.2587 311.463 30.8081 311.463 30.3575C311.463 29.9069 310 29.9069 309.549 29.4C309.549 30.8081 310.506 31.2587 310.956 31.7092ZM389.736 31.2586C389.736 30.8081 390.186 30.8081 390.186 30.3575C390.186 29.9069 389.736 29.9069 389.23 29.9069C388.723 29.9069 388.78 31.2586 389.736 31.2586ZM395.87 30.8081C397.783 30.3575 396.826 32.1598 398.74 31.7092C398.74 30.3575 396.376 29.9069 395.87 30.8081ZM432.052 30.8081C433.009 31.7092 433.515 30.8081 434.416 31.2586C433.515 32.6104 432.052 31.2586 433.009 32.6103C432.052 32.6103 429.689 33.5115 430.139 31.7092C428.732 32.1598 429.689 33.061 427.776 32.1598C427.776 33.061 427.776 33.9621 427.326 33.9621C426.875 33.9621 426.819 32.6104 425.863 32.1598C426.369 33.061 424.456 33.9621 425.863 33.9621C427.347 33.8193 428.839 34.1337 430.139 34.8632C430.139 35.7644 428.282 36.2149 429.689 36.2149C429.922 35.9326 430.214 35.7055 430.545 35.5496C430.875 35.3938 431.237 35.3133 431.602 35.3138C431.602 35.7644 431.602 36.2149 432.559 36.2149C432.559 34.4126 430.139 35.3138 430.139 33.9621C432.052 34.8632 433.966 35.3138 435.372 33.9621C435.879 35.7644 437.792 34.8632 436.329 36.6655C437.286 36.6655 437.286 36.215 437.792 35.7644C438.242 37.1161 435.372 38.0173 436.835 38.9184C439.705 36.6656 439.705 30.3575 435.879 30.8081C437.286 30.8081 434.416 33.5115 433.966 31.7092C436.836 32.1598 433.516 30.3575 433.966 30.3575C434.416 30.3575 434.922 30.3575 434.922 29.9069C434.922 29.4563 433.009 29.0058 433.966 28.1046C434.416 28.1046 434.416 28.5551 434.922 28.5551V27.6541C434.561 27.6186 434.223 27.4595 433.966 27.2035C433.009 29.4563 433.966 30.3575 432.052 30.8081ZM387.317 33.6242C389.23 32.723 387.823 31.3713 387.317 33.6242V33.6242ZM1.85705 34.5253C1.85705 33.6242 1.35054 32.723 0.900364 32.723C0.900364 33.6241 0.90044 34.0748 1.85705 34.5253ZM521.074 29.9069C522.03 29.4563 521.524 30.8081 522.481 31.2586C522.03 30.3575 522.987 29.9069 522.481 29.9069C520.567 30.808 523.887 29.0057 522.987 29.0057C522.087 29.0057 521.524 29.0057 521.074 29.9069ZM400.484 34.5816C401.441 35.0322 401.441 32.7793 400.934 33.2299C400.428 33.6804 400.034 33.6805 400.484 34.5816ZM395.251 34.5816C394.801 34.5816 394.801 34.5816 394.801 35.0322C396.658 35.0322 395.251 32.7793 394.294 33.2299C394.294 34.131 394.801 34.131 395.251 34.5816ZM369.535 35.0322C370.041 33.6805 369.535 33.2299 368.578 33.2299C368.593 33.5827 368.687 33.9277 368.852 34.2396C369.018 34.5514 369.251 34.8223 369.535 35.0322ZM398.571 33.6804C399.077 35.4827 398.121 36.3839 397.164 35.0322C397.164 35.4828 397.164 35.9334 397.614 35.9334C397.164 36.3839 396.658 35.9334 396.658 36.384C398.121 35.9334 398.121 36.8345 399.527 35.9334C398.571 36.8345 400.034 37.285 399.077 37.285H398.346C397.67 37.0034 397.164 36.2713 397.164 37.285C398.571 37.285 398.121 38.6368 399.527 38.1862C399.999 37.3082 400.651 36.5403 401.441 35.9334C400.934 35.9334 401.441 35.0322 400.934 35.0322C400.934 35.9334 400.484 36.384 400.034 36.384C400.934 35.4828 399.077 36.3839 399.077 35.4828C399.077 34.5816 398.571 34.5816 399.077 34.131C399.584 33.6805 400.034 34.131 400.034 33.6804H398.571ZM506.162 30.4138C507.062 29.9632 508.019 30.4138 508.019 29.9632C507.062 29.9632 506.612 29.062 506.162 30.4138ZM407.63 36.046C409.037 35.5954 409.544 36.4402 410.444 35.5954C410.05 35.5954 409.544 35.5954 409.544 35.1449C409.544 34.6943 409.544 34.2437 409.037 34.2437C409.544 35.5954 407.124 34.6942 407.63 36.046ZM386.698 35.1449C387.148 35.1449 387.148 35.1448 387.654 35.5954C387.654 34.6942 388.104 34.6943 388.104 34.2437C387.148 34.2437 386.698 34.2437 386.698 35.1449ZM448.596 31.8782C449.553 31.4276 449.103 30.977 448.146 30.5264C448.146 31.4276 447.189 31.8782 448.596 31.8782ZM441.45 31.4276C443.363 31.8782 441.956 33.2299 443.363 33.2299C443.363 34.131 442.406 34.131 442.406 34.5816C442.764 35.1553 443.269 35.6222 443.869 35.9334C444.319 34.5816 442.913 35.0322 442.913 34.131C443.363 34.131 443.363 33.6804 443.869 33.6804C443.869 34.5816 443.869 35.0322 444.826 35.0322C445.801 34.729 446.638 34.0907 447.189 33.2299C446.233 33.2299 446.233 32.3288 446.233 31.4276C446.233 30.5265 444.32 31.8782 444.826 30.5264C443.363 31.8782 442.406 29.6253 441.45 31.4276ZM391.987 35.5954C391.987 35.5954 392.437 35.1448 392.437 35.5954C394.857 37.3977 391.481 33.3425 391.987 35.5954ZM439.086 31.4276H439.874C439.424 31.8782 439.424 32.3288 439.874 32.3288C440.324 32.3288 440.831 32.3288 440.831 31.4276C440.324 31.4276 440.324 31.4276 440.324 30.977C440.324 30.5264 437.511 30.977 438.917 31.4276H439.086ZM456.699 30.977C455.743 33.6805 458.106 31.8782 456.699 30.977V30.977ZM421.98 35.4828C419.56 35.9334 422.43 36.8345 422.43 37.7356C421.473 38.1862 420.517 42.354 420.067 43.3678C421.473 43.8184 421.023 38.2988 421.98 40.1011C421.98 39.2 422.43 40.1011 421.98 40.5517C422.88 40.1011 424.793 40.1012 423.837 39.2001C424.343 39.6506 422.43 39.2 422.43 38.7495C422.43 38.2989 422.88 37.8483 423.387 37.3977C422.88 37.3977 421.98 36.4965 422.88 36.4965C423.781 36.4965 423.837 39.2 424.343 38.2989C423.387 38.2989 425.3 35.1448 423.837 36.4965C424.343 38.2988 422.43 36.0459 422.43 35.5954C423.837 36.0459 422.43 33.3425 424.343 33.7931C424.343 34.6943 423.837 34.2437 423.837 34.6943C423.837 35.1449 425.3 34.6943 424.793 33.3425C423.387 33.3425 423.387 34.2437 421.98 33.7931C421.98 32.892 422.88 32.4413 422.43 31.9908C421.473 32.4413 421.473 33.3425 420.517 33.3425C420.517 32.4414 419.56 36.6092 419.56 35.708C420.067 35.708 421.023 31.9909 421.023 31.5403C420.066 31.5403 420.067 35.2575 419.56 35.2575C417.647 37.5103 421.98 33.3425 421.98 35.5954V35.4828ZM503.348 31.4276C503.798 31.8782 504.755 32.3288 503.798 32.3288C503.798 31.4276 502.392 31.8782 502.392 31.8782C502.648 32.1127 502.808 32.4336 502.842 32.7793C502.842 32.7793 502.392 33.2299 502.842 33.2299C503.292 33.2299 503.798 33.2299 503.798 32.7793C504.305 33.2299 503.799 33.6804 504.305 33.6804C504.811 33.6804 504.305 32.7793 504.755 32.7793C505.205 32.7793 504.305 30.5265 503.348 31.4276ZM319.566 35.5954C319.566 35.2011 319.566 35.5954 319.566 35.5954V35.5954ZM495.695 32.3288C496.652 32.7794 495.695 30.977 495.245 31.4276C494.795 31.8782 495.695 32.3288 495.695 32.3288ZM470.992 31.4276C469.529 33.2299 472.399 32.7793 470.992 31.4276V31.4276ZM449.103 34.131C448.146 33.6805 449.553 33.2299 448.596 32.7793C448.596 33.6804 447.639 33.6805 447.189 34.5816C449.103 35.0322 449.103 35.0322 450.509 34.131C450.509 34.5816 450.96 34.5816 450.96 35.0322C450.059 35.0322 449.553 37.285 450.96 36.8345C450.96 35.9333 450.059 35.4828 451.466 35.0322C451.916 36.3276 451.466 35.9333 452.816 36.7782C452.835 36.3685 452.765 35.9596 452.609 35.5802C452.453 35.2008 452.217 34.8601 451.916 34.5816C453.829 34.5816 451.916 34.131 452.423 33.2299C452.873 33.6804 453.379 34.131 453.829 34.131C452.873 32.3287 451.466 33.6805 451.916 31.8782C451.466 33.6805 451.916 30.977 450.509 31.4276C449.553 33.2299 450.509 33.6805 449.103 34.131ZM415.34 37.3977C416.188 38.1563 417.158 38.7658 418.21 39.2001C417.703 38.2989 419.616 37.8483 419.616 38.7495C417.703 40.5518 419.616 34.1311 420.573 35.0322C421.079 33.6805 419.166 38.7494 419.616 37.3977C418.21 38.2989 417.703 36.9471 416.296 37.8483C415.34 37.3977 417.253 35.5954 415.34 35.5954C415.846 36.4965 415.846 36.046 415.34 37.3977ZM411.063 36.4965C411.063 35.9896 411.063 35.708 410.613 35.5954C410.613 36.4965 410.613 36.9471 411.57 36.9471C411.063 36.4966 413.426 36.0459 412.02 35.5954C411.569 36.4965 411.063 36.4965 411.063 36.4965ZM316.358 36.046C317.315 36.046 317.315 36.9471 317.765 36.9471C318.215 36.9471 318.271 36.046 319.228 36.046C318.722 36.9471 318.722 37.8483 319.678 37.8483C319.486 37.504 319.385 37.1162 319.385 36.7219C319.385 36.3275 319.486 35.9396 319.678 35.5954C318.722 35.9896 317.371 35.1448 316.414 36.046H316.358ZM514.321 31.8782C514.321 32.7793 513.871 33.6804 514.828 33.2299C514.862 32.9802 514.833 32.726 514.745 32.4901C514.657 32.2541 514.511 32.0439 514.321 31.8782ZM494.851 33.2299C495.301 30.5264 492.938 32.3287 494.851 33.2299V33.2299ZM507.681 32.7793C509.088 32.7793 506.725 35.9333 508.131 34.5816C508.131 34.131 510.045 32.7794 508.638 32.3288C508.638 33.2299 507.681 32.3287 507.681 32.7793ZM440.549 32.7793C440.613 32.7712 440.678 32.7769 440.739 32.7959C440.8 32.815 440.857 32.847 440.905 32.8896C440.953 32.9323 440.991 32.9847 441.017 33.0434C441.043 33.1021 441.056 33.1656 441.056 33.2299C440.099 33.6804 440.099 32.7793 439.649 33.2299C440.099 33.6804 440.549 33.6805 440.549 34.131C440.549 34.5816 440.099 34.5816 440.549 34.5816C440.549 33.2299 442.012 35.4828 442.012 34.131C441.506 34.131 441.056 31.4276 440.549 32.7793ZM405.38 44.0436C406.786 43.5931 407.237 44.0437 407.743 43.5932C406.336 42.2414 408.7 43.5931 408.7 42.692C406.786 41.7908 406.336 37.7357 405.83 37.0598C405.38 38.8621 408.193 42.692 405.38 44.269V44.0436ZM483.428 33.1173C483.381 33.2444 483.381 33.3844 483.428 33.5115C483.766 33.0046 484.385 32.3288 483.428 33.1173ZM282.595 37.285C283.552 39.5379 283.552 35.9333 282.595 37.285V37.285ZM410.106 37.285C410.106 37.285 410.613 37.7356 410.106 37.7356C409.6 37.7356 409.15 36.8345 409.15 37.285C409.15 37.7356 409.656 37.2851 409.656 37.7356C409.656 38.1862 409.15 37.7356 409.15 38.1862C411.063 39.0874 411.063 36.3839 410.106 37.285ZM410.613 38.6368C410.613 39.9885 411.063 40.4391 410.106 40.8896C409.15 39.9885 410.106 40.4391 410.106 39.0874C409.742 39.0943 409.383 39.1782 409.054 39.3335C408.724 39.4888 408.431 39.712 408.193 39.9886C409.15 39.9886 409.15 41.7908 410.106 42.2414C409.656 40.4391 412.47 42.6919 412.47 40.8896C411.57 40.4391 411.063 41.7908 411.063 40.8896C411.063 39.9885 413.427 38.6368 412.47 37.285C412.02 39.5379 411.063 38.1862 410.613 38.6368ZM366.834 37.285C364.92 39.0873 368.24 38.6368 366.834 37.285V37.285ZM483.541 33.5115C483.259 33.8494 483.091 34.0747 483.541 33.5115C483.991 32.9483 483.541 33.5115 483.541 33.5115ZM510.045 34.469C510.551 34.469 511.508 34.4689 511.508 34.0184C511.508 33.5678 511.001 34.0184 511.001 33.5679C510.761 33.5798 510.532 33.677 510.357 33.8421C510.182 34.0072 510.071 34.2295 510.045 34.469ZM303.979 40.8896C303.528 39.5379 303.528 39.9885 304.485 39.0874C303.528 39.0874 304.485 38.1862 303.528 37.7356C303.528 39.0874 303.022 41.3402 303.979 40.8896ZM520.849 34.5816C520.849 34.131 519.386 33.2299 519.386 34.131C521.299 36.8345 522.256 31.8782 520.849 34.5816ZM495.133 34.5816C494.176 35.9333 493.726 33.6805 493.22 34.5816C494.683 34.5816 492.263 35.9334 493.726 35.9334C494.176 35.9334 496.539 33.6805 495.133 34.5816ZM514.153 34.5816C514.659 34.5816 515.109 35.4828 515.109 34.5816C514.659 34.5816 514.153 34.131 514.153 34.5816ZM459.907 35.0322C460.413 35.0322 460.863 35.0322 460.863 35.4828C460.863 35.9334 460.863 36.8345 460.863 35.9334C460.863 35.0322 461.82 35.0322 461.82 34.5816C461.15 34.5198 460.479 34.6779 459.907 35.0322ZM416.634 38.7495C417.534 40.5518 416.128 40.1011 414.721 39.6506C414.214 41.4529 416.634 39.6506 416.634 41.0023C415.678 40.905 414.713 41.0403 413.82 41.3966C414.158 42.2978 414.552 43.8747 413.82 44.1563C412.864 43.2552 412.864 44.1564 412.414 44.5506L413.82 45.0575C413.82 43.7058 415.227 44.6069 415.227 43.7057C415.227 43.7057 414.777 43.2551 415.227 43.2551C415.677 43.2551 415.227 45.0575 416.184 45.0575C416.184 43.7058 416.69 43.7058 417.591 42.3541C417.14 42.3541 416.69 42.354 416.69 41.4529C417.14 41.4529 417.591 41.9035 417.591 41.4529C416.69 41.0023 417.591 40.1012 418.097 41.0023C418.097 40.1012 417.14 39.6506 416.69 38.7495H416.634ZM399.471 38.7495C398.515 40.1012 400.878 40.5517 400.878 39.6506C399.978 40.1011 400.428 38.7495 399.471 38.7495ZM353.779 39.2001C354.285 39.2001 355.692 40.1012 354.735 39.2001C355.242 38.2989 351.866 39.2001 353.779 39.2001ZM489.9 35.9334C490.35 35.9334 490.856 36.384 491.306 36.384V34.5816H490.518C490.518 35.0322 490.068 35.0322 490.068 35.4828L489.9 35.9334ZM478.927 36.8345C479.883 35.0322 480.39 39.0873 481.346 37.285C480.39 37.7356 478.927 35.0322 480.39 36.384C480.84 34.1311 478.926 36.3839 478.026 35.0322C478.026 35.9334 478.026 36.3839 478.927 36.8345ZM464.69 37.7356C465.646 37.7356 465.646 38.1862 466.097 37.7356C465.856 37.7237 465.628 37.6264 465.452 37.4613C465.277 37.2962 465.166 37.0739 465.14 36.8345C465.74 36.6105 466.308 36.3076 466.828 35.9334C466.434 35.9334 466.097 35.9334 466.097 35.4828C466.097 35.0322 466.603 35.0322 466.097 35.0322C465.646 36.3839 464.69 36.3839 464.69 37.7356ZM463.227 35.0322C463.733 35.9334 462.777 38.1862 464.183 37.285C463.733 37.285 463.733 36.8345 463.733 36.384C463.733 35.9334 464.69 36.3839 464.69 35.4828C464.428 35.5125 464.163 35.4879 463.911 35.4103C463.659 35.3328 463.426 35.2041 463.227 35.0322ZM445.164 36.384C447.077 36.384 448.033 37.285 448.484 36.8345C447.794 36.1142 446.997 35.5061 446.12 35.0322C446.57 36.8345 445.164 34.5817 445.164 36.384ZM240.504 39.6506C239.098 40.5517 241.461 42.8046 240.504 40.1011C240.504 40.5517 241.011 39.2 240.504 39.6506ZM461.37 36.8345C461.481 36.8808 461.602 36.899 461.722 36.8874C461.842 36.8758 461.957 36.8347 462.057 36.7679C462.157 36.701 462.239 36.6104 462.296 36.5041C462.353 36.3978 462.383 36.2792 462.383 36.1586C462.383 36.0381 462.353 35.9194 462.296 35.8131C462.239 35.7069 462.157 35.6163 462.057 35.5494C461.957 35.4825 461.842 35.4415 461.722 35.4298C461.602 35.4182 461.481 35.4364 461.37 35.4828V36.8345ZM443.813 35.9334C444.207 35.9334 444.376 35.9334 444.207 35.4828C444.207 35.877 444.207 35.9334 443.813 35.9334ZM216.251 41.5656C217.208 41.5656 217.658 41.5656 218.165 42.0161C217.986 41.6424 217.933 41.2208 218.015 40.8146C218.096 40.4084 218.306 40.0395 218.615 39.7632C217.208 39.7632 216.758 40.6644 216.251 41.5656ZM222.441 40.2138C222.891 42.4667 221.991 41.5656 221.485 42.0161C222.441 42.0161 221.485 42.9172 221.991 42.9172C222.497 42.9172 222.891 42.4666 223.398 42.4666C223.398 41.5655 223.398 40.6644 223.848 40.6644C224.298 40.6644 223.848 42.0161 224.354 42.0161C225.311 41.115 223.848 40.6644 225.311 40.2138C225.311 41.115 225.761 41.5655 226.268 40.6644C225.311 39.3127 224.804 40.2138 222.441 40.2138ZM466.828 36.046C467.278 35.6517 466.828 36.046 466.828 36.046V36.046ZM457.994 37.3977C459.457 37.8483 459.457 36.046 458.5 36.046C458.5 36.4965 457.994 36.4966 457.994 37.3977ZM289.179 41.5656C289.179 41.115 289.179 40.6644 288.729 40.6644C288.729 43.8184 290.586 40.6643 291.543 42.4666C291.543 41.5655 292.049 40.2138 291.092 40.2138C290.535 40.769 289.888 41.2261 289.179 41.5656ZM150.245 42.0161C150.23 41.6633 150.136 41.3182 149.971 41.0063C149.805 40.6945 149.572 40.4237 149.288 40.2138C149.288 41.115 149.288 42.0161 150.245 42.0161ZM209.724 40.6644C209.733 41.5123 210.077 42.3222 210.68 42.9172C210.68 41.5655 212.087 43.8184 212.087 42.4666C211.131 42.4666 212.087 40.6644 210.68 40.6644C210.68 41.5655 211.581 42.0161 210.68 42.0161C210.68 41.5656 209.217 39.3127 209.724 40.6644ZM507.963 36.4965C508.469 36.4965 508.469 36.4966 508.469 36.9471C508.103 36.9466 507.742 37.0272 507.412 37.183C507.081 37.3388 506.788 37.566 506.556 37.8483C509.426 37.3977 505.599 41.0023 507.512 40.5517C507.962 38.7494 509.426 40.5517 508.919 41.0023C509.426 39.6506 511.789 41.4529 510.832 40.5517C509.876 39.6506 510.832 39.6506 511.789 40.1011V38.7495C510.382 38.2989 510.382 38.2989 509.426 39.2001C510.832 37.3978 508.469 38.7494 507.512 37.3977H508.919V36.4965C508.469 36.4965 507.963 36.046 507.963 36.4965ZM512.239 41.0023C512.746 40.5517 513.702 41.0023 515.109 41.9035C516.572 38.7495 514.659 40.5518 516.572 38.7495C515.109 38.2989 514.659 39.6506 515.109 38.2989C513.196 38.7495 514.659 38.2989 515.109 37.3977C514.659 37.3977 514.152 37.8483 513.702 37.8483C513.196 40.1012 514.153 40.1012 514.153 39.2001C514.659 39.2001 515.616 41.0023 514.153 41.0023C514.153 39.6506 512.746 41.9034 512.746 40.1011C512.746 38.2988 513.196 36.9471 514.659 36.4965C513.196 35.5954 511.339 39.6506 512.239 41.0023ZM370.942 40.2138C370.942 40.6644 370.435 40.6644 369.985 40.2138C369.985 40.6644 369.985 41.5656 370.435 41.5656C370.885 41.5656 372.348 40.6644 370.942 40.2138ZM486.579 36.4965C487.536 38.7494 487.536 35.1448 486.579 36.4965V36.4965ZM489.393 36.9471C489.899 37.3977 490.856 36.9471 491.306 36.4965C490.35 36.4965 489.393 35.5954 489.393 36.9471ZM413.764 41.115C413.483 40.4954 413.314 40.2138 413.764 41.115V41.115ZM407.63 41.115C408.587 41.115 408.081 42.4666 409.037 42.4666C409.037 41.5655 408.081 39.7632 407.63 41.115ZM521.355 39.2001C521.862 37.8483 522.818 40.1011 523.719 40.1011C523.719 38.2988 522.312 38.2989 523.268 36.9471C522.312 36.9471 522.312 36.9471 521.862 36.4965C521.862 37.8483 520.905 38.2989 521.355 39.2001ZM420.46 37.8483C420.46 37.3977 420.461 37.3977 420.967 37.3977V36.4965C419.504 36.046 419.504 37.8483 420.46 37.8483ZM36.4076 41.115C37.8707 40.6644 37.3644 42.4667 38.8274 42.0161V41.115C38.8274 40.6644 38.321 40.6644 38.321 40.6644C38.321 42.0161 36.4076 39.7632 36.4076 41.115ZM450.903 36.9471C450.453 38.2989 451.86 38.2989 452.366 39.2001C452.366 38.1299 452.366 37.3977 452.704 36.4965C452.13 36.7357 451.523 36.8875 450.903 36.9471ZM357.155 41.115C358.112 41.115 357.661 42.4666 358.618 42.4666C358.112 41.1149 360.531 41.5655 359.068 41.115C358.112 42.4667 358.112 39.7632 357.155 41.115ZM354.004 41.115C354.004 41.115 356.817 42.3541 354.341 41.115H354.004ZM339.598 41.6218C340.048 41.6218 340.049 41.6219 340.049 42.0724C340.049 42.523 339.598 42.523 340.049 42.523C340.499 42.523 340.048 40.2701 339.598 41.6218ZM432.39 37.0034C430.927 37.454 432.84 39.2563 433.347 38.3552C432.39 38.3552 432.84 37.0034 432.39 37.0034ZM304.823 42.6356C304.823 42.185 304.823 41.2839 304.372 41.2839C302.909 42.6357 303.416 42.185 304.823 42.6356ZM16.9378 43.0862C16.4313 42.6356 15.4747 41.284 15.4747 42.1851C15.4747 43.0863 17.388 44.4379 17.8381 43.5368C17.388 43.0862 17.8381 40.8334 16.9378 41.2839C16.0374 41.7345 17.8381 42.6356 16.9378 43.0862ZM401.441 41.7345C402.397 42.6357 401.441 42.6356 401.441 43.9874C402.397 43.9874 403.804 42.1851 402.848 42.1851C402.397 43.9874 401.891 39.9322 401.441 41.7345ZM129.706 41.7345C130.325 41.7345 130.325 41.7345 130.156 42.1851C130.662 42.1851 131.113 42.1851 130.662 41.7345C130.212 41.2839 128.749 41.2839 129.706 41.7345ZM281.02 41.7345H281.526C282.933 43.9874 281.526 40.3828 281.02 41.7345ZM468.01 37.961C470.373 38.4115 468.01 36.1587 468.01 37.961V37.961ZM454.167 37.3977C454.167 37.6793 453.829 39.9886 454.167 37.961C454.167 37.3977 454.167 37.2851 454.167 37.3977ZM437.286 38.862C437.736 38.862 438.692 38.862 438.692 38.4115C438.692 37.9609 438.692 37.961 438.692 37.5104C437.736 37.0598 437.736 38.4115 437.286 38.862ZM489.112 37.5104C488.661 37.961 488.661 38.4115 489.112 37.961C490.068 38.8621 487.255 39.3127 487.255 40.6644C488.662 40.6644 487.705 38.8621 489.618 39.3126C489.618 40.2138 488.662 40.6644 488.662 41.5656C490.068 41.5656 491.025 42.9173 491.982 41.5656C491.982 41.115 491.531 41.5655 491.025 41.115C491.531 40.6644 491.982 41.115 491.982 40.6644C489.618 41.115 489.112 41.1149 491.025 39.3126C489.112 39.7632 490.575 37.0598 489.112 37.5104ZM365.314 42.5793C367.678 41.6782 363.401 41.2276 365.314 42.5793V42.5793ZM411.907 42.1287C411.907 43.0299 411.007 43.4805 410.05 44.3817C410.668 44.158 411.345 44.158 411.964 44.3817C412.414 43.4805 411.964 40.8334 411.964 42.1851L411.907 42.1287ZM260.593 42.5793C260.846 42.5468 261.104 42.5704 261.347 42.6482C261.59 42.7261 261.813 42.8564 262 43.0299V42.1287C261.043 41.6782 260.593 41.6782 260.593 42.5793ZM95.4365 42.5793C94.9864 42.5793 95.4365 43.0299 95.4365 43.4805C96.3931 43.4805 95.943 41.2276 95.4365 42.5793ZM129.706 42.1287C129.199 42.8609 129.706 42.523 129.706 42.1287V42.1287ZM282.033 43.0299C282.483 43.4805 283.439 43.0299 283.89 42.5793C282.483 42.5793 282.483 41.6782 282.033 43.0299ZM517.079 39.7632C517.079 39.7632 517.585 37.9609 517.585 38.4115C516.628 37.5103 516.628 39.7632 517.079 39.7632ZM392.381 42.523L390.974 43.0299L392.381 42.523ZM486.636 39.7632C486.636 38.8621 486.186 38.4115 485.679 38.4115C485.679 39.3126 486.185 39.3126 486.636 39.7632ZM481.009 40.2138C481.009 39.3127 481.965 39.7632 481.965 39.3126C481.965 38.8621 481.459 38.4115 481.009 38.4115C480.558 38.4115 480.052 40.2138 481.009 40.2138ZM504.811 38.862C505.262 38.862 505.262 38.8621 505.262 39.3126C504.305 39.3126 502.392 38.4115 503.348 39.7632C503.855 38.4115 504.811 40.2138 505.262 40.2138C505.262 39.3127 506.218 39.3126 506.218 38.862C506.218 38.4115 505.262 37.9609 504.811 38.862ZM128.355 43.0299C128.806 43.0299 129.312 43.931 129.312 43.0299C128.805 43.0299 128.355 42.1287 128.355 43.0299ZM158.798 43.9311C159.305 42.5793 159.305 45.2828 160.711 44.3817C160.711 42.1288 157.841 42.5793 158.798 43.9311ZM321.592 44.3817C322.492 42.5794 319.678 43.0299 321.592 44.3817V44.3817ZM432.446 40.6644C432.92 40.6476 433.383 40.5158 433.795 40.2803C434.206 40.0449 434.555 39.7127 434.81 39.3126C432.953 38.8621 432.953 40.2138 432.446 40.6644ZM519.048 41.5656C519.048 41.115 519.048 40.6644 519.555 41.115C520.061 41.5655 519.048 42.4666 520.005 42.4666C520.961 41.5655 520.961 40.2138 521.468 39.3126C521.468 40.6644 517.641 40.6644 519.048 41.5656ZM460.076 39.7632C461.032 39.3126 461.482 41.115 461.482 40.2138C461.482 39.3127 461.482 39.7632 461.482 39.3126C461.482 38.8621 460.076 39.3126 460.076 39.7632ZM406.336 46.1839C405.886 47.9862 407.293 44.3817 406.786 44.8322C403.973 46.184 406.787 44.3816 406.336 46.1839ZM493.444 41.5656C493.895 41.5656 493.895 41.5656 493.895 42.0161C492.994 41.3403 492.488 42.0161 492.15 42.6356C493.445 44.1563 493.445 42.0724 494.401 43.3678C494.851 42.0161 494.401 40.6644 493.444 41.5656ZM522.481 42.4666C522.481 42.0161 522.931 42.4667 523.381 42.0161C521.018 41.115 521.974 42.0161 522.481 42.4666ZM501.041 42.0161C499.634 44.7196 501.998 43.3679 501.041 42.0161V42.0161ZM491.982 43.0299V42.6356C491.925 42.8191 491.925 43.0154 491.982 43.1989V43.0299ZM520.117 44.269C520.117 44.2048 520.13 44.1412 520.156 44.0825C520.182 44.0238 520.22 43.9713 520.268 43.9287C520.316 43.886 520.373 43.8541 520.434 43.8351C520.495 43.8161 520.56 43.8104 520.624 43.8184V42.9172C519.667 42.4667 519.161 44.7196 520.117 44.269ZM492.994 44.269C492.375 45.1701 492.994 44.7196 492.994 44.269V44.269Z" fill="#489ED7"/>
</svg>
