<svg>

    

    <symbol id="main-brands-sale" viewBox="0 0 573 154" fill="none" xmlns="http://www.w3.org/2000/svg">
        <g filter="url(#filter0_d)">
        <path d="M51.2002 91.9932C51.2002 89.7373 50.3945 87.9795 48.7832 86.7197C47.2012 85.46 44.4033 84.1562 40.3896 82.8086C36.376 81.4609 33.0947 80.1572 30.5459 78.8975C22.2549 74.8252 18.1094 69.2295 18.1094 62.1104C18.1094 58.5654 19.1348 55.4453 21.1855 52.75C23.2656 50.0254 26.1953 47.916 29.9746 46.4219C33.7539 44.8984 38.002 44.1367 42.7188 44.1367C47.3184 44.1367 51.4346 44.957 55.0674 46.5977C58.7295 48.2383 61.5713 50.582 63.5928 53.6289C65.6143 56.6465 66.625 60.1035 66.625 64H51.2441C51.2441 61.3926 50.4385 59.3711 48.8271 57.9355C47.2451 56.5 45.0918 55.7822 42.3672 55.7822C39.6133 55.7822 37.4307 56.3975 35.8193 57.6279C34.2373 58.8291 33.4463 60.3672 33.4463 62.2422C33.4463 63.8828 34.3252 65.377 36.083 66.7246C37.8408 68.043 40.9316 69.4199 45.3555 70.8555C49.7793 72.2617 53.4121 73.7852 56.2539 75.4258C63.168 79.4102 66.625 84.9033 66.625 91.9053C66.625 97.501 64.5156 101.896 60.2969 105.089C56.0781 108.282 50.292 109.879 42.9385 109.879C37.7529 109.879 33.0508 108.956 28.832 107.11C24.6426 105.235 21.4785 102.687 19.3398 99.4639C17.2305 96.2119 16.1758 92.4766 16.1758 88.2578H31.6445C31.6445 91.6855 32.5234 94.2197 34.2812 95.8604C36.0684 97.4717 38.9541 98.2773 42.9385 98.2773C45.4873 98.2773 47.4941 97.7354 48.959 96.6514C50.4531 95.5381 51.2002 93.9854 51.2002 91.9932ZM110.878 97.0469H89.7402L86.0488 109H69.5693L93.0361 45.0156H107.538L131.181 109H114.613L110.878 97.0469ZM93.4316 85.1377H107.187L100.287 62.9453L93.4316 85.1377ZM151.308 97.1348H178.158V109H135.883V45.0156H151.308V97.1348ZM224.345 81.8857H200.087V97.1348H228.739V109H184.662V45.0156H228.827V56.9248H200.087V70.416H224.345V81.8857ZM256.557 57.3203C256.557 53.3652 257.846 50.1719 260.424 47.7402C263.002 45.3086 266.459 44.0928 270.795 44.0928C275.189 44.0928 278.661 45.3086 281.21 47.7402C283.759 50.1426 285.033 53.4092 285.033 57.54V60.7041C285.033 64.6592 283.759 67.8379 281.21 70.2402C278.661 72.6426 275.219 73.8438 270.883 73.8438C266.576 73.8438 263.104 72.6572 260.468 70.2842C257.86 67.8818 256.557 64.6006 256.557 60.4404V57.3203ZM266.093 60.7041C266.093 62.2275 266.518 63.4727 267.367 64.4395C268.217 65.377 269.389 65.8457 270.883 65.8457C273.959 65.8457 275.497 63.8828 275.497 59.957V57.3203C275.497 55.7969 275.087 54.5518 274.267 53.585C273.446 52.5889 272.289 52.0908 270.795 52.0908C269.359 52.0908 268.217 52.5742 267.367 53.541C266.518 54.4785 266.093 55.7676 266.093 57.4082V60.7041ZM286.967 93.3115C286.967 89.3271 288.256 86.1338 290.834 83.7314C293.441 81.3291 296.898 80.1279 301.205 80.1279C305.57 80.1279 309.042 81.3145 311.62 83.6875C314.198 86.0605 315.487 89.3711 315.487 93.6191V96.6953C315.487 100.68 314.213 103.873 311.664 106.275C309.115 108.678 305.658 109.879 301.293 109.879C296.986 109.879 293.515 108.692 290.878 106.319C288.271 103.917 286.967 100.636 286.967 96.4756V93.3115ZM296.459 96.6953C296.459 98.0723 296.928 99.2881 297.865 100.343C298.803 101.368 299.945 101.881 301.293 101.881C304.135 101.881 305.673 100.533 305.907 97.8379L305.951 93.3115C305.951 91.7588 305.526 90.5137 304.677 89.5762C303.827 88.6094 302.67 88.126 301.205 88.126C299.799 88.126 298.671 88.5801 297.821 89.4883C296.972 90.3672 296.518 91.5684 296.459 93.0918V96.6953ZM273.695 104.21L266.796 100.738L298.041 50.7285L304.94 54.2002L273.695 104.21ZM379.647 91.9932C379.647 89.7373 378.842 87.9795 377.23 86.7197C375.648 85.46 372.851 84.1562 368.837 82.8086C364.823 81.4609 361.542 80.1572 358.993 78.8975C350.702 74.8252 346.557 69.2295 346.557 62.1104C346.557 58.5654 347.582 55.4453 349.633 52.75C351.713 50.0254 354.643 47.916 358.422 46.4219C362.201 44.8984 366.449 44.1367 371.166 44.1367C375.766 44.1367 379.882 44.957 383.515 46.5977C387.177 48.2383 390.019 50.582 392.04 53.6289C394.062 56.6465 395.072 60.1035 395.072 64H379.691C379.691 61.3926 378.886 59.3711 377.274 57.9355C375.692 56.5 373.539 55.7822 370.814 55.7822C368.061 55.7822 365.878 56.3975 364.267 57.6279C362.685 58.8291 361.894 60.3672 361.894 62.2422C361.894 63.8828 362.772 65.377 364.53 66.7246C366.288 68.043 369.379 69.4199 373.803 70.8555C378.227 72.2617 381.859 73.7852 384.701 75.4258C391.615 79.4102 395.072 84.9033 395.072 91.9053C395.072 97.501 392.963 101.896 388.744 105.089C384.525 108.282 378.739 109.879 371.386 109.879C366.2 109.879 361.498 108.956 357.279 107.11C353.09 105.235 349.926 102.687 347.787 99.4639C345.678 96.2119 344.623 92.4766 344.623 88.2578H360.092C360.092 91.6855 360.971 94.2197 362.729 95.8604C364.516 97.4717 367.401 98.2773 371.386 98.2773C373.935 98.2773 375.941 97.7354 377.406 96.6514C378.9 95.5381 379.647 93.9854 379.647 91.9932ZM439.325 97.0469H418.188L414.496 109H398.017L421.483 45.0156H435.985L459.628 109H443.061L439.325 97.0469ZM421.879 85.1377H435.634L428.734 62.9453L421.879 85.1377ZM479.755 97.1348H506.605V109H464.33V45.0156H479.755V97.1348ZM552.792 81.8857H528.534V97.1348H557.187V109H513.109V45.0156H557.274V56.9248H528.534V70.416H552.792V81.8857Z" fill="#F34980"/>
        </g>
        <defs>
        <filter id="filter0_d" x="-27.8242" y="0.0927734" width="629.099" height="153.786" filterUnits="userSpaceOnUse" color-interpolation-filters="sRGB">
        <feFlood flood-opacity="0" result="BackgroundImageFix"/>
        <feColorMatrix in="SourceAlpha" type="matrix" values="0 0 0 0 0 0 0 0 0 0 0 0 0 0 0 0 0 0 127 0"/>
        <feMorphology radius="10" operator="dilate" in="SourceAlpha" result="effect1_dropShadow"/>
        <feOffset/>
        <feGaussianBlur stdDeviation="17"/>
        <feColorMatrix type="matrix" values="0 0 0 0 0 0 0 0 0 0 0 0 0 0 0 0 0 0 0.35 0"/>
        <feBlend mode="normal" in2="BackgroundImageFix" result="effect1_dropShadow"/>
        <feBlend mode="normal" in="SourceGraphic" in2="effect1_dropShadow" result="shape"/>
        </filter>
        </defs>
    </symbol>

    <!-- кнопка закрыть Х для popup -->
    <symbol id="popup-close" viewBox="0 0 50 50" fill="none" xmlns="http://www.w3.org/2000/svg">
        <g clip-path="url(#clip0)">
        <path fill-rule="evenodd" clip-rule="evenodd" d="M1.04888 48.951C0.716401 48.6193 0.452616 48.2253 0.272631 47.7915C0.0926461 47.3577 7.03124e-09 46.8926 0 46.423C-7.03124e-09 45.9533 0.092646 45.4883 0.272631 45.0545C0.452616 44.6207 0.716401 44.2266 1.04888 43.8949L19.9496 24.9991L1.04888 6.10318C0.378491 5.43271 0.00187202 4.52335 0.00187201 3.57516C0.001872 2.62697 0.378491 1.71761 1.04888 1.04714C1.71927 0.376665 2.62852 1.60703e-08 3.57659 0C4.52467 -1.60698e-08 5.43392 0.376665 6.10431 1.04714L27.5256 22.471C27.8581 22.8027 28.1219 23.1968 28.3019 23.6306C28.4818 24.0644 28.5745 24.5294 28.5745 24.9991C28.5745 25.4687 28.4818 25.9338 28.3019 26.3676C28.1219 26.8014 27.8581 27.1954 27.5256 27.5271L6.10431 48.951C5.77267 49.2835 5.37869 49.5473 4.94494 49.7273C4.5112 49.9073 4.0462 50 3.5766 50C3.10699 50 2.642 49.9073 2.20825 49.7273C1.77451 49.5473 1.38052 49.2835 1.04888 48.951Z" fill="white"/>
        <path fill-rule="evenodd" clip-rule="evenodd" d="M48.9511 48.951C49.2836 48.6193 49.5474 48.2253 49.7274 47.7915C49.9074 47.3577 50 46.8926 50 46.423C50 45.9533 49.9074 45.4883 49.7274 45.0545C49.5474 44.6207 49.2836 44.2266 48.9511 43.8949L30.0504 24.9991L48.9511 6.10318C49.6215 5.43271 49.9981 4.52335 49.9981 3.57516C49.9981 2.62697 49.6215 1.71761 48.9511 1.04714C48.2807 0.376665 47.3715 1.60703e-08 46.4234 0C45.4753 -1.60698e-08 44.5661 0.376665 43.8957 1.04714L22.4744 22.471C22.1419 22.8027 21.8781 23.1968 21.6982 23.6306C21.5182 24.0644 21.4255 24.5294 21.4255 24.9991C21.4255 25.4687 21.5182 25.9338 21.6982 26.3676C21.8781 26.8014 22.1419 27.1954 22.4744 27.5271L43.8957 48.951C44.2273 49.2835 44.6213 49.5473 45.0551 49.7273C45.4888 49.9073 45.9538 50 46.4234 50C46.893 50 47.358 49.9073 47.7918 49.7273C48.2255 49.5473 48.6195 49.2835 48.9511 48.951Z" fill="white"/>
        </g>
        <defs>
        <clipPath id="clip0">
        <rect width="50" height="50" fill="white"/>
        </clipPath>
        </defs>
    </symbol>

    <!-- онлайн-консультант -->
    <symbol id="online-consult" viewBox="0 0 261 68" fill="none" xmlns="http://www.w3.org/2000/svg">
        <!-- <g filter="url(#filter0_d)"> -->
        <rect x="8" y="8" width="245" height="52" rx="3" fill="#E9477A"/>
        <path d="M69.2375 34.416C69.2375 37.552 71.7815 40.16 74.9495 40.16C78.1015 40.16 80.6455 37.552 80.6455 34.416C80.6455 31.264 78.1015 28.64 74.9495 28.64C71.7815 28.64 69.2375 31.264 69.2375 34.416ZM70.7575 34.416C70.7575 32 72.5655 29.984 74.9495 29.984C77.3175 29.984 79.1415 32 79.1415 34.416C79.1415 36.816 77.3175 38.816 74.9495 38.816C72.5655 38.816 70.7575 36.816 70.7575 34.416ZM90.6531 32.608C90.6531 32.208 90.3171 31.84 89.8851 31.84C89.4691 31.84 89.1331 32.208 89.1331 32.608V35.184H84.1731V32.608C84.1731 32.208 83.8371 31.84 83.4051 31.84C82.9891 31.84 82.6531 32.208 82.6531 32.608V39.392C82.6531 39.792 82.9891 40.16 83.4051 40.16C83.8371 40.16 84.1731 39.792 84.1731 39.392V36.544H89.1331V39.392C89.1331 39.792 89.4691 40.16 89.8851 40.16C90.3171 40.16 90.6531 39.792 90.6531 39.392V32.608ZM98.8674 33.36V39.392C98.8674 39.792 99.2034 40.16 99.6354 40.16C100.051 40.16 100.387 39.792 100.387 39.392V32.768C100.387 32.368 100.035 32 99.5554 32H94.8514C94.3714 32 94.0034 32.368 94.0034 32.784C94.0034 36.048 93.8434 37.488 92.7874 38.496C92.4514 38.784 92.0194 38.944 92.0194 39.44C92.0194 39.808 92.3234 40.16 92.7394 40.16C93.0914 40.16 93.3314 39.952 93.6034 39.696C95.0434 38.336 95.4434 36.384 95.5234 33.36H98.8674ZM110.506 32.608C110.506 32.176 110.154 31.84 109.738 31.84C109.354 31.84 108.97 32.176 108.97 32.608V33.024C108.41 32.4 107.562 31.84 106.266 31.84C104.138 31.84 102.314 33.648 102.314 35.984C102.314 38.32 104.106 40.16 106.266 40.16C107.562 40.16 108.41 39.6 108.97 38.976V39.392C108.97 39.808 109.322 40.16 109.738 40.16C110.154 40.16 110.506 39.808 110.506 39.392V32.608ZM109.082 36.064C109.082 37.6 108.042 38.848 106.474 38.848C104.874 38.848 103.754 37.52 103.754 35.984C103.754 34.448 104.906 33.168 106.474 33.168C108.01 33.168 109.082 34.352 109.082 35.872V36.064ZM112.745 32.592V39.28C112.745 39.648 113.033 40 113.497 40H113.929C114.137 40 114.441 39.904 114.649 39.648L118.713 34.64L119.273 33.84V39.392C119.273 39.792 119.577 40.16 119.993 40.16C120.409 40.16 120.745 39.792 120.745 39.392V32.72C120.745 32.352 120.457 32 119.977 32H119.593C119.385 32 119.065 32.096 118.857 32.352L114.793 37.376L114.217 38.192V32.592C114.217 32.208 113.881 31.84 113.465 31.84C113.049 31.84 112.745 32.208 112.745 32.592ZM117.913 28.816C117.913 29.184 117.593 29.76 116.889 29.76C116.169 29.76 115.849 29.184 115.849 28.816C115.849 28.464 115.561 28.176 115.177 28.176C114.825 28.176 114.553 28.464 114.553 28.816C114.553 30.016 115.689 30.912 116.889 30.912C118.105 30.912 119.225 30.016 119.225 28.816C119.225 28.464 118.969 28.176 118.601 28.176C118.233 28.176 117.913 28.464 117.913 28.816ZM131.356 32.608C131.356 32.208 131.02 31.84 130.588 31.84C130.172 31.84 129.836 32.208 129.836 32.608V35.184H124.876V32.608C124.876 32.208 124.54 31.84 124.108 31.84C123.692 31.84 123.356 32.208 123.356 32.608V39.392C123.356 39.792 123.692 40.16 124.108 40.16C124.54 40.16 124.876 39.792 124.876 39.392V36.544H129.836V39.392C129.836 39.792 130.172 40.16 130.588 40.16C131.02 40.16 131.356 39.792 131.356 39.392V32.608ZM137.843 36.624C138.195 36.624 138.483 36.336 138.483 35.968C138.483 35.616 138.195 35.312 137.843 35.312H134.195C133.827 35.312 133.523 35.616 133.523 35.968C133.523 36.336 133.827 36.624 134.195 36.624H137.843ZM142.91 35.232H142.062V32.608C142.062 32.208 141.742 31.84 141.326 31.84C140.878 31.84 140.558 32.208 140.558 32.608V39.392C140.558 39.792 140.878 40.16 141.326 40.16C141.742 40.16 142.062 39.792 142.062 39.392V36.576H142.814L146.19 39.968C146.27 40.048 146.462 40.16 146.686 40.16C147.102 40.16 147.326 39.856 147.326 39.472C147.326 39.28 147.278 39.088 147.102 38.928L143.966 35.872L145.614 33.984C146.446 33.04 147.006 33.136 147.006 32.496C147.006 32.112 146.718 31.84 146.318 31.84C145.758 31.84 145.214 32.448 144.686 33.088L142.91 35.232ZM156.307 35.984C156.307 33.68 154.435 31.84 152.115 31.84C149.779 31.84 147.939 33.664 147.939 35.984C147.939 38.304 149.747 40.16 152.115 40.16C154.451 40.16 156.307 38.272 156.307 35.984ZM154.867 35.984C154.867 37.504 153.683 38.848 152.115 38.848C150.531 38.848 149.347 37.504 149.347 35.984C149.347 34.464 150.579 33.168 152.115 33.168C153.667 33.168 154.867 34.464 154.867 35.984ZM166.231 32.608C166.231 32.208 165.895 31.84 165.463 31.84C165.047 31.84 164.711 32.208 164.711 32.608V35.184H159.751V32.608C159.751 32.208 159.415 31.84 158.983 31.84C158.567 31.84 158.231 32.208 158.231 32.608V39.392C158.231 39.792 158.567 40.16 158.983 40.16C159.415 40.16 159.751 39.792 159.751 39.392V36.544H164.711V39.392C164.711 39.792 165.047 40.16 165.463 40.16C165.895 40.16 166.231 39.792 166.231 39.392V32.608ZM172.318 33.168C172.91 33.168 173.294 33.312 173.566 33.456C173.726 33.536 173.87 33.664 174.11 33.664C174.478 33.664 174.814 33.344 174.814 32.96C174.814 32.624 174.59 32.416 174.35 32.288C173.998 32.112 173.342 31.84 172.318 31.84C169.998 31.84 168.158 33.648 168.158 35.984C168.158 38.32 169.934 40.16 172.334 40.16C173.358 40.16 174.158 39.84 174.526 39.616C174.75 39.456 174.926 39.312 174.926 38.976C174.926 38.592 174.606 38.272 174.222 38.272C174.03 38.272 173.918 38.336 173.79 38.416C173.55 38.576 172.99 38.848 172.334 38.848C170.718 38.848 169.566 37.504 169.566 35.984C169.566 34.464 170.814 33.168 172.318 33.168ZM178.988 41.456C178.78 41.984 178.316 42.16 177.884 42.16H177.612C177.228 42.16 176.94 42.448 176.94 42.832C176.94 43.216 177.228 43.52 177.612 43.52H178.14C179.26 43.52 180.076 42.8 180.524 41.632L183.772 33.088C183.82 32.96 183.916 32.704 183.916 32.576C183.916 32.176 183.564 31.84 183.148 31.84C182.812 31.84 182.524 32.064 182.412 32.352L179.948 38.944L177.196 32.352C177.052 32.016 176.764 31.84 176.508 31.84C176.012 31.84 175.724 32.192 175.724 32.576C175.724 32.656 175.74 32.8 175.788 32.912L178.476 39.216C178.636 39.584 178.86 39.936 179.58 39.936L178.988 41.456ZM190.711 33.36V39.392C190.711 39.792 191.047 40.16 191.479 40.16C191.895 40.16 192.231 39.792 192.231 39.392V32.768C192.231 32.368 191.879 32 191.399 32H186.695C186.215 32 185.847 32.368 185.847 32.784C185.847 36.048 185.687 37.488 184.631 38.496C184.295 38.784 183.863 38.944 183.863 39.44C183.863 39.808 184.167 40.16 184.583 40.16C184.935 40.16 185.175 39.952 185.447 39.696C186.887 38.336 187.287 36.384 187.367 33.36H190.711ZM194.638 39.232C194.638 39.632 195.038 40 195.47 40H198.67C200.67 40 201.517 38.848 201.517 37.488C201.517 36.192 200.67 34.976 198.67 34.976H196.158V32.608C196.158 32.208 195.822 31.84 195.39 31.84C194.974 31.84 194.638 32.208 194.638 32.608V39.232ZM196.158 36.32H198.75C199.518 36.32 200.046 36.752 200.046 37.488C200.046 38.256 199.518 38.656 198.75 38.656H196.158V36.32ZM207.896 32H201.864C201.448 32 201.144 32.272 201.144 32.672C201.144 33.088 201.448 33.36 201.864 33.36H204.12V39.392C204.12 39.792 204.456 40.16 204.872 40.16C205.304 40.16 205.64 39.792 205.64 39.392V33.36H207.896C208.312 33.36 208.616 33.088 208.616 32.672C208.616 32.272 208.312 32 207.896 32ZM217.24 32.608C217.24 32.176 216.888 31.84 216.472 31.84C216.088 31.84 215.704 32.176 215.704 32.608V33.024C215.144 32.4 214.296 31.84 213 31.84C210.872 31.84 209.048 33.648 209.048 35.984C209.048 38.32 210.84 40.16 213 40.16C214.296 40.16 215.144 39.6 215.704 38.976V39.392C215.704 39.808 216.056 40.16 216.472 40.16C216.888 40.16 217.24 39.808 217.24 39.392V32.608ZM215.816 36.064C215.816 37.6 214.776 38.848 213.208 38.848C211.608 38.848 210.488 37.52 210.488 35.984C210.488 34.448 211.64 33.168 213.208 33.168C214.744 33.168 215.816 34.352 215.816 35.872V36.064ZM227.559 32.608C227.559 32.208 227.223 31.84 226.791 31.84C226.375 31.84 226.039 32.208 226.039 32.608V35.184H221.079V32.608C221.079 32.208 220.743 31.84 220.311 31.84C219.895 31.84 219.559 32.208 219.559 32.608V39.392C219.559 39.792 219.895 40.16 220.311 40.16C220.743 40.16 221.079 39.792 221.079 39.392V36.544H226.039V39.392C226.039 39.792 226.375 40.16 226.791 40.16C227.223 40.16 227.559 39.792 227.559 39.392V32.608ZM235.678 32H229.646C229.23 32 228.926 32.272 228.926 32.672C228.926 33.088 229.23 33.36 229.646 33.36H231.902V39.392C231.902 39.792 232.238 40.16 232.654 40.16C233.086 40.16 233.422 39.792 233.422 39.392V33.36H235.678C236.094 33.36 236.398 33.088 236.398 32.672C236.398 32.272 236.094 32 235.678 32Z" fill="white"/>
        <path d="M34.9865 23.802C34.2705 23.942 33.4865 24.406 32.8705 25.494C32.8056 25.6082 32.7189 25.7086 32.6152 25.7893C32.5115 25.87 32.393 25.9295 32.2663 25.9645C32.1397 25.9994 32.0074 26.009 31.877 25.9928C31.7466 25.9766 31.6207 25.9348 31.5065 25.87C31.3922 25.8051 31.2919 25.7184 31.2111 25.6147C31.1304 25.511 31.0709 25.3925 31.036 25.2658C31.0011 25.1392 30.9914 25.0069 31.0076 24.8765C31.0239 24.7461 31.0656 24.6202 31.1305 24.506C32.0125 22.954 33.2665 22.1 34.6025 21.84C35.8456 21.6052 37.1312 21.8642 38.1865 22.562C39.1545 23.202 39.9365 24.248 39.9605 25.502C39.9865 26.812 39.1905 27.994 37.7225 28.862C36.7265 29.45 36.3385 29.85 36.1725 30.116C36.0325 30.34 36.0005 30.544 36.0005 31C36.0005 31.2652 35.8951 31.5195 35.7076 31.7071C35.52 31.8946 35.2657 32 35.0005 32C34.7353 32 34.4809 31.8946 34.2934 31.7071C34.1058 31.5195 34.0005 31.2652 34.0005 31C34.0005 30.456 34.0285 29.78 34.4745 29.06C34.8945 28.386 35.6125 27.786 36.7045 27.14C37.7745 26.506 37.9685 25.904 37.9625 25.544C37.9525 25.13 37.6785 24.624 37.0825 24.23C36.4654 23.8217 35.7142 23.6683 34.9865 23.802Z" fill="white"/>
        <path d="M35.5 37C35.8978 37 36.2794 36.842 36.5607 36.5607C36.842 36.2794 37 35.8978 37 35.5C37 35.1022 36.842 34.7206 36.5607 34.4393C36.2794 34.158 35.8978 34 35.5 34C35.1022 34 34.7206 34.158 34.4393 34.4393C34.158 34.7206 34 35.1022 34 35.5C34 35.8978 34.158 36.2794 34.4393 36.5607C34.7206 36.842 35.1022 37 35.5 37Z" fill="white"/>
        <path d="M35.0016 16C32.7345 15.9995 30.5068 16.5918 28.5394 17.7182C26.572 18.8446 24.9334 20.4659 23.7861 22.4212C22.6388 24.3765 22.0228 26.5978 21.9992 28.8647C21.9756 31.1316 22.5453 33.3652 23.6516 35.344L22.0616 39.508C21.9292 39.8541 21.8957 40.2302 21.9646 40.5944C22.0336 40.9585 22.2023 41.2963 22.452 41.57C22.7018 41.8438 23.0227 42.0429 23.3789 42.1449C23.7352 42.247 24.1128 42.248 24.4696 42.148L29.4436 40.754C31.2056 41.5865 33.1322 42.0123 35.0809 41.9997C37.0296 41.9872 38.9506 41.5367 40.7017 40.6816C42.4528 39.8265 43.9893 38.5886 45.1974 37.0596C46.4056 35.5305 47.2545 33.7494 47.6815 31.848C48.1084 29.9466 48.1024 27.9735 47.6639 26.0747C47.2253 24.1759 46.3656 22.4 45.1481 20.8784C43.9306 19.3567 42.3866 18.1282 40.6303 17.2838C38.874 16.4394 36.9503 16.0006 35.0016 16ZM24.0016 29C24.0025 26.6029 24.7864 24.2716 26.2341 22.361C27.6817 20.4504 29.7139 19.0649 32.0214 18.4155C34.3289 17.766 36.7854 17.8881 39.0171 18.7632C41.2488 19.6383 43.1336 21.2184 44.3846 23.2632C45.6357 25.308 46.1846 27.7054 45.9478 30.0909C45.7109 32.4763 44.7014 34.719 43.0726 36.4779C41.4439 38.2367 39.2853 39.4154 36.9251 39.8346C34.5648 40.2538 32.1323 39.8905 29.9976 38.8L29.6496 38.62L23.9296 40.222L25.8676 35.15L25.6116 34.73C24.5559 33.0054 23.9986 31.0221 24.0016 29Z" fill="white"/>
        <path d="M40.9282 48C39.0569 48.0021 37.2072 47.5992 35.5063 46.819C33.8054 46.0388 32.2934 44.8997 31.0742 43.48C32.2002 43.786 33.3802 43.962 34.5942 43.994C36.4468 45.3026 38.6601 46.0035 40.9282 46C42.7322 46 44.4322 45.566 45.9322 44.8L46.2802 44.62L52.0002 46.222L50.0622 41.15L50.3182 40.73C51.3382 39.062 51.9282 37.102 51.9282 35C51.9313 32.7791 51.2589 30.6098 50.0002 28.78C49.9838 27.5902 49.8261 26.4066 49.5302 25.254C50.914 26.4725 52.022 27.9721 52.7804 29.6527C53.5388 31.3332 53.9301 33.1562 53.9282 35C53.9282 37.302 53.3282 39.466 52.2762 41.344L53.8682 45.508C54.0004 45.854 54.0338 46.2298 53.965 46.5937C53.8961 46.9575 53.7275 47.2951 53.4781 47.5688C53.2286 47.8425 52.9081 48.0416 52.5522 48.1439C52.1962 48.2461 51.8189 48.2476 51.4622 48.148L46.4862 46.754C44.8002 47.554 42.9142 48 40.9262 48H40.9282Z" fill="white"/>
        </g>
        <defs>
        <filter id="filter0_d" x="0" y="0" width="261" height="68" filterUnits="userSpaceOnUse" color-interpolation-filters="sRGB">
        <feFlood flood-opacity="0" result="BackgroundImageFix"/>
        <feColorMatrix in="SourceAlpha" type="matrix" values="0 0 0 0 0 0 0 0 0 0 0 0 0 0 0 0 0 0 127 0"/>
        <feOffset/>
        <feGaussianBlur stdDeviation="4"/>
        <feColorMatrix type="matrix" values="0 0 0 0 0 0 0 0 0 0 0 0 0 0 0 0 0 0 0.25 0"/>
        <feBlend mode="normal" in2="BackgroundImageFix" result="effect1_dropShadow"/>
        <feBlend mode="normal" in="SourceGraphic" in2="effect1_dropShadow" result="shape"/>
        </filter>
        </defs>
    </symbol>

    <symbol id="busket-bonus-card" viewBox="0 0 70 50" fill="none" xmlns="http://www.w3.org/2000/svg">
        <g filter="url(#filter0_d)">
        <g clip-path="url(#clip0)">
        <rect x="8" y="7" width="54" height="34" rx="5" fill="white"/>
        <path d="M46.6596 13.6504C49.3893 10.9199 49.3893 6.49286 46.6596 3.76236C43.9299 1.03187 39.5042 1.03187 36.7746 3.76236C34.0449 6.49286 34.0449 10.9199 36.7746 13.6504C39.5042 16.3809 43.9299 16.3809 46.6596 13.6504Z" fill="#BFC22D"/>
        <path d="M41.7449 16.1034C42.1083 16.1026 42.4026 15.9914 42.4022 15.855C42.4019 15.7187 42.1071 15.6088 41.7438 15.6097C41.3805 15.6105 41.0862 15.7217 41.0865 15.858C41.0868 15.9944 41.3816 16.1042 41.7449 16.1034Z" fill="#BFC22D"/>
        <path d="M41.634 15.7742L41.168 16.5419C41.1132 16.6242 41.168 16.7064 41.2776 16.7064H42.2096C42.2918 16.7064 42.3467 16.5967 42.3193 16.5419L41.8533 15.7742C41.7984 15.6919 41.6888 15.6919 41.634 15.7742Z" fill="#BFC22D"/>
        <path d="M41.7422 16.5693L41.8792 44.5097" stroke="#BFC22D" stroke-width="1.3125" stroke-miterlimit="10"/>
        <path d="M62.4537 15.5362C65.4831 12.5059 65.4831 7.59282 62.4537 4.56251C59.4243 1.5322 54.5127 1.53219 51.4833 4.56251C48.4539 7.59282 48.4539 12.5059 51.4833 15.5362C54.5127 18.5666 59.4243 18.5666 62.4537 15.5362Z" fill="#CA4475"/>
        <path d="M56.9835 18.2422C57.3923 18.2413 57.7234 18.1177 57.723 17.9662C57.7227 17.8147 57.391 17.6926 56.9823 17.6936C56.5735 17.6945 56.2425 17.8181 56.2428 17.9696C56.2432 18.1211 56.5748 18.2431 56.9835 18.2422Z" fill="#CA4475"/>
        <path d="M56.8744 17.858L56.3535 18.708C56.2987 18.7903 56.3535 18.9 56.4632 18.9H57.5048C57.6145 18.9 57.6693 18.7903 57.6145 18.708L57.0936 17.858C57.0388 17.7758 56.9292 17.7758 56.8744 17.858Z" fill="#CA4475"/>
        <path d="M57.0117 18.7629L57.0391 42.7" stroke="#CA4475" stroke-width="1.3125" stroke-miterlimit="10"/>
        <path d="M55.7765 33.5503C59.1698 30.1559 59.1698 24.6525 55.7765 21.2582C52.3831 17.8638 46.8814 17.8638 43.488 21.2582C40.0946 24.6525 40.0946 30.1559 43.488 33.5503C46.8814 36.9447 52.3831 36.9447 55.7765 33.5503Z" fill="#679BD4"/>
        <path d="M49.6656 36.6404C50.1198 36.6394 50.4876 36.4912 50.4872 36.3095C50.4868 36.1278 50.1183 35.9813 49.6641 35.9823C49.21 35.9834 48.8421 36.1315 48.8425 36.3132C48.843 36.4949 49.2115 36.6414 49.6656 36.6404Z" fill="#679BD4"/>
        <path d="M49.5268 36.1742L48.9512 37.1339C48.8964 37.2162 48.9512 37.3533 49.0608 37.3533H50.2121C50.3218 37.3533 50.3766 37.2436 50.3218 37.1339L49.7461 36.1742C49.7187 36.092 49.5817 36.092 49.5268 36.1742Z" fill="#679BD4"/>
        <path d="M49.6641 37.1887L49.6915 43.1936" stroke="#679BD4" stroke-width="1.3125" stroke-miterlimit="10"/>
        <path d="M14.8536 35.7082C14.8536 35.5985 14.9084 35.5162 15.0729 35.5162C15.1277 35.5162 15.2373 35.5436 15.2373 35.5985C15.2373 35.6259 15.2373 35.6533 15.1825 35.6533H15.1551C15.1277 35.6533 15.1277 35.6259 15.0729 35.6259C15.018 35.6259 14.9906 35.6533 14.9906 35.7082V35.8454C14.9906 35.9002 15.018 35.9277 15.0729 35.9277C15.1003 35.9277 15.1277 35.9277 15.1551 35.9002H15.1825C15.2373 35.9002 15.2373 35.9277 15.2373 35.9551C15.2373 36.0374 15.1277 36.0374 15.0455 36.0374C14.9084 36.0374 14.8262 35.9551 14.8262 35.8454V35.7082H14.8536Z" fill="#679BD4"/>
        <path d="M15.6493 35.5436C15.6493 35.5161 15.6767 35.4887 15.7041 35.4887C15.7315 35.4887 15.7864 35.5161 15.7864 35.5436C15.7864 35.5436 15.7864 35.5435 15.7864 35.571L15.6493 35.9274C15.5945 36.0919 15.5397 36.229 15.4026 36.229C15.3478 36.229 15.3204 36.2016 15.3204 36.1742C15.3204 36.1468 15.3478 36.1194 15.3752 36.1194C15.43 36.1194 15.4574 36.0919 15.4574 36.0097L15.293 35.5984V35.571C15.293 35.5435 15.3204 35.5161 15.3752 35.5161C15.4026 35.5161 15.43 35.5435 15.43 35.571L15.4848 35.7355C15.5123 35.7629 15.5123 35.8177 15.5123 35.8452C15.5123 35.8177 15.5397 35.7629 15.5397 35.7355L15.6493 35.5436Z" fill="#679BD4"/>
        <path d="M16.2236 35.5161C16.251 35.5161 16.3058 35.5435 16.3058 35.571V35.9824C16.3058 36.0099 16.2784 36.0373 16.2236 36.0373C16.1688 36.0373 16.1414 36.0099 16.1414 35.9824V35.6258H16.0043V35.9824C16.0043 36.0099 15.9769 36.0373 15.9221 36.0373C15.8947 36.0373 15.8398 36.0099 15.8398 35.9824V35.571C15.8398 35.5435 15.8673 35.5161 15.9221 35.5161H16.2236Z" fill="#679BD4"/>
        <path d="M16.5531 35.8179V35.8453C16.5531 35.8727 16.5805 35.9001 16.6354 35.9001C16.6628 35.9001 16.6902 35.9001 16.7176 35.8727C16.7176 35.8727 16.7176 35.8727 16.745 35.8727C16.7998 35.8727 16.7998 35.9001 16.7998 35.9276C16.7998 36.0099 16.6628 36.0099 16.608 36.0099C16.4709 36.0099 16.3887 35.9276 16.3887 35.8179V35.6533C16.3887 35.5435 16.4709 35.4612 16.608 35.4612C16.745 35.4612 16.7998 35.5435 16.7998 35.6258C16.7998 35.7356 16.745 35.7904 16.608 35.7904C16.608 35.8453 16.5805 35.8453 16.5531 35.8179ZM16.6354 35.5984C16.5805 35.5984 16.5531 35.6258 16.5531 35.6533V35.7081C16.5805 35.7081 16.608 35.7081 16.6354 35.7081C16.6628 35.7081 16.6902 35.7081 16.6902 35.6533C16.6902 35.6258 16.6628 35.5984 16.6354 35.5984Z" fill="#679BD4"/>
        <path d="M17.0747 36.0097V36.1742C17.0747 36.2016 17.0473 36.229 16.9925 36.229C16.9376 36.229 16.9102 36.2016 16.9102 36.1742V35.6532C16.9102 35.6258 16.9102 35.6258 16.9102 35.5984L16.8828 35.571C16.8828 35.5435 16.9102 35.5161 16.965 35.5161C16.9925 35.5161 16.9925 35.5161 17.0199 35.5436C17.0747 35.5161 17.1021 35.4887 17.1569 35.4887C17.2666 35.4887 17.3488 35.571 17.3488 35.6806V35.7903C17.3488 35.9 17.294 36.0097 17.1569 36.0097C17.1569 36.0371 17.1295 36.0371 17.0747 36.0097ZM17.0747 35.9C17.1021 35.9 17.1295 35.9 17.1569 35.9C17.2117 35.9 17.2392 35.8726 17.2392 35.7903V35.6806C17.2392 35.6258 17.2117 35.5984 17.1843 35.5984C17.1569 35.5984 17.1295 35.5984 17.1021 35.6258C17.1021 35.6258 17.1021 35.6258 17.1021 35.6532V35.9H17.0747Z" fill="#679BD4"/>
        <path d="M17.7586 35.955C17.7311 35.955 17.7037 35.9276 17.7037 35.9276L17.6215 35.7904V35.9824C17.6215 36.0099 17.5941 36.0373 17.5393 36.0373C17.5119 36.0373 17.457 36.0099 17.457 35.9824V35.571C17.457 35.5435 17.4844 35.5161 17.5393 35.5161C17.5667 35.5161 17.5941 35.5435 17.5941 35.5435L17.7311 35.7904L17.8682 35.5435C17.8956 35.5161 17.8956 35.5161 17.923 35.5161C17.9778 35.5161 18.0053 35.5435 18.0053 35.571V35.9824C18.0053 36.0099 17.9778 36.0373 17.923 36.0373C17.8956 36.0373 17.8408 36.0099 17.8408 35.9824V35.7904L17.7586 35.9276C17.8134 35.9276 17.786 35.955 17.7586 35.955Z" fill="#679BD4"/>
        <path d="M18.5812 35.9001C18.5812 35.9276 18.6086 35.9276 18.6086 35.9276C18.636 35.9276 18.636 35.955 18.636 35.955C18.636 35.9824 18.6086 36.0099 18.5537 36.0099C18.5263 36.0099 18.4989 36.0099 18.4715 35.955C18.4441 35.9824 18.3893 36.0099 18.3345 36.0099C18.2248 36.0099 18.1426 35.955 18.1426 35.8453C18.1426 35.7356 18.2248 35.6807 18.3345 35.6807C18.3619 35.6807 18.3893 35.6807 18.4167 35.6807V35.6533C18.4167 35.5984 18.3893 35.571 18.3345 35.571C18.307 35.571 18.2796 35.571 18.2796 35.5984H18.2522C18.1974 35.5984 18.1974 35.571 18.1974 35.5435C18.1974 35.4887 18.2796 35.4612 18.3619 35.4612C18.4989 35.4612 18.5812 35.5435 18.5812 35.6807V35.9001ZM18.307 35.8727C18.307 35.9001 18.3345 35.9276 18.3619 35.9276C18.3893 35.9276 18.4167 35.9276 18.4441 35.9001V35.8179C18.4167 35.8179 18.3893 35.8179 18.3619 35.8179C18.307 35.8179 18.307 35.8453 18.307 35.8727Z" fill="#679BD4"/>
        <path d="M18.8833 36.0097V36.1742C18.8833 36.2016 18.8559 36.229 18.8011 36.229C18.7462 36.229 18.7188 36.2016 18.7188 36.1742V35.6532C18.7188 35.6258 18.7188 35.6258 18.7188 35.5984L18.6914 35.571C18.6914 35.5435 18.7188 35.5161 18.7736 35.5161C18.8011 35.5161 18.8011 35.5161 18.8285 35.5436C18.8833 35.5161 18.9107 35.4887 18.9655 35.4887C19.0752 35.4887 19.1574 35.571 19.1574 35.6806V35.7903C19.1574 35.9 19.1026 36.0097 18.9655 36.0097C18.9381 36.0371 18.9107 36.0371 18.8833 36.0097ZM18.8833 35.9C18.9107 35.9 18.9381 35.9 18.9655 35.9C19.0203 35.9 19.0478 35.8726 19.0478 35.7903V35.6806C19.0478 35.6258 19.0203 35.5984 18.9929 35.5984C18.9655 35.5984 18.9381 35.5984 18.9107 35.6258C18.9107 35.6258 18.9107 35.6258 18.9107 35.6532V35.9H18.8833Z" fill="#679BD4"/>
        <path d="M19.432 35.8453V35.9824C19.432 36.0099 19.4046 36.0373 19.3498 36.0373C19.3224 36.0373 19.2676 36.0099 19.2676 35.9824V35.571C19.2676 35.5435 19.295 35.5161 19.3498 35.5161C19.3772 35.5161 19.432 35.5435 19.432 35.571V35.7081H19.4595L19.5965 35.5435C19.6239 35.5161 19.6239 35.5161 19.6513 35.5161C19.6787 35.5161 19.7062 35.5435 19.7336 35.571V35.5984L19.5965 35.763L19.7336 35.9276V35.955C19.7336 35.9825 19.7062 36.0099 19.6513 36.0099C19.6239 36.0099 19.5965 36.0099 19.5965 35.9824L19.432 35.8453Z" fill="#679BD4"/>
        <path d="M19.8969 35.8179V35.8453C19.8969 35.8727 19.9243 35.9001 19.9791 35.9001C20.0065 35.9001 20.0339 35.9001 20.0614 35.8727C20.0614 35.8727 20.0614 35.8727 20.0888 35.8727C20.1436 35.8727 20.1436 35.9001 20.1436 35.9276C20.1436 36.0099 20.0065 36.0099 19.9517 36.0099C19.8147 36.0099 19.7324 35.9276 19.7324 35.8179V35.6533C19.7324 35.5435 19.8147 35.4612 19.9517 35.4612C20.0888 35.4612 20.1436 35.5435 20.1436 35.6258C20.1436 35.7356 20.0888 35.7904 19.9517 35.7904C19.9517 35.8453 19.9243 35.8453 19.8969 35.8179ZM19.9791 35.5984C19.9243 35.5984 19.8969 35.6258 19.8969 35.6533V35.7081C19.9243 35.7081 19.9517 35.7081 19.9791 35.7081C20.0065 35.7081 20.0339 35.7081 20.0339 35.6533C20.0339 35.6258 20.0065 35.5984 19.9791 35.5984Z" fill="#679BD4"/>
        <path d="M20.5261 35.9824C20.5261 36.0098 20.4987 36.0373 20.4439 36.0373C20.3891 36.0373 20.3617 36.0098 20.3617 35.9824V35.6532H20.2794C20.252 35.6532 20.2246 35.6258 20.2246 35.5984C20.2246 35.5709 20.252 35.5435 20.2794 35.5435H20.581C20.6084 35.5435 20.6358 35.5709 20.6358 35.5984C20.6358 35.6258 20.6084 35.6532 20.581 35.6532H20.4987V35.9824H20.5261Z" fill="#679BD4"/>
        <path d="M21.4329 35.5161C21.4877 35.5161 21.4877 35.571 21.4877 35.571V35.9C21.5425 35.9 21.5425 35.9548 21.5425 35.9548V36.0919C21.5425 36.1194 21.5151 36.1468 21.4603 36.1468C21.4329 36.1468 21.378 36.1194 21.378 36.0919V36.0097H21.1039V36.0919C21.1039 36.1194 21.0765 36.1468 21.0217 36.1468C20.9943 36.1468 20.9395 36.1194 20.9395 36.0919V35.9548C20.9395 35.9274 20.9395 35.9 20.9943 35.9C21.0217 35.8726 21.0491 35.8177 21.0491 35.7355V35.5436C21.0491 35.5161 21.0765 35.4887 21.1039 35.4887H21.4329V35.5161ZM21.2136 35.9274H21.3506V35.6258H21.241V35.7629C21.241 35.8177 21.241 35.8726 21.2136 35.9274Z" fill="#679BD4"/>
        <path d="M21.7875 35.8179V35.8453C21.7875 35.8727 21.8149 35.9001 21.8697 35.9001C21.8972 35.9001 21.9246 35.9001 21.952 35.8727C21.952 35.8727 21.952 35.8727 21.9794 35.8727C22.0342 35.8727 22.0342 35.9001 22.0342 35.9276C22.0342 36.0099 21.8972 36.0099 21.8423 36.0099C21.7053 36.0099 21.623 35.9276 21.623 35.8179V35.6533C21.623 35.5435 21.7053 35.4612 21.8423 35.4612C21.9794 35.4612 22.0342 35.5435 22.0342 35.6258C22.0342 35.7356 21.9794 35.7904 21.8423 35.7904C21.8423 35.8453 21.8149 35.8453 21.7875 35.8179ZM21.8423 35.5984C21.7875 35.5984 21.7601 35.6258 21.7601 35.6533V35.7081C21.7875 35.7081 21.8149 35.7081 21.8423 35.7081C21.8697 35.7081 21.8972 35.7081 21.8972 35.6533C21.9246 35.6258 21.8972 35.5984 21.8423 35.5984Z" fill="#679BD4"/>
        <path d="M22.3914 35.9824C22.3914 36.0098 22.364 36.0373 22.3091 36.0373C22.2543 36.0373 22.2269 36.0098 22.2269 35.9824V35.6532H22.1447C22.1173 35.6532 22.0898 35.6258 22.0898 35.5984C22.0898 35.5709 22.1173 35.5435 22.1447 35.5435H22.4462C22.4736 35.5435 22.501 35.5709 22.501 35.5984C22.501 35.6258 22.4736 35.6532 22.4462 35.6532H22.364V35.9824H22.3914Z" fill="#679BD4"/>
        <path d="M22.6114 35.7081C22.6114 35.5984 22.6662 35.5161 22.8307 35.5161C22.8855 35.5161 22.9952 35.5435 22.9952 35.5984C22.9952 35.6258 22.9952 35.6533 22.9403 35.6533H22.9129C22.8855 35.6533 22.8855 35.6258 22.8307 35.6258C22.7759 35.6258 22.7485 35.6533 22.7485 35.7081V35.8453C22.7485 35.9002 22.7759 35.9276 22.8307 35.9276C22.8581 35.9276 22.8855 35.9276 22.9129 35.9002H22.9403C22.9952 35.9002 22.9952 35.9276 22.9952 35.955C22.9952 36.0373 22.8855 36.0373 22.8033 36.0373C22.6662 36.0373 22.584 35.955 22.584 35.8453V35.7081H22.6114Z" fill="#679BD4"/>
        <path d="M23.2152 35.8453V35.9824C23.2152 36.0099 23.1878 36.0373 23.133 36.0373C23.1056 36.0373 23.0508 36.0099 23.0508 35.9824V35.571C23.0508 35.5435 23.0782 35.5161 23.133 35.5161C23.1604 35.5161 23.2152 35.5435 23.2152 35.571V35.7081H23.2427L23.3797 35.5435C23.4071 35.5161 23.4071 35.5161 23.4345 35.5161C23.4619 35.5161 23.4894 35.5435 23.5168 35.571V35.5984L23.3797 35.763L23.5168 35.9276V35.955C23.5168 35.9825 23.4894 36.0099 23.4345 36.0099C23.4071 36.0099 23.3797 36.0099 23.3797 35.9824L23.2152 35.8453Z" fill="#679BD4"/>
        <path d="M23.5703 35.9824V35.571C23.5703 35.5435 23.5977 35.5161 23.6525 35.5161C23.68 35.5161 23.7348 35.5435 23.7348 35.571V35.8179L23.8992 35.5435C23.8992 35.5161 23.9267 35.5161 23.9815 35.5161C24.0363 35.5161 24.0637 35.5435 24.0637 35.571V35.9824C24.0637 36.0099 24.0363 36.0373 23.9815 36.0373C23.9267 36.0373 23.8992 36.0099 23.8992 35.9824V35.7356L23.7348 36.0099C23.7074 36.0373 23.7074 36.0373 23.68 36.0373C23.5977 36.0373 23.5703 36.0099 23.5703 35.9824Z" fill="#679BD4"/>
        <path d="M24.5558 35.955V35.9824C24.5558 36.0099 24.5284 36.0373 24.4736 36.0373C24.4462 36.0373 24.4188 36.0373 24.4188 36.0099C24.3914 35.955 24.364 35.9276 24.3365 35.8727C24.3091 35.9276 24.2817 35.955 24.2269 36.0099C24.1995 36.0373 24.1995 36.0373 24.1721 36.0373C24.1447 36.0373 24.0898 36.0099 24.0898 35.9824V35.955C24.1447 35.9002 24.1721 35.8453 24.2269 35.763C24.1721 35.7081 24.1447 35.6533 24.0898 35.5984V35.571C24.0898 35.5435 24.1173 35.5161 24.1721 35.5161C24.1995 35.5161 24.2269 35.5435 24.2543 35.571L24.3365 35.6807L24.4188 35.571C24.4462 35.5435 24.4462 35.5435 24.4736 35.5435C24.501 35.5435 24.5558 35.571 24.5558 35.5984V35.6258L24.4188 35.7904L24.5558 35.955Z" fill="#679BD4"/>
        <path d="M25.2155 35.9824C25.2155 36.0098 25.1881 36.0373 25.1333 36.0373C25.1059 36.0373 25.051 36.0098 25.051 35.9824V35.6532H24.9962C24.9688 35.6532 24.9414 35.6258 24.9414 35.5984C24.9414 35.5709 24.9688 35.5435 24.9962 35.5435H25.2977C25.3252 35.5435 25.3526 35.5709 25.3526 35.5984C25.3526 35.6258 25.3252 35.6532 25.2977 35.6532H25.2155V35.9824Z" fill="#679BD4"/>
        <path d="M25.4062 35.8453V35.6807C25.4062 35.571 25.4885 35.4887 25.6255 35.4887C25.7626 35.4887 25.8448 35.571 25.8448 35.6807V35.8453C25.8448 35.955 25.7626 36.0373 25.6255 36.0373C25.4885 36.0373 25.4062 35.955 25.4062 35.8453ZM25.7352 35.8453V35.6807C25.7352 35.6259 25.7078 35.5984 25.653 35.5984C25.5981 35.5984 25.5707 35.6259 25.5707 35.6807V35.8453C25.5707 35.9002 25.5981 35.9276 25.653 35.9276C25.7078 35.9276 25.7352 35.9002 25.7352 35.8453Z" fill="#679BD4"/>
        <path d="M26.3113 35.763C26.3935 35.7904 26.4209 35.8179 26.4209 35.8727C26.4209 35.955 26.3661 36.0099 26.2291 36.0099H26.092C26.0646 36.0099 26.0098 35.9824 26.0098 35.955V35.571C26.0098 35.5435 26.0372 35.5161 26.092 35.5161H26.2291C26.3661 35.5161 26.4209 35.571 26.4209 35.6533C26.3935 35.7081 26.3661 35.7356 26.3113 35.763ZM26.1194 35.7081H26.1742C26.2291 35.7081 26.2291 35.6807 26.2291 35.6533C26.2291 35.6258 26.2016 35.5984 26.1742 35.5984H26.1194V35.7081ZM26.2016 35.8179H26.1468V35.9276H26.2291C26.2839 35.9276 26.2839 35.9002 26.2839 35.8727C26.2565 35.8453 26.2565 35.8179 26.2016 35.8179Z" fill="#679BD4"/>
        <path d="M26.9132 35.9001C26.9132 35.9276 26.9406 35.9276 26.9406 35.9276C26.968 35.9276 26.968 35.955 26.968 35.955C26.968 35.9824 26.9406 36.0099 26.8858 36.0099C26.8584 36.0099 26.831 36.0099 26.8035 35.955C26.7761 35.9824 26.7213 36.0099 26.6665 36.0099C26.5568 36.0099 26.4746 35.955 26.4746 35.8453C26.4746 35.7356 26.5568 35.6807 26.6665 35.6807C26.6939 35.6807 26.7213 35.6807 26.7487 35.6807V35.6533C26.7487 35.5984 26.7213 35.571 26.6665 35.571C26.6391 35.571 26.6117 35.571 26.6117 35.5984H26.5843C26.5294 35.5984 26.5294 35.571 26.5294 35.5435C26.5294 35.4887 26.6117 35.4612 26.6939 35.4612C26.831 35.4612 26.9132 35.5435 26.9132 35.6807V35.9001ZM26.6117 35.8727C26.6117 35.9001 26.6391 35.9276 26.6665 35.9276C26.6939 35.9276 26.7213 35.9276 26.7487 35.9001V35.8179C26.7213 35.8179 26.6939 35.8179 26.6665 35.8179C26.6391 35.8179 26.6117 35.8453 26.6117 35.8727Z" fill="#679BD4"/>
        <path d="M27.188 36.0097V36.1742C27.188 36.2016 27.1606 36.229 27.1057 36.229C27.0509 36.229 27.0235 36.2016 27.0235 36.1742V35.6532C27.0235 35.6258 27.0235 35.6258 27.0235 35.5984L26.9961 35.571C26.9961 35.5435 27.0235 35.5161 27.0783 35.5161C27.1057 35.5161 27.1057 35.5161 27.1332 35.5436C27.188 35.5161 27.2154 35.4887 27.2702 35.4887C27.3799 35.4887 27.4621 35.571 27.4621 35.6806V35.7903C27.4621 35.9 27.4073 36.0097 27.2702 36.0097C27.2702 36.0371 27.2428 36.0371 27.188 36.0097ZM27.188 35.9C27.2154 35.9 27.2428 35.9 27.2702 35.9C27.325 35.9 27.3524 35.8726 27.3524 35.7903V35.6806C27.3524 35.6258 27.325 35.5984 27.2976 35.5984C27.2702 35.5984 27.2428 35.5984 27.2154 35.6258C27.2154 35.6258 27.2154 35.6258 27.2154 35.6532V35.9H27.188Z" fill="#679BD4"/>
        <path d="M27.5723 35.8453V35.6807C27.5723 35.571 27.6545 35.4887 27.7915 35.4887C27.9286 35.4887 28.0108 35.571 28.0108 35.6807V35.8453C28.0108 35.955 27.9286 36.0373 27.7915 36.0373C27.6545 36.0373 27.5723 35.955 27.5723 35.8453ZM27.8738 35.8453V35.6807C27.8738 35.6259 27.8464 35.5984 27.7915 35.5984C27.7367 35.5984 27.7093 35.6259 27.7093 35.6807V35.8453C27.7093 35.9002 27.7367 35.9276 27.7915 35.9276C27.8464 35.9276 27.8738 35.9002 27.8738 35.8453Z" fill="#679BD4"/>
        <path d="M28.45 35.763C28.5322 35.7904 28.5596 35.8179 28.5596 35.8727C28.5596 35.955 28.5048 36.0099 28.3677 36.0099H28.2307C28.2033 36.0099 28.1484 35.9824 28.1484 35.955V35.571C28.1484 35.5435 28.1758 35.5161 28.2307 35.5161H28.3677C28.5048 35.5161 28.5596 35.571 28.5596 35.6533C28.5596 35.7081 28.5322 35.7356 28.45 35.763ZM28.2855 35.7081H28.3403C28.3951 35.7081 28.3951 35.6807 28.3951 35.6533C28.3951 35.6258 28.3677 35.5984 28.3403 35.5984H28.2855V35.7081ZM28.3403 35.8179H28.2855V35.9276H28.3677C28.4225 35.9276 28.4225 35.9002 28.4225 35.8727C28.4225 35.8453 28.4225 35.8179 28.3403 35.8179Z" fill="#679BD4"/>
        <path d="M24.7489 29.4565C24.4474 29.0452 24.1733 28.6339 23.8718 28.2226L23.954 28.1403C24.1459 27.9484 24.3378 27.7565 24.5296 27.5645C24.8038 27.3177 24.8038 27.0436 24.5845 26.8242C24.4748 26.7145 24.3652 26.6597 24.2555 26.6597C24.1185 26.6597 23.9814 26.7145 23.8444 26.8516C23.5977 27.0984 23.351 27.3452 23.1317 27.5645L22.9946 27.7016C22.9946 27.5371 22.9946 27.3726 22.9946 27.2081C22.9946 26.8516 22.8301 26.6323 22.5012 26.6323C22.3367 26.6323 22.2271 26.6597 22.1449 26.7694C22.0352 26.879 22.0078 27.0161 22.0078 27.2081C22.0078 28.0581 22.0078 28.9081 22.0078 29.7307C22.0078 29.9226 22.0626 30.0597 22.1449 30.1694C22.2271 30.2516 22.3367 30.3065 22.5012 30.3065C22.8027 30.3065 22.9946 30.0871 22.9946 29.7307C22.9946 29.5661 22.9946 29.4016 22.9946 29.2371V29.1274C23.0494 29.0726 23.1043 29.0177 23.1591 28.9629L23.4332 29.3468C23.5977 29.5936 23.7621 29.8129 23.9266 30.0597C24.1459 30.3613 24.3926 30.4161 24.6667 30.2516C24.8038 30.1694 24.8586 30.0597 24.886 29.95C24.9134 29.7581 24.8586 29.621 24.7489 29.4565Z" fill="#CA4475"/>
        <path d="M17.1833 26.6609C17.0189 26.6609 16.6625 26.6609 16.3336 26.6609C15.9498 26.6609 15.5935 26.6609 15.4838 26.6609C15.1275 26.6609 14.9082 26.8255 14.9082 27.1545C14.9082 27.319 14.9356 27.4287 15.0453 27.511C15.1275 27.6206 15.292 27.6481 15.4838 27.6481C15.5387 27.6481 15.6757 27.6481 15.8676 27.6481C15.8676 28.361 15.8676 29.0464 15.8676 29.7593C15.8676 29.9513 15.9224 30.0884 16.0046 30.1981C16.0869 30.2803 16.1965 30.3352 16.361 30.3352C16.6625 30.3352 16.8544 30.1158 16.8544 29.7593C16.8544 29.4577 16.8544 29.1561 16.8544 28.8819V28.4158C16.8544 28.169 16.8544 27.9222 16.8544 27.6755C17.0463 27.6755 17.1833 27.6755 17.2107 27.6755C17.5671 27.6755 17.7864 27.511 17.7864 27.1819C17.7864 27.0174 17.759 26.9077 17.6493 26.8255C17.5123 26.6884 17.3752 26.6609 17.1833 26.6609Z" fill="#CA4475"/>
        <path d="M20.9382 26.6323C20.8285 26.6323 20.7463 26.6597 20.6641 26.6871C20.5544 26.7419 20.4448 26.8242 20.3625 26.9613L19.2661 28.3871C19.2661 28.0032 19.2661 27.2081 19.2661 27.2081C19.2661 26.8516 19.1016 26.6323 18.7727 26.6323C18.6082 26.6323 18.4986 26.6597 18.4164 26.7694C18.3067 26.879 18.2793 27.0161 18.2793 27.2081V29.7581C18.2793 29.95 18.3341 30.0871 18.4164 30.1968C18.4986 30.279 18.6082 30.3339 18.7727 30.3339C18.9646 30.3339 19.1565 30.2242 19.3209 30.0048L20.4448 28.5516V29.7581C20.4448 29.95 20.4996 30.0871 20.5818 30.1968C20.6641 30.279 20.8011 30.3339 20.9382 30.3339C21.2397 30.3339 21.4316 30.1145 21.4316 29.7581V27.2629C21.4316 26.8516 21.2397 26.6597 20.9382 26.6323Z" fill="#CA4475"/>
        <path d="M28.0944 26.6323C27.9848 26.6323 27.9026 26.6597 27.8203 26.6871C27.7107 26.7419 27.601 26.8242 27.5188 26.9613L26.4224 28.3871C26.4224 28.0032 26.4224 27.2081 26.4224 27.2081C26.4224 26.8516 26.2579 26.6323 25.9289 26.6323C25.7645 26.6323 25.6548 26.6597 25.5726 26.7694C25.463 26.879 25.4355 27.0161 25.4355 27.2081V29.7581C25.4355 29.95 25.4904 30.0871 25.5726 30.1968C25.6548 30.279 25.7645 30.3339 25.9289 30.3339C26.1208 30.3339 26.3127 30.2242 26.4772 30.0048L27.601 28.5516V29.7581C27.601 29.95 27.6559 30.0871 27.7381 30.1968C27.8203 30.279 27.9574 30.3339 28.0944 30.3339C28.396 30.3339 28.5878 30.1145 28.5878 29.7581V27.2629C28.5604 26.8516 28.396 26.6597 28.0944 26.6323Z" fill="#CA4475"/>
        <path d="M24.7488 31.5129C24.7214 31.3484 24.6666 31.2113 24.557 31.1291C24.4747 31.0742 24.3377 31.0468 24.2006 31.0742C24.0636 31.1017 23.9813 31.1565 23.9265 31.2387C23.8717 31.2936 23.8169 31.3758 23.7894 31.4855C23.6798 31.7597 23.5976 32.0065 23.4879 32.2807L23.296 32.7742L23.1042 32.2807C22.9945 32.0339 22.8849 31.7597 22.8026 31.4855C22.7752 31.3758 22.7204 31.2936 22.6656 31.2387C22.6108 31.1565 22.5011 31.1017 22.3641 31.0742C22.227 31.0468 22.1174 31.0742 22.0077 31.1291C21.8981 31.2113 21.8433 31.321 21.8158 31.5129C21.7062 32.2807 21.5691 33.0758 21.4595 33.8436C21.4321 34.0355 21.4595 34.1726 21.5417 34.2823C21.5966 34.3646 21.7062 34.4194 21.8433 34.4468C22.1448 34.4742 22.3367 34.3097 22.3915 33.9807C22.4189 33.7339 22.4737 33.4871 22.5011 33.2404L22.5559 33.4049C22.6382 33.6242 22.7478 33.871 22.8301 34.0904C22.8575 34.1178 22.8575 34.1726 22.8849 34.2C22.8849 34.2275 22.9123 34.2549 22.9397 34.2823L22.9671 34.3097C23.0493 34.4194 23.159 34.4742 23.3235 34.4742C23.4605 34.4742 23.5702 34.4194 23.6524 34.3097L23.6798 34.2823C23.7072 34.2549 23.7072 34.2275 23.7346 34.2C23.762 34.1726 23.7894 34.1178 23.7894 34.0904C23.8717 33.871 23.9813 33.6242 24.0636 33.4049L24.1184 33.2404C24.1458 33.4871 24.2006 33.7339 24.228 33.9807C24.2828 34.3371 24.4747 34.5016 24.7762 34.4468C24.9133 34.4194 25.0229 34.3646 25.0778 34.2823C25.16 34.1726 25.1874 34.0355 25.16 33.8436C24.9681 33.0758 24.8585 32.3081 24.7488 31.5129Z" fill="#679BD4"/>
        <path d="M17.0463 31.048C16.8819 31.048 16.5529 31.048 16.2514 31.048C16.2514 31.048 16.2514 31.048 16.224 31.048C15.8677 31.048 15.5387 31.048 15.4291 31.048C15.1001 31.048 14.9083 31.2126 14.8809 31.5142C14.8809 31.6513 14.9083 31.7609 14.9905 31.8432C15.0727 31.9255 15.2098 31.9803 15.4017 31.9803H15.758C15.758 32.6384 15.758 33.2964 15.758 33.9271C15.758 34.119 15.8128 34.2561 15.8951 34.3384C15.9773 34.4206 16.087 34.448 16.224 34.448C16.5255 34.448 16.69 34.2561 16.69 33.8996C16.69 33.6255 16.69 33.3513 16.69 33.0771V32.6384C16.69 32.419 16.69 32.1996 16.69 31.9529C16.8545 31.9529 16.9915 31.9529 17.0189 31.9529C17.3479 31.9529 17.5397 31.7884 17.5672 31.4867C17.5672 31.3496 17.5397 31.24 17.4575 31.1577C17.3479 31.0755 17.2108 31.048 17.0463 31.048Z" fill="#679BD4"/>
        <path d="M28.1194 31.0468C28.0098 31.0468 27.9275 31.0742 27.8453 31.1016C27.7357 31.1564 27.6534 31.2387 27.5712 31.3484L26.557 32.6645C26.557 32.2806 26.557 31.5677 26.557 31.5677C26.557 31.2113 26.3925 31.0193 26.091 31.0193C25.9539 31.0193 25.8443 31.0468 25.7621 31.129C25.6798 31.2113 25.625 31.3484 25.625 31.5403V33.9258C25.625 34.1177 25.6798 34.2548 25.7621 34.3371C25.8443 34.4193 25.9539 34.4468 26.091 34.4468C26.2829 34.4468 26.4473 34.3371 26.6118 34.1451L27.6534 32.8016V33.9258C27.6534 34.1177 27.7083 34.2548 27.7905 34.3371C27.8727 34.4193 27.9824 34.4468 28.1194 34.4468C28.4209 34.4468 28.5854 34.2548 28.5854 33.8984V31.5677C28.558 31.2387 28.3935 31.0468 28.1194 31.0468Z" fill="#679BD4"/>
        <path d="M19.3499 31.0193C18.8565 31.0193 18.4454 31.2113 18.1164 31.5403C17.7875 31.8693 17.623 32.3081 17.623 32.7742C17.623 33.7339 18.3906 34.5016 19.3774 34.5016C19.8433 34.5016 20.2819 34.3097 20.6109 33.9806C20.9398 33.6516 21.1043 33.2129 21.1043 32.7468C21.1043 31.7871 20.3368 31.0193 19.3499 31.0193ZM20.1449 32.7742C20.1449 33.2129 19.8159 33.5419 19.3774 33.5419C19.1581 33.5419 18.9388 33.4597 18.8017 33.3226C18.6647 33.1855 18.5824 32.9661 18.5824 32.7742C18.5824 32.3355 18.9114 32.0064 19.3774 31.979C19.5966 31.979 19.7885 32.0613 19.9256 32.1984C20.0626 32.3355 20.1449 32.5548 20.1449 32.7742Z" fill="#679BD4"/>
        <path d="M55.0474 58.3268C52.6823 58.3268 50.808 57.1219 49.8263 56.3633C49.5585 56.1848 49.0676 55.6939 48.2644 55.6939C47.0149 55.6939 46.2116 56.6757 46.2116 57.702C46.2116 58.5499 46.6579 59.0854 47.1488 59.4424C48.2644 60.2457 51.165 62.0753 55.0028 62.0753C61.8304 62.0753 66.2929 57.2112 66.2929 51.3653C66.2929 44.7608 60.7594 41.2354 55.806 41.2354C53.9764 41.2354 51.7898 41.7263 51.7898 41.7263L52.6823 34.14H62.9906C64.1063 34.14 64.9095 33.426 64.9095 32.2212C64.9095 31.1948 64.1063 30.3915 62.9906 30.3915H50.8973C49.6924 30.3915 48.9338 31.3733 48.7999 32.5335L47.595 43.1097C47.5504 43.5559 47.5504 43.6898 47.5504 43.7344C47.5504 44.6269 48.2644 45.7425 49.5139 45.7425C50.0048 45.7425 50.6295 45.564 51.2543 45.4302C52.3699 45.1624 53.3516 44.8054 55.5383 44.8054C58.1265 44.8054 62.0981 47.1259 62.0981 51.3207C62.0981 55.1138 59.5099 58.3268 55.0474 58.3268ZM50.4064 114.666C50.3171 114.844 50.1833 115.112 50.1833 115.424C50.1833 116.272 50.9419 117.075 51.8344 117.075C52.4591 117.075 53.0393 116.718 53.3963 116.138L71.3801 87.355C71.514 87.1319 71.6479 86.8642 71.6479 86.641C71.6479 85.7485 70.8893 84.9453 69.9968 84.9453C69.2828 84.9453 68.7026 85.3023 68.3903 85.8378L50.4064 114.666ZM62.4105 110.248C62.4105 113.996 65.4896 117.075 69.2828 117.075C73.0313 117.075 76.1104 113.996 76.1104 110.248C76.1104 106.455 73.0313 103.375 69.2828 103.375C65.4896 103.375 62.4105 106.455 62.4105 110.248ZM65.5789 110.248C65.5789 108.195 67.23 106.544 69.2828 106.544C71.2909 106.544 72.942 108.195 72.942 110.248C72.942 112.256 71.2909 113.907 69.2828 113.907C67.23 113.907 65.5789 112.256 65.5789 110.248ZM45.7654 91.7283C45.7654 95.5214 48.8445 98.5559 52.593 98.5559C56.3861 98.5559 59.4653 95.5214 59.4653 91.7283C59.4653 87.9352 56.3861 84.9007 52.593 84.9007C48.8445 84.9007 45.7654 87.9352 45.7654 91.7283ZM48.9338 91.7283C48.9338 89.6755 50.5849 88.0244 52.593 88.0244C54.6458 88.0244 56.2969 89.6755 56.2969 91.7283C56.2969 93.781 54.6458 95.4322 52.593 95.4322C50.5849 95.4322 48.9338 93.781 48.9338 91.7283Z" fill="white"/>
        </g>
        </g>
        <defs>
        <filter id="filter0_d" x="0" y="0" width="70" height="50" filterUnits="userSpaceOnUse" color-interpolation-filters="sRGB">
        <feFlood flood-opacity="0" result="BackgroundImageFix"/>
        <feColorMatrix in="SourceAlpha" type="matrix" values="0 0 0 0 0 0 0 0 0 0 0 0 0 0 0 0 0 0 127 0"/>
        <feOffset dy="1"/>
        <feGaussianBlur stdDeviation="4"/>
        <feColorMatrix type="matrix" values="0 0 0 0 0 0 0 0 0 0 0 0 0 0 0 0 0 0 0.15 0"/>
        <feBlend mode="normal" in2="BackgroundImageFix" result="effect1_dropShadow"/>
        <feBlend mode="normal" in="SourceGraphic" in2="effect1_dropShadow" result="shape"/>
        </filter>
        <clipPath id="clip0">
        <rect x="8" y="7" width="54" height="34" rx="5" fill="white"/>
        </clipPath>
        </defs>
    </symbol>

    



</svg>
